<svg width="600" height="480" viewBox="0 0 600 480" fill="none" xmlns="http://www.w3.org/2000/svg">
<rect x="0.5" y="0.5" width="599" height="479" rx="24.5" fill="#EFEBEB" stroke="#919191"/>
<path d="M74.428 145V116.164H80.854V124.102L80.098 121.78C80.962 119.836 82.312 118.36 84.148 117.352C86.02 116.344 88.342 115.84 91.114 115.84V122.266C90.826 122.194 90.556 122.158 90.304 122.158C90.052 122.122 89.8 122.104 89.548 122.104C86.992 122.104 84.958 122.86 83.446 124.372C81.934 125.848 81.178 128.062 81.178 131.014V145H74.428ZM107.43 145.378C104.226 145.378 101.418 144.748 99.0064 143.488C96.6304 142.192 94.7764 140.428 93.4444 138.196C92.1484 135.964 91.5004 133.426 91.5004 130.582C91.5004 127.702 92.1304 125.164 93.3904 122.968C94.6864 120.736 96.4504 118.99 98.6824 117.73C100.95 116.47 103.524 115.84 106.404 115.84C109.212 115.84 111.714 116.452 113.91 117.676C116.106 118.9 117.834 120.628 119.094 122.86C120.354 125.092 120.984 127.72 120.984 130.744C120.984 131.032 120.966 131.356 120.93 131.716C120.93 132.076 120.912 132.418 120.876 132.742H96.8464V128.26H117.312L114.666 129.664C114.702 128.008 114.36 126.55 113.64 125.29C112.92 124.03 111.93 123.04 110.67 122.32C109.446 121.6 108.024 121.24 106.404 121.24C104.748 121.24 103.29 121.6 102.03 122.32C100.806 123.04 99.8344 124.048 99.1144 125.344C98.4304 126.604 98.0884 128.098 98.0884 129.826V130.906C98.0884 132.634 98.4844 134.164 99.2764 135.496C100.068 136.828 101.184 137.854 102.624 138.574C104.064 139.294 105.72 139.654 107.592 139.654C109.212 139.654 110.67 139.402 111.966 138.898C113.262 138.394 114.414 137.602 115.422 136.522L119.04 140.68C117.744 142.192 116.106 143.362 114.126 144.19C112.182 144.982 109.95 145.378 107.43 145.378ZM136.972 145.378C134.2 145.378 131.698 144.766 129.466 143.542C127.27 142.282 125.542 140.554 124.282 138.358C123.022 136.162 122.392 133.57 122.392 130.582C122.392 127.594 123.022 125.002 124.282 122.806C125.542 120.61 127.27 118.9 129.466 117.676C131.698 116.452 134.2 115.84 136.972 115.84C139.384 115.84 141.544 116.38 143.452 117.46C145.36 118.504 146.872 120.106 147.988 122.266C149.104 124.426 149.662 127.198 149.662 130.582C149.662 133.93 149.122 136.702 148.042 138.898C146.962 141.058 145.468 142.678 143.56 143.758C141.652 144.838 139.456 145.378 136.972 145.378ZM137.782 139.6C139.402 139.6 140.842 139.24 142.102 138.52C143.398 137.8 144.424 136.756 145.18 135.388C145.972 134.02 146.368 132.418 146.368 130.582C146.368 128.71 145.972 127.108 145.18 125.776C144.424 124.408 143.398 123.364 142.102 122.644C140.842 121.924 139.402 121.564 137.782 121.564C136.162 121.564 134.704 121.924 133.408 122.644C132.148 123.364 131.122 124.408 130.33 125.776C129.574 127.108 129.196 128.71 129.196 130.582C129.196 132.418 129.574 134.02 130.33 135.388C131.122 136.756 132.148 137.8 133.408 138.52C134.704 139.24 136.162 139.6 137.782 139.6ZM146.53 145V138.196L146.8 130.528L146.26 122.86V104.932H152.956V145H146.53ZM161.482 145V114.544C161.482 111.52 162.364 109.108 164.128 107.308C165.928 105.472 168.484 104.554 171.796 104.554C172.984 104.554 174.1 104.68 175.144 104.932C176.224 105.184 177.124 105.58 177.844 106.12L176.008 111.196C175.504 110.8 174.928 110.512 174.28 110.332C173.632 110.116 172.966 110.008 172.282 110.008C170.878 110.008 169.816 110.404 169.096 111.196C168.376 111.952 168.016 113.104 168.016 114.652V117.892L168.232 120.916V145H161.482ZM156.73 121.78V116.38H175.954V121.78H156.73ZM180.706 145V104.932H187.456V145H180.706ZM211.384 145V139.168L211.006 137.926V127.72C211.006 125.74 210.412 124.21 209.224 123.13C208.036 122.014 206.236 121.456 203.824 121.456C202.204 121.456 200.602 121.708 199.018 122.212C197.47 122.716 196.156 123.418 195.076 124.318L192.43 119.404C193.978 118.216 195.814 117.334 197.938 116.758C200.098 116.146 202.33 115.84 204.634 115.84C208.81 115.84 212.032 116.848 214.3 118.864C216.604 120.844 217.756 123.922 217.756 128.098V145H211.384ZM202.312 145.378C200.152 145.378 198.262 145.018 196.642 144.298C195.022 143.542 193.762 142.516 192.862 141.22C191.998 139.888 191.566 138.394 191.566 136.738C191.566 135.118 191.944 133.66 192.7 132.364C193.492 131.068 194.77 130.042 196.534 129.286C198.298 128.53 200.638 128.152 203.554 128.152H211.924V132.634H204.04C201.736 132.634 200.188 133.012 199.396 133.768C198.604 134.488 198.208 135.388 198.208 136.468C198.208 137.692 198.694 138.664 199.666 139.384C200.638 140.104 201.988 140.464 203.716 140.464C205.372 140.464 206.848 140.086 208.144 139.33C209.476 138.574 210.43 137.458 211.006 135.982L212.14 140.032C211.492 141.724 210.322 143.038 208.63 143.974C206.974 144.91 204.868 145.378 202.312 145.378ZM236.84 155.854C234.176 155.854 231.566 155.494 229.01 154.774C226.49 154.09 224.42 153.082 222.8 151.75L225.824 146.674C227.084 147.718 228.668 148.546 230.576 149.158C232.52 149.806 234.482 150.13 236.462 150.13C239.63 150.13 241.952 149.392 243.428 147.916C244.904 146.476 245.642 144.298 245.642 141.382V136.252L246.182 129.718L245.966 123.184V116.164H252.392V140.626C252.392 145.846 251.06 149.68 248.396 152.128C245.732 154.612 241.88 155.854 236.84 155.854ZM235.976 143.704C233.24 143.704 230.756 143.128 228.524 141.976C226.328 140.788 224.582 139.15 223.286 137.062C222.026 134.974 221.396 132.526 221.396 129.718C221.396 126.946 222.026 124.516 223.286 122.428C224.582 120.34 226.328 118.72 228.524 117.568C230.756 116.416 233.24 115.84 235.976 115.84C238.424 115.84 240.62 116.326 242.564 117.298C244.508 118.27 246.056 119.782 247.208 121.834C248.396 123.886 248.99 126.514 248.99 129.718C248.99 132.922 248.396 135.568 247.208 137.656C246.056 139.708 244.508 141.238 242.564 142.246C240.62 143.218 238.424 143.704 235.976 143.704ZM237.002 137.98C238.694 137.98 240.206 137.638 241.538 136.954C242.87 136.234 243.896 135.262 244.616 134.038C245.372 132.778 245.75 131.338 245.75 129.718C245.75 128.098 245.372 126.676 244.616 125.452C243.896 124.192 242.87 123.238 241.538 122.59C240.206 121.906 238.694 121.564 237.002 121.564C235.31 121.564 233.78 121.906 232.412 122.59C231.08 123.238 230.036 124.192 229.28 125.452C228.56 126.676 228.2 128.098 228.2 129.718C228.2 131.338 228.56 132.778 229.28 134.038C230.036 135.262 231.08 136.234 232.412 136.954C233.78 137.638 235.31 137.98 237.002 137.98ZM284.02 145.378C280.996 145.378 278.296 144.748 275.92 143.488C273.58 142.192 271.744 140.428 270.412 138.196C269.08 135.964 268.414 133.426 268.414 130.582C268.414 127.702 269.08 125.164 270.412 122.968C271.744 120.736 273.58 118.99 275.92 117.73C278.296 116.47 280.996 115.84 284.02 115.84C286.828 115.84 289.294 116.416 291.418 117.568C293.578 118.684 295.216 120.34 296.332 122.536L291.148 125.56C290.284 124.192 289.222 123.184 287.962 122.536C286.738 121.888 285.406 121.564 283.966 121.564C282.31 121.564 280.816 121.924 279.484 122.644C278.152 123.364 277.108 124.408 276.352 125.776C275.596 127.108 275.218 128.71 275.218 130.582C275.218 132.454 275.596 134.074 276.352 135.442C277.108 136.774 278.152 137.8 279.484 138.52C280.816 139.24 282.31 139.6 283.966 139.6C285.406 139.6 286.738 139.276 287.962 138.628C289.222 137.98 290.284 136.972 291.148 135.604L296.332 138.628C295.216 140.788 293.578 142.462 291.418 143.65C289.294 144.802 286.828 145.378 284.02 145.378ZM315.565 115.84C317.869 115.84 319.921 116.29 321.721 117.19C323.557 118.09 324.997 119.476 326.041 121.348C327.085 123.184 327.607 125.56 327.607 128.476V145H320.857V129.34C320.857 126.784 320.245 124.876 319.021 123.616C317.833 122.356 316.159 121.726 313.999 121.726C312.415 121.726 311.011 122.05 309.787 122.698C308.563 123.346 307.609 124.318 306.925 125.614C306.277 126.874 305.953 128.476 305.953 130.42V145H299.203V104.932H305.953V123.94L304.495 121.564C305.503 119.728 306.961 118.324 308.869 117.352C310.813 116.344 313.045 115.84 315.565 115.84ZM347.077 145.378C343.873 145.378 341.065 144.748 338.653 143.488C336.277 142.192 334.423 140.428 333.091 138.196C331.795 135.964 331.147 133.426 331.147 130.582C331.147 127.702 331.777 125.164 333.037 122.968C334.333 120.736 336.097 118.99 338.329 117.73C340.597 116.47 343.171 115.84 346.051 115.84C348.859 115.84 351.361 116.452 353.557 117.676C355.753 118.9 357.481 120.628 358.741 122.86C360.001 125.092 360.631 127.72 360.631 130.744C360.631 131.032 360.613 131.356 360.577 131.716C360.577 132.076 360.559 132.418 360.523 132.742H336.493V128.26H356.959L354.313 129.664C354.349 128.008 354.007 126.55 353.287 125.29C352.567 124.03 351.577 123.04 350.317 122.32C349.093 121.6 347.671 121.24 346.051 121.24C344.395 121.24 342.937 121.6 341.677 122.32C340.453 123.04 339.481 124.048 338.761 125.344C338.077 126.604 337.735 128.098 337.735 129.826V130.906C337.735 132.634 338.131 134.164 338.923 135.496C339.715 136.828 340.831 137.854 342.271 138.574C343.711 139.294 345.367 139.654 347.239 139.654C348.859 139.654 350.317 139.402 351.613 138.898C352.909 138.394 354.061 137.602 355.069 136.522L358.687 140.68C357.391 142.192 355.753 143.362 353.773 144.19C351.829 144.982 349.597 145.378 347.077 145.378ZM377.644 145.378C374.62 145.378 371.92 144.748 369.544 143.488C367.204 142.192 365.368 140.428 364.036 138.196C362.704 135.964 362.038 133.426 362.038 130.582C362.038 127.702 362.704 125.164 364.036 122.968C365.368 120.736 367.204 118.99 369.544 117.73C371.92 116.47 374.62 115.84 377.644 115.84C380.452 115.84 382.918 116.416 385.042 117.568C387.202 118.684 388.84 120.34 389.956 122.536L384.772 125.56C383.908 124.192 382.846 123.184 381.586 122.536C380.362 121.888 379.03 121.564 377.59 121.564C375.934 121.564 374.44 121.924 373.108 122.644C371.776 123.364 370.732 124.408 369.976 125.776C369.22 127.108 368.842 128.71 368.842 130.582C368.842 132.454 369.22 134.074 369.976 135.442C370.732 136.774 371.776 137.8 373.108 138.52C374.44 139.24 375.934 139.6 377.59 139.6C379.03 139.6 380.362 139.276 381.586 138.628C382.846 137.98 383.908 136.972 384.772 135.604L389.956 138.628C388.84 140.788 387.202 142.462 385.042 143.65C382.918 144.802 380.452 145.378 377.644 145.378ZM398.336 138.574L398.498 130.096L413.564 116.164H421.664L408.866 129.016L405.302 131.986L398.336 138.574ZM392.828 145V104.932H399.578V145H392.828ZM414.59 145L404.06 131.986L408.326 126.586L422.798 145H414.59Z" fill="#F8481D"/>
<path d="M76.6719 192.493C76.6188 192.022 76.4001 191.658 76.0156 191.399C75.6312 191.137 75.1473 191.006 74.5639 191.006C74.1463 191.006 73.785 191.073 73.4801 191.205C73.1752 191.335 72.9382 191.513 72.7692 191.742C72.6035 191.968 72.5206 192.224 72.5206 192.513C72.5206 192.755 72.5769 192.964 72.6896 193.139C72.8056 193.315 72.9564 193.462 73.142 193.582C73.331 193.698 73.5331 193.795 73.7486 193.875C73.964 193.951 74.1712 194.014 74.37 194.064L75.3643 194.322C75.6892 194.402 76.0223 194.51 76.3636 194.646C76.705 194.781 77.0215 194.96 77.3132 195.183C77.6049 195.405 77.8402 195.68 78.0192 196.008C78.2015 196.336 78.2926 196.729 78.2926 197.186C78.2926 197.763 78.1435 198.275 77.8452 198.722C77.5502 199.17 77.121 199.523 76.5575 199.781C75.9974 200.04 75.3196 200.169 74.5241 200.169C73.7618 200.169 73.1023 200.048 72.5455 199.806C71.9886 199.564 71.5528 199.221 71.2379 198.777C70.9231 198.33 70.7491 197.799 70.7159 197.186H72.2571C72.2869 197.554 72.4063 197.861 72.6151 198.106C72.8272 198.348 73.0973 198.528 73.4254 198.648C73.7569 198.764 74.1198 198.822 74.5142 198.822C74.9484 198.822 75.3345 198.754 75.6726 198.618C76.014 198.479 76.2824 198.286 76.478 198.041C76.6735 197.793 76.7713 197.503 76.7713 197.171C76.7713 196.87 76.6851 196.623 76.5128 196.43C76.3438 196.238 76.1134 196.079 75.8217 195.953C75.5334 195.827 75.2069 195.716 74.8423 195.62L73.6392 195.292C72.8239 195.07 72.1776 194.743 71.7003 194.312C71.2263 193.882 70.9893 193.312 70.9893 192.602C70.9893 192.016 71.1484 191.504 71.4666 191.066C71.7848 190.629 72.2157 190.289 72.7592 190.047C73.3028 189.802 73.916 189.679 74.5987 189.679C75.2881 189.679 75.8963 189.8 76.4233 190.042C76.9536 190.284 77.3712 190.617 77.6761 191.041C77.9811 191.462 78.1402 191.946 78.1534 192.493H76.6719ZM83.3002 200.154C82.5479 200.154 81.8999 199.993 81.3564 199.672C80.8161 199.347 80.3985 198.891 80.1035 198.305C79.8118 197.715 79.666 197.024 79.666 196.232C79.666 195.449 79.8118 194.76 80.1035 194.163C80.3985 193.567 80.8095 193.101 81.3365 192.766C81.8668 192.432 82.4866 192.264 83.1958 192.264C83.6267 192.264 84.0443 192.335 84.4487 192.478C84.853 192.621 85.216 192.844 85.5375 193.149C85.859 193.454 86.1125 193.85 86.2981 194.337C86.4837 194.821 86.5765 195.41 86.5765 196.102V196.629H80.5062V195.516H85.1199C85.1199 195.125 85.0403 194.778 84.8812 194.477C84.7221 194.172 84.4984 193.931 84.21 193.756C83.925 193.58 83.5903 193.492 83.2058 193.492C82.7882 193.492 82.4236 193.595 82.112 193.8C81.8038 194.003 81.5652 194.268 81.3961 194.596C81.2304 194.921 81.1475 195.274 81.1475 195.655V196.525C81.1475 197.035 81.237 197.469 81.416 197.827C81.5983 198.185 81.8519 198.459 82.1767 198.648C82.5015 198.833 82.881 198.926 83.3152 198.926C83.5969 198.926 83.8538 198.886 84.0858 198.807C84.3178 198.724 84.5183 198.601 84.6873 198.439C84.8564 198.277 84.9856 198.076 85.0751 197.837L86.4821 198.091C86.3694 198.505 86.1672 198.868 85.8755 199.18C85.5872 199.488 85.2243 199.728 84.7868 199.901C84.3526 200.07 83.8571 200.154 83.3002 200.154ZM90.4482 200.169C89.9643 200.169 89.5268 200.08 89.1357 199.901C88.7446 199.718 88.4347 199.455 88.206 199.11C87.9806 198.765 87.8679 198.343 87.8679 197.842C87.8679 197.411 87.9508 197.057 88.1165 196.778C88.2822 196.5 88.5059 196.28 88.7876 196.117C89.0694 195.955 89.3842 195.832 89.7322 195.749C90.0803 195.666 90.4349 195.603 90.7962 195.56C91.2536 195.507 91.6248 195.464 91.9098 195.431C92.1948 195.395 92.402 195.337 92.5312 195.257C92.6605 195.178 92.7251 195.048 92.7251 194.869V194.835C92.7251 194.4 92.6025 194.064 92.3572 193.825C92.1153 193.587 91.754 193.467 91.2734 193.467C90.773 193.467 90.3786 193.578 90.0902 193.8C89.8052 194.019 89.608 194.263 89.4986 194.531L88.1016 194.213C88.2673 193.749 88.5092 193.375 88.8274 193.089C89.1489 192.801 89.5185 192.592 89.9361 192.463C90.3537 192.33 90.7929 192.264 91.2536 192.264C91.5585 192.264 91.8816 192.301 92.223 192.374C92.5677 192.443 92.8892 192.572 93.1875 192.761C93.4891 192.95 93.736 193.22 93.9283 193.572C94.1205 193.92 94.2166 194.372 94.2166 194.929V200H92.7649V198.956H92.7053C92.6091 199.148 92.465 199.337 92.2727 199.523C92.0805 199.708 91.8336 199.862 91.532 199.985C91.2304 200.108 90.8691 200.169 90.4482 200.169ZM90.7713 198.976C91.1823 198.976 91.5336 198.895 91.8253 198.732C92.1203 198.57 92.344 198.358 92.4964 198.096C92.6522 197.831 92.7301 197.547 92.7301 197.246V196.261C92.6771 196.314 92.5743 196.364 92.4219 196.411C92.2727 196.454 92.102 196.492 91.9098 196.525C91.7176 196.555 91.5303 196.583 91.348 196.609C91.1657 196.633 91.0133 196.652 90.8906 196.669C90.6023 196.705 90.3388 196.767 90.1001 196.853C89.8648 196.939 89.6759 197.063 89.5334 197.226C89.3942 197.385 89.3246 197.597 89.3246 197.862C89.3246 198.23 89.4605 198.509 89.7322 198.697C90.004 198.883 90.3504 198.976 90.7713 198.976ZM96.1966 200V192.364H97.6333V193.577H97.7129C97.8521 193.166 98.0974 192.843 98.4487 192.607C98.8033 192.369 99.2044 192.249 99.6518 192.249C99.7446 192.249 99.854 192.253 99.9799 192.259C100.109 192.266 100.21 192.274 100.283 192.284V193.706C100.224 193.689 100.117 193.671 99.965 193.651C99.8126 193.628 99.6601 193.616 99.5076 193.616C99.1563 193.616 98.8431 193.691 98.568 193.84C98.2962 193.986 98.0808 194.19 97.9217 194.452C97.7626 194.71 97.6831 195.005 97.6831 195.337V200H96.1966ZM104.513 200.154C103.774 200.154 103.137 199.987 102.604 199.652C102.073 199.314 101.666 198.848 101.381 198.255C101.096 197.662 100.953 196.982 100.953 196.217C100.953 195.441 101.099 194.757 101.391 194.163C101.682 193.567 102.093 193.101 102.624 192.766C103.154 192.432 103.779 192.264 104.498 192.264C105.078 192.264 105.595 192.372 106.049 192.587C106.503 192.799 106.869 193.098 107.148 193.482C107.429 193.867 107.597 194.316 107.65 194.83H106.203C106.124 194.472 105.941 194.163 105.656 193.905C105.375 193.646 104.997 193.517 104.523 193.517C104.108 193.517 103.746 193.626 103.434 193.845C103.126 194.061 102.885 194.369 102.713 194.77C102.541 195.168 102.455 195.638 102.455 196.182C102.455 196.739 102.539 197.219 102.708 197.624C102.877 198.028 103.116 198.341 103.424 198.563C103.736 198.785 104.102 198.896 104.523 198.896C104.804 198.896 105.06 198.845 105.288 198.742C105.52 198.636 105.714 198.485 105.87 198.29C106.029 198.094 106.14 197.859 106.203 197.584H107.65C107.597 198.078 107.436 198.518 107.168 198.906C106.899 199.294 106.54 199.599 106.089 199.821C105.641 200.043 105.116 200.154 104.513 200.154ZM110.726 195.466V200H109.24V189.818H110.706V193.607H110.801C110.98 193.196 111.253 192.869 111.621 192.627C111.989 192.385 112.469 192.264 113.063 192.264C113.586 192.264 114.044 192.372 114.435 192.587C114.829 192.803 115.134 193.124 115.35 193.552C115.568 193.976 115.678 194.506 115.678 195.143V200H114.191V195.322C114.191 194.762 114.047 194.327 113.759 194.019C113.47 193.708 113.069 193.552 112.556 193.552C112.204 193.552 111.889 193.626 111.611 193.776C111.336 193.925 111.119 194.143 110.96 194.432C110.804 194.717 110.726 195.062 110.726 195.466ZM121.486 200V189.818H122.972V193.602H123.062C123.148 193.442 123.272 193.259 123.435 193.05C123.597 192.841 123.822 192.659 124.111 192.503C124.399 192.344 124.78 192.264 125.254 192.264C125.871 192.264 126.421 192.42 126.905 192.732C127.389 193.043 127.768 193.492 128.043 194.079C128.322 194.665 128.461 195.371 128.461 196.197C128.461 197.022 128.323 197.73 128.048 198.32C127.773 198.906 127.395 199.359 126.915 199.677C126.434 199.992 125.886 200.149 125.269 200.149C124.805 200.149 124.426 200.071 124.131 199.915C123.839 199.76 123.61 199.577 123.445 199.369C123.279 199.16 123.151 198.974 123.062 198.812H122.938V200H121.486ZM122.942 196.182C122.942 196.719 123.02 197.189 123.176 197.594C123.332 197.998 123.557 198.315 123.852 198.543C124.147 198.769 124.509 198.881 124.936 198.881C125.38 198.881 125.751 198.764 126.05 198.528C126.348 198.29 126.573 197.967 126.726 197.559C126.882 197.151 126.96 196.692 126.96 196.182C126.96 195.678 126.883 195.226 126.731 194.825C126.582 194.424 126.356 194.107 126.055 193.875C125.756 193.643 125.384 193.527 124.936 193.527C124.505 193.527 124.141 193.638 123.842 193.86C123.547 194.082 123.324 194.392 123.171 194.79C123.019 195.187 122.942 195.652 122.942 196.182ZM130.81 202.864C130.588 202.864 130.386 202.845 130.203 202.809C130.021 202.776 129.885 202.739 129.796 202.7L130.154 201.482C130.426 201.554 130.667 201.586 130.88 201.576C131.092 201.566 131.279 201.487 131.441 201.337C131.607 201.188 131.753 200.945 131.879 200.607L132.063 200.099L129.269 192.364H130.86L132.794 198.29H132.873L134.807 192.364H136.403L133.256 201.019C133.11 201.417 132.925 201.753 132.699 202.028C132.474 202.307 132.205 202.516 131.894 202.655C131.582 202.794 131.221 202.864 130.81 202.864ZM143.727 200.169C143.244 200.169 142.806 200.08 142.415 199.901C142.024 199.718 141.714 199.455 141.485 199.11C141.26 198.765 141.147 198.343 141.147 197.842C141.147 197.411 141.23 197.057 141.396 196.778C141.561 196.5 141.785 196.28 142.067 196.117C142.349 195.955 142.664 195.832 143.012 195.749C143.36 195.666 143.714 195.603 144.075 195.56C144.533 195.507 144.904 195.464 145.189 195.431C145.474 195.395 145.681 195.337 145.811 195.257C145.94 195.178 146.004 195.048 146.004 194.869V194.835C146.004 194.4 145.882 194.064 145.637 193.825C145.395 193.587 145.033 193.467 144.553 193.467C144.052 193.467 143.658 193.578 143.369 193.8C143.084 194.019 142.887 194.263 142.778 194.531L141.381 194.213C141.547 193.749 141.789 193.375 142.107 193.089C142.428 192.801 142.798 192.592 143.215 192.463C143.633 192.33 144.072 192.264 144.533 192.264C144.838 192.264 145.161 192.301 145.502 192.374C145.847 192.443 146.169 192.572 146.467 192.761C146.768 192.95 147.015 193.22 147.208 193.572C147.4 193.92 147.496 194.372 147.496 194.929V200H146.044V198.956H145.985C145.888 199.148 145.744 199.337 145.552 199.523C145.36 199.708 145.113 199.862 144.811 199.985C144.51 200.108 144.148 200.169 143.727 200.169ZM144.051 198.976C144.462 198.976 144.813 198.895 145.105 198.732C145.4 198.57 145.623 198.358 145.776 198.096C145.932 197.831 146.009 197.547 146.009 197.246V196.261C145.956 196.314 145.854 196.364 145.701 196.411C145.552 196.454 145.381 196.492 145.189 196.525C144.997 196.555 144.81 196.583 144.627 196.609C144.445 196.633 144.293 196.652 144.17 196.669C143.882 196.705 143.618 196.767 143.379 196.853C143.144 196.939 142.955 197.063 142.813 197.226C142.673 197.385 142.604 197.597 142.604 197.862C142.604 198.23 142.74 198.509 143.012 198.697C143.283 198.883 143.63 198.976 144.051 198.976ZM152.335 200.149C151.718 200.149 151.168 199.992 150.684 199.677C150.203 199.359 149.826 198.906 149.55 198.32C149.279 197.73 149.143 197.022 149.143 196.197C149.143 195.371 149.28 194.665 149.555 194.079C149.834 193.492 150.215 193.043 150.699 192.732C151.183 192.42 151.731 192.264 152.344 192.264C152.818 192.264 153.2 192.344 153.488 192.503C153.78 192.659 154.005 192.841 154.164 193.05C154.326 193.259 154.452 193.442 154.542 193.602H154.631V189.818H156.118V200H154.666V198.812H154.542C154.452 198.974 154.323 199.16 154.154 199.369C153.988 199.577 153.76 199.76 153.468 199.915C153.176 200.071 152.799 200.149 152.335 200.149ZM152.663 198.881C153.09 198.881 153.451 198.769 153.746 198.543C154.045 198.315 154.27 197.998 154.423 197.594C154.578 197.189 154.656 196.719 154.656 196.182C154.656 195.652 154.58 195.187 154.428 194.79C154.275 194.392 154.051 194.082 153.756 193.86C153.461 193.638 153.097 193.527 152.663 193.527C152.215 193.527 151.842 193.643 151.544 193.875C151.246 194.107 151.02 194.424 150.868 194.825C150.719 195.226 150.644 195.678 150.644 196.182C150.644 196.692 150.72 197.151 150.873 197.559C151.025 197.967 151.251 198.29 151.549 198.528C151.851 198.764 152.222 198.881 152.663 198.881ZM161.098 200.149C160.482 200.149 159.932 199.992 159.448 199.677C158.967 199.359 158.589 198.906 158.314 198.32C158.042 197.73 157.906 197.022 157.906 196.197C157.906 195.371 158.044 194.665 158.319 194.079C158.597 193.492 158.979 193.043 159.463 192.732C159.946 192.42 160.495 192.264 161.108 192.264C161.582 192.264 161.963 192.344 162.252 192.503C162.543 192.659 162.769 192.841 162.928 193.05C163.09 193.259 163.216 193.442 163.306 193.602H163.395V189.818H164.882V200H163.43V198.812H163.306C163.216 198.974 163.087 199.16 162.918 199.369C162.752 199.577 162.523 199.76 162.232 199.915C161.94 200.071 161.562 200.149 161.098 200.149ZM161.426 198.881C161.854 198.881 162.215 198.769 162.51 198.543C162.808 198.315 163.034 197.998 163.186 197.594C163.342 197.189 163.42 196.719 163.42 196.182C163.42 195.652 163.344 195.187 163.191 194.79C163.039 194.392 162.815 194.082 162.52 193.86C162.225 193.638 161.86 193.527 161.426 193.527C160.979 193.527 160.606 193.643 160.308 193.875C160.009 194.107 159.784 194.424 159.632 194.825C159.482 195.226 159.408 195.678 159.408 196.182C159.408 196.692 159.484 197.151 159.637 197.559C159.789 197.967 160.014 198.29 160.313 198.528C160.614 198.764 160.985 198.881 161.426 198.881ZM167.003 200V192.364H168.44V193.577H168.52C168.659 193.166 168.904 192.843 169.255 192.607C169.61 192.369 170.011 192.249 170.458 192.249C170.551 192.249 170.661 192.253 170.787 192.259C170.916 192.266 171.017 192.274 171.09 192.284V193.706C171.03 193.689 170.924 193.671 170.772 193.651C170.619 193.628 170.467 193.616 170.314 193.616C169.963 193.616 169.65 193.691 169.375 193.84C169.103 193.986 168.887 194.19 168.728 194.452C168.569 194.71 168.49 195.005 168.49 195.337V200H167.003ZM175.394 200.154C174.642 200.154 173.994 199.993 173.45 199.672C172.91 199.347 172.492 198.891 172.197 198.305C171.906 197.715 171.76 197.024 171.76 196.232C171.76 195.449 171.906 194.76 172.197 194.163C172.492 193.567 172.903 193.101 173.43 192.766C173.961 192.432 174.58 192.264 175.29 192.264C175.72 192.264 176.138 192.335 176.542 192.478C176.947 192.621 177.31 192.844 177.631 193.149C177.953 193.454 178.206 193.85 178.392 194.337C178.577 194.821 178.67 195.41 178.67 196.102V196.629H172.6V195.516H177.214C177.214 195.125 177.134 194.778 176.975 194.477C176.816 194.172 176.592 193.931 176.304 193.756C176.019 193.58 175.684 193.492 175.3 193.492C174.882 193.492 174.517 193.595 174.206 193.8C173.898 194.003 173.659 194.268 173.49 194.596C173.324 194.921 173.241 195.274 173.241 195.655V196.525C173.241 197.035 173.331 197.469 173.51 197.827C173.692 198.185 173.946 198.459 174.27 198.648C174.595 198.833 174.975 198.926 175.409 198.926C175.691 198.926 175.948 198.886 176.18 198.807C176.412 198.724 176.612 198.601 176.781 198.439C176.95 198.277 177.079 198.076 177.169 197.837L178.576 198.091C178.463 198.505 178.261 198.868 177.969 199.18C177.681 199.488 177.318 199.728 176.881 199.901C176.446 200.07 175.951 200.154 175.394 200.154ZM186.042 194.228L184.695 194.467C184.638 194.294 184.549 194.13 184.426 193.974C184.307 193.819 184.144 193.691 183.939 193.592C183.733 193.492 183.477 193.442 183.168 193.442C182.747 193.442 182.396 193.537 182.114 193.726C181.833 193.911 181.692 194.152 181.692 194.447C181.692 194.702 181.786 194.907 181.975 195.063C182.164 195.219 182.469 195.347 182.89 195.446L184.103 195.724C184.806 195.887 185.329 196.137 185.674 196.475C186.019 196.813 186.191 197.252 186.191 197.793C186.191 198.25 186.058 198.658 185.793 199.016C185.531 199.37 185.165 199.649 184.695 199.851C184.227 200.053 183.685 200.154 183.069 200.154C182.214 200.154 181.516 199.972 180.976 199.607C180.436 199.239 180.104 198.717 179.982 198.041L181.418 197.822C181.508 198.197 181.692 198.48 181.97 198.673C182.249 198.862 182.612 198.956 183.059 198.956C183.546 198.956 183.936 198.855 184.227 198.653C184.519 198.447 184.665 198.197 184.665 197.902C184.665 197.663 184.575 197.463 184.396 197.3C184.221 197.138 183.951 197.015 183.586 196.933L182.293 196.649C181.581 196.487 181.054 196.228 180.712 195.874C180.374 195.519 180.205 195.07 180.205 194.526C180.205 194.076 180.331 193.681 180.583 193.343C180.835 193.005 181.183 192.741 181.627 192.553C182.071 192.36 182.58 192.264 183.153 192.264C183.979 192.264 184.628 192.443 185.102 192.801C185.576 193.156 185.889 193.631 186.042 194.228ZM193.548 194.228L192.2 194.467C192.144 194.294 192.055 194.13 191.932 193.974C191.813 193.819 191.65 193.691 191.445 193.592C191.239 193.492 190.982 193.442 190.674 193.442C190.253 193.442 189.902 193.537 189.62 193.726C189.338 193.911 189.198 194.152 189.198 194.447C189.198 194.702 189.292 194.907 189.481 195.063C189.67 195.219 189.975 195.347 190.396 195.446L191.609 195.724C192.311 195.887 192.835 196.137 193.18 196.475C193.525 196.813 193.697 197.252 193.697 197.793C193.697 198.25 193.564 198.658 193.299 199.016C193.037 199.37 192.671 199.649 192.2 199.851C191.733 200.053 191.191 200.154 190.575 200.154C189.72 200.154 189.022 199.972 188.482 199.607C187.941 199.239 187.61 198.717 187.487 198.041L188.924 197.822C189.014 198.197 189.198 198.48 189.476 198.673C189.754 198.862 190.117 198.956 190.565 198.956C191.052 198.956 191.441 198.855 191.733 198.653C192.025 198.447 192.171 198.197 192.171 197.902C192.171 197.663 192.081 197.463 191.902 197.3C191.727 197.138 191.456 197.015 191.092 196.933L189.799 196.649C189.087 196.487 188.56 196.228 188.218 195.874C187.88 195.519 187.711 195.07 187.711 194.526C187.711 194.076 187.837 193.681 188.089 193.343C188.341 193.005 188.689 192.741 189.133 192.553C189.577 192.36 190.086 192.264 190.659 192.264C191.485 192.264 192.134 192.443 192.608 192.801C193.082 193.156 193.395 193.631 193.548 194.228Z" fill="#EFEBEB"/>
<rect x="71" y="216" width="458" height="48" rx="24" fill="white" stroke="#F8481D" stroke-width="2"/>
<rect x="190" y="315" width="198" height="50" rx="25" fill="#252E9E"/>
<path d="M263.877 336.638C263.821 336.065 263.577 335.62 263.146 335.303C262.715 334.985 262.13 334.827 261.392 334.827C260.89 334.827 260.466 334.898 260.12 335.04C259.775 335.177 259.51 335.369 259.325 335.615C259.145 335.861 259.055 336.141 259.055 336.453C259.046 336.714 259.1 336.941 259.218 337.135C259.342 337.329 259.51 337.497 259.723 337.639C259.936 337.777 260.182 337.897 260.461 338.001C260.741 338.101 261.039 338.186 261.356 338.257L262.663 338.57C263.297 338.712 263.88 338.901 264.41 339.138C264.94 339.375 265.4 339.666 265.788 340.011C266.176 340.357 266.477 340.764 266.69 341.233C266.908 341.702 267.019 342.239 267.024 342.845C267.019 343.735 266.792 344.507 266.342 345.161C265.897 345.809 265.253 346.313 264.41 346.673C263.572 347.028 262.561 347.206 261.377 347.206C260.203 347.206 259.181 347.026 258.309 346.666C257.443 346.306 256.766 345.774 256.278 345.068C255.795 344.358 255.542 343.48 255.518 342.433H258.494C258.527 342.921 258.667 343.328 258.913 343.655C259.164 343.977 259.498 344.221 259.914 344.386C260.336 344.547 260.812 344.628 261.342 344.628C261.863 344.628 262.315 344.552 262.699 344.401C263.087 344.249 263.387 344.038 263.6 343.768C263.814 343.499 263.92 343.188 263.92 342.838C263.92 342.511 263.823 342.237 263.629 342.014C263.44 341.792 263.16 341.602 262.791 341.446C262.426 341.29 261.979 341.148 261.449 341.02L259.865 340.622C258.638 340.324 257.67 339.857 256.96 339.223C256.25 338.589 255.897 337.734 255.902 336.659C255.897 335.778 256.131 335.009 256.605 334.351C257.083 333.693 257.739 333.179 258.572 332.81C259.405 332.44 260.352 332.256 261.413 332.256C262.493 332.256 263.435 332.44 264.24 332.81C265.049 333.179 265.679 333.693 266.129 334.351C266.579 335.009 266.811 335.771 266.825 336.638H263.877ZM274.007 347.213C272.885 347.213 271.919 346.986 271.109 346.531C270.304 346.072 269.684 345.423 269.249 344.585C268.813 343.742 268.595 342.746 268.595 341.595C268.595 340.473 268.813 339.488 269.249 338.641C269.684 337.793 270.297 337.133 271.088 336.659C271.884 336.186 272.816 335.949 273.886 335.949C274.606 335.949 275.276 336.065 275.896 336.297C276.521 336.524 277.066 336.867 277.53 337.327C277.999 337.786 278.363 338.364 278.624 339.06C278.884 339.751 279.014 340.561 279.014 341.489V342.32H269.803V340.445H276.166C276.166 340.009 276.071 339.623 275.882 339.287C275.693 338.951 275.43 338.688 275.094 338.499C274.762 338.304 274.376 338.207 273.936 338.207C273.477 338.207 273.07 338.314 272.714 338.527C272.364 338.735 272.089 339.017 271.891 339.372C271.692 339.723 271.59 340.113 271.585 340.544V342.327C271.585 342.866 271.685 343.333 271.884 343.726C272.087 344.119 272.374 344.422 272.743 344.635C273.112 344.848 273.55 344.955 274.057 344.955C274.393 344.955 274.701 344.907 274.98 344.812C275.259 344.718 275.499 344.576 275.697 344.386C275.896 344.197 276.048 343.965 276.152 343.69L278.95 343.875C278.808 344.547 278.517 345.134 278.077 345.636C277.641 346.134 277.078 346.522 276.386 346.801C275.7 347.076 274.907 347.213 274.007 347.213ZM284.099 347.206C283.403 347.206 282.783 347.085 282.239 346.844C281.694 346.598 281.263 346.235 280.946 345.757C280.634 345.274 280.477 344.673 280.477 343.953C280.477 343.347 280.589 342.838 280.811 342.426C281.034 342.014 281.337 341.683 281.72 341.432C282.104 341.181 282.539 340.991 283.027 340.864C283.519 340.736 284.036 340.646 284.575 340.594C285.21 340.527 285.721 340.466 286.109 340.409C286.498 340.348 286.779 340.258 286.955 340.139C287.13 340.021 287.217 339.846 287.217 339.614V339.571C287.217 339.121 287.075 338.773 286.791 338.527C286.512 338.281 286.114 338.158 285.598 338.158C285.054 338.158 284.62 338.278 284.298 338.52C283.976 338.757 283.763 339.055 283.659 339.415L280.861 339.188C281.003 338.525 281.282 337.952 281.699 337.469C282.116 336.981 282.653 336.607 283.311 336.347C283.974 336.081 284.741 335.949 285.612 335.949C286.218 335.949 286.798 336.02 287.352 336.162C287.911 336.304 288.406 336.524 288.837 336.822C289.272 337.121 289.616 337.504 289.866 337.973C290.117 338.437 290.243 338.993 290.243 339.642V347H287.374V345.487H287.288C287.113 345.828 286.879 346.129 286.585 346.389C286.292 346.645 285.939 346.846 285.527 346.993C285.115 347.135 284.639 347.206 284.099 347.206ZM284.966 345.118C285.411 345.118 285.804 345.03 286.145 344.855C286.486 344.675 286.753 344.434 286.947 344.131C287.142 343.828 287.239 343.484 287.239 343.101V341.943C287.144 342.005 287.014 342.062 286.848 342.114C286.687 342.161 286.505 342.206 286.301 342.249C286.098 342.286 285.894 342.322 285.69 342.355C285.487 342.384 285.302 342.41 285.136 342.433C284.781 342.485 284.471 342.568 284.206 342.682C283.941 342.795 283.735 342.949 283.588 343.143C283.441 343.333 283.368 343.57 283.368 343.854C283.368 344.266 283.517 344.58 283.815 344.798C284.118 345.011 284.502 345.118 284.966 345.118ZM292.59 347V336.091H295.523V337.994H295.637C295.836 337.317 296.17 336.806 296.638 336.46C297.107 336.11 297.647 335.935 298.258 335.935C298.409 335.935 298.573 335.944 298.748 335.963C298.923 335.982 299.077 336.008 299.21 336.041V338.726C299.067 338.683 298.871 338.645 298.62 338.612C298.369 338.579 298.139 338.562 297.931 338.562C297.486 338.562 297.088 338.66 296.738 338.854C296.392 339.043 296.118 339.308 295.914 339.649C295.715 339.99 295.616 340.383 295.616 340.828V347H292.59ZM305.195 347.213C304.078 347.213 303.116 346.976 302.311 346.503C301.511 346.025 300.896 345.362 300.465 344.514C300.039 343.667 299.826 342.691 299.826 341.588C299.826 340.471 300.041 339.491 300.472 338.648C300.908 337.8 301.525 337.14 302.326 336.666C303.126 336.188 304.078 335.949 305.181 335.949C306.132 335.949 306.966 336.122 307.681 336.467C308.396 336.813 308.962 337.298 309.378 337.923C309.795 338.548 310.025 339.282 310.067 340.125H307.212C307.132 339.58 306.918 339.143 306.573 338.811C306.232 338.475 305.784 338.307 305.23 338.307C304.762 338.307 304.352 338.435 304.002 338.69C303.656 338.941 303.386 339.308 303.192 339.791C302.998 340.274 302.901 340.859 302.901 341.545C302.901 342.241 302.996 342.833 303.185 343.321C303.379 343.809 303.651 344.18 304.002 344.436C304.352 344.692 304.762 344.82 305.23 344.82C305.576 344.82 305.886 344.749 306.161 344.607C306.44 344.464 306.67 344.259 306.85 343.989C307.034 343.714 307.155 343.385 307.212 343.001H310.067C310.02 343.835 309.792 344.569 309.385 345.203C308.983 345.833 308.426 346.325 307.716 346.68C307.006 347.036 306.166 347.213 305.195 347.213ZM315.03 340.693V347H312.004V332.455H314.945V338.016H315.072C315.319 337.372 315.716 336.867 316.266 336.503C316.815 336.134 317.504 335.949 318.332 335.949C319.09 335.949 319.75 336.115 320.314 336.446C320.882 336.773 321.322 337.244 321.635 337.859C321.952 338.47 322.108 339.202 322.104 340.054V347H319.078V340.594C319.083 339.921 318.912 339.398 318.567 339.024C318.226 338.65 317.748 338.463 317.132 338.463C316.72 338.463 316.356 338.551 316.038 338.726C315.726 338.901 315.48 339.157 315.3 339.493C315.125 339.824 315.035 340.224 315.03 340.693Z" fill="#EFEBEB"/>
<path d="M95.0788 234.818V245H93.8459V236.111H93.7862L91.3004 237.761V236.509L93.8459 234.818H95.0788ZM98.0071 245V244.105L101.368 240.426C101.762 239.995 102.087 239.621 102.342 239.303C102.598 238.981 102.786 238.679 102.909 238.398C103.035 238.113 103.098 237.814 103.098 237.503C103.098 237.145 103.012 236.835 102.839 236.573C102.67 236.311 102.438 236.109 102.143 235.967C101.848 235.824 101.517 235.753 101.149 235.753C100.758 235.753 100.417 235.834 100.125 235.996C99.8366 236.156 99.6129 236.379 99.4538 236.668C99.2981 236.956 99.2202 237.294 99.2202 237.682H98.0469C98.0469 237.085 98.1844 236.562 98.4595 236.111C98.7346 235.66 99.1091 235.309 99.5831 235.057C100.06 234.805 100.596 234.679 101.189 234.679C101.786 234.679 102.314 234.805 102.775 235.057C103.236 235.309 103.597 235.648 103.859 236.076C104.121 236.504 104.251 236.979 104.251 237.503C104.251 237.877 104.183 238.244 104.048 238.602C103.915 238.956 103.683 239.352 103.352 239.79C103.023 240.224 102.568 240.754 101.984 241.381L99.6974 243.827V243.906H104.43V245H98.0071ZM109.924 245.139C109.268 245.139 108.683 245.027 108.169 244.801C107.659 244.576 107.253 244.263 106.951 243.862C106.653 243.457 106.49 242.988 106.464 242.455H107.717C107.743 242.783 107.856 243.066 108.055 243.305C108.254 243.54 108.514 243.722 108.835 243.852C109.157 243.981 109.513 244.045 109.904 244.045C110.342 244.045 110.729 243.969 111.067 243.817C111.406 243.664 111.671 243.452 111.863 243.18C112.055 242.909 112.151 242.594 112.151 242.236C112.151 241.861 112.058 241.531 111.873 241.246C111.687 240.958 111.415 240.733 111.058 240.57C110.7 240.408 110.262 240.327 109.745 240.327H108.93V239.233H109.745C110.149 239.233 110.504 239.16 110.809 239.014C111.117 238.868 111.357 238.663 111.53 238.398C111.705 238.133 111.793 237.821 111.793 237.463C111.793 237.118 111.717 236.818 111.565 236.563C111.412 236.308 111.197 236.109 110.918 235.967C110.643 235.824 110.318 235.753 109.944 235.753C109.593 235.753 109.261 235.817 108.95 235.947C108.641 236.073 108.389 236.257 108.194 236.499C107.998 236.737 107.892 237.026 107.876 237.364H106.683C106.702 236.83 106.863 236.363 107.165 235.962C107.466 235.557 107.861 235.242 108.348 235.017C108.839 234.792 109.377 234.679 109.964 234.679C110.594 234.679 111.134 234.807 111.585 235.062C112.035 235.314 112.382 235.647 112.624 236.061C112.866 236.475 112.987 236.923 112.987 237.403C112.987 237.977 112.836 238.466 112.534 238.87C112.236 239.274 111.83 239.554 111.316 239.71V239.79C111.959 239.896 112.461 240.169 112.822 240.61C113.184 241.048 113.364 241.589 113.364 242.236C113.364 242.789 113.214 243.286 112.912 243.727C112.614 244.165 112.206 244.509 111.689 244.761C111.172 245.013 110.584 245.139 109.924 245.139ZM115.159 242.912V241.898L119.634 234.818H120.369V236.389H119.872L116.491 241.739V241.818H122.517V242.912H115.159ZM119.952 245V242.604V242.131V234.818H121.125V245H119.952ZM136.69 238H135.457C135.384 237.645 135.256 237.334 135.074 237.065C134.895 236.797 134.676 236.571 134.418 236.389C134.163 236.204 133.879 236.064 133.568 235.972C133.256 235.879 132.931 235.832 132.593 235.832C131.977 235.832 131.418 235.988 130.918 236.3C130.421 236.611 130.025 237.07 129.73 237.677C129.438 238.283 129.292 239.027 129.292 239.909C129.292 240.791 129.438 241.535 129.73 242.141C130.025 242.748 130.421 243.207 130.918 243.518C131.418 243.83 131.977 243.986 132.593 243.986C132.931 243.986 133.256 243.939 133.568 243.847C133.879 243.754 134.163 243.616 134.418 243.434C134.676 243.248 134.895 243.021 135.074 242.753C135.256 242.481 135.384 242.17 135.457 241.818H136.69C136.597 242.339 136.428 242.804 136.183 243.215C135.937 243.626 135.633 243.976 135.268 244.264C134.903 244.549 134.494 244.766 134.04 244.915C133.589 245.065 133.107 245.139 132.593 245.139C131.725 245.139 130.953 244.927 130.276 244.503C129.6 244.079 129.068 243.475 128.681 242.693C128.293 241.911 128.099 240.983 128.099 239.909C128.099 238.835 128.293 237.907 128.681 237.125C129.068 236.343 129.6 235.74 130.276 235.315C130.953 234.891 131.725 234.679 132.593 234.679C133.107 234.679 133.589 234.754 134.04 234.903C134.494 235.052 134.903 235.271 135.268 235.559C135.633 235.844 135.937 236.192 136.183 236.603C136.428 237.011 136.597 237.476 136.69 238ZM143.336 241.878V237.364H144.509V245H143.336V243.707H143.256C143.077 244.095 142.799 244.425 142.421 244.697C142.043 244.965 141.566 245.099 140.989 245.099C140.512 245.099 140.087 244.995 139.716 244.786C139.345 244.574 139.053 244.256 138.841 243.832C138.629 243.404 138.523 242.866 138.523 242.216V237.364H139.696V242.136C139.696 242.693 139.852 243.137 140.164 243.469C140.479 243.8 140.88 243.966 141.367 243.966C141.658 243.966 141.955 243.891 142.257 243.742C142.562 243.593 142.817 243.364 143.022 243.056C143.231 242.748 143.336 242.355 143.336 241.878ZM147.831 234.818V245H146.658V234.818H147.831ZM156.224 237.364L153.401 245H152.207L149.384 237.364H150.656L152.764 243.449H152.844L154.952 237.364H156.224ZM160.701 245.159C159.966 245.159 159.331 244.997 158.797 244.672C158.267 244.344 157.858 243.886 157.569 243.3C157.284 242.71 157.142 242.024 157.142 241.241C157.142 240.459 157.284 239.77 157.569 239.173C157.858 238.573 158.259 238.106 158.772 237.771C159.289 237.433 159.893 237.264 160.582 237.264C160.98 237.264 161.373 237.33 161.76 237.463C162.148 237.596 162.501 237.811 162.819 238.109C163.137 238.404 163.391 238.795 163.58 239.283C163.769 239.77 163.863 240.37 163.863 241.082V241.58H157.977V240.565H162.67C162.67 240.134 162.584 239.75 162.412 239.412C162.243 239.074 162.001 238.807 161.686 238.612C161.374 238.416 161.006 238.318 160.582 238.318C160.115 238.318 159.71 238.434 159.369 238.666C159.031 238.895 158.771 239.193 158.588 239.561C158.406 239.929 158.315 240.323 158.315 240.744V241.42C158.315 241.997 158.414 242.486 158.613 242.887C158.815 243.285 159.096 243.588 159.453 243.797C159.811 244.002 160.227 244.105 160.701 244.105C161.01 244.105 161.288 244.062 161.537 243.976C161.788 243.886 162.006 243.754 162.188 243.578C162.37 243.399 162.511 243.177 162.61 242.912L163.744 243.23C163.625 243.615 163.424 243.953 163.142 244.244C162.861 244.533 162.513 244.758 162.098 244.92C161.684 245.08 161.218 245.159 160.701 245.159ZM165.648 245V237.364H166.782V238.517H166.861C167 238.139 167.252 237.833 167.617 237.597C167.981 237.362 168.392 237.244 168.85 237.244C168.936 237.244 169.044 237.246 169.173 237.249C169.302 237.253 169.4 237.258 169.466 237.264V238.457C169.426 238.447 169.335 238.433 169.193 238.413C169.054 238.389 168.906 238.378 168.75 238.378C168.379 238.378 168.048 238.456 167.756 238.612C167.468 238.764 167.239 238.976 167.07 239.248C166.904 239.516 166.821 239.823 166.821 240.168V245H165.648ZM174.954 245V234.818H178.513C179.223 234.818 179.808 234.941 180.268 235.186C180.729 235.428 181.072 235.754 181.297 236.165C181.523 236.573 181.635 237.026 181.635 237.523C181.635 237.96 181.558 238.321 181.402 238.607C181.249 238.892 181.047 239.117 180.795 239.283C180.547 239.448 180.277 239.571 179.985 239.651V239.75C180.296 239.77 180.61 239.879 180.925 240.078C181.239 240.277 181.503 240.562 181.715 240.933C181.927 241.304 182.033 241.759 182.033 242.295C182.033 242.806 181.917 243.265 181.685 243.673C181.453 244.08 181.087 244.403 180.586 244.642C180.086 244.881 179.435 245 178.633 245H174.954ZM176.187 243.906H178.633C179.438 243.906 180.01 243.75 180.348 243.439C180.689 243.124 180.86 242.743 180.86 242.295C180.86 241.951 180.772 241.633 180.596 241.341C180.421 241.046 180.171 240.811 179.846 240.635C179.521 240.456 179.136 240.366 178.692 240.366H176.187V243.906ZM176.187 239.293H178.474C178.845 239.293 179.18 239.22 179.478 239.074C179.779 238.928 180.018 238.723 180.194 238.457C180.373 238.192 180.462 237.881 180.462 237.523C180.462 237.075 180.306 236.696 179.995 236.384C179.683 236.069 179.189 235.912 178.513 235.912H176.187V239.293ZM187.002 245.159C186.313 245.159 185.708 244.995 185.188 244.667C184.671 244.339 184.266 243.88 183.975 243.29C183.686 242.7 183.542 242.01 183.542 241.222C183.542 240.426 183.686 239.732 183.975 239.138C184.266 238.545 184.671 238.085 185.188 237.756C185.708 237.428 186.313 237.264 187.002 237.264C187.692 237.264 188.295 237.428 188.812 237.756C189.332 238.085 189.737 238.545 190.025 239.138C190.317 239.732 190.463 240.426 190.463 241.222C190.463 242.01 190.317 242.7 190.025 243.29C189.737 243.88 189.332 244.339 188.812 244.667C188.295 244.995 187.692 245.159 187.002 245.159ZM187.002 244.105C187.526 244.105 187.957 243.971 188.295 243.702C188.633 243.434 188.883 243.081 189.046 242.643C189.208 242.206 189.289 241.732 189.289 241.222C189.289 240.711 189.208 240.236 189.046 239.795C188.883 239.354 188.633 238.998 188.295 238.726C187.957 238.454 187.526 238.318 187.002 238.318C186.479 238.318 186.048 238.454 185.71 238.726C185.372 238.998 185.121 239.354 184.959 239.795C184.797 240.236 184.715 240.711 184.715 241.222C184.715 241.732 184.797 242.206 184.959 242.643C185.121 243.081 185.372 243.434 185.71 243.702C186.048 243.971 186.479 244.105 187.002 244.105ZM197.066 241.878V237.364H198.239V245H197.066V243.707H196.987C196.808 244.095 196.529 244.425 196.151 244.697C195.773 244.965 195.296 245.099 194.719 245.099C194.242 245.099 193.818 244.995 193.447 244.786C193.076 244.574 192.784 244.256 192.572 243.832C192.36 243.404 192.254 242.866 192.254 242.216V237.364H193.427V242.136C193.427 242.693 193.583 243.137 193.894 243.469C194.209 243.8 194.61 243.966 195.097 243.966C195.389 243.966 195.686 243.891 195.987 243.742C196.292 243.593 196.547 243.364 196.753 243.056C196.962 242.748 197.066 242.355 197.066 241.878ZM201.562 234.818V245H200.388V234.818H201.562ZM206.912 245.159C206.176 245.159 205.542 244.997 205.008 244.672C204.478 244.344 204.069 243.886 203.78 243.3C203.495 242.71 203.353 242.024 203.353 241.241C203.353 240.459 203.495 239.77 203.78 239.173C204.069 238.573 204.47 238.106 204.983 237.771C205.5 237.433 206.104 237.264 206.793 237.264C207.191 237.264 207.583 237.33 207.971 237.463C208.359 237.596 208.712 237.811 209.03 238.109C209.348 238.404 209.602 238.795 209.791 239.283C209.98 239.77 210.074 240.37 210.074 241.082V241.58H204.188V240.565H208.881C208.881 240.134 208.795 239.75 208.623 239.412C208.453 239.074 208.212 238.807 207.897 238.612C207.585 238.416 207.217 238.318 206.793 238.318C206.326 238.318 205.921 238.434 205.58 238.666C205.242 238.895 204.982 239.193 204.799 239.561C204.617 239.929 204.526 240.323 204.526 240.744V241.42C204.526 241.997 204.625 242.486 204.824 242.887C205.026 243.285 205.306 243.588 205.664 243.797C206.022 244.002 206.438 244.105 206.912 244.105C207.221 244.105 207.499 244.062 207.748 243.976C207.999 243.886 208.217 243.754 208.399 243.578C208.581 243.399 208.722 243.177 208.821 242.912L209.955 243.23C209.836 243.615 209.635 243.953 209.353 244.244C209.072 244.533 208.724 244.758 208.309 244.92C207.895 245.08 207.429 245.159 206.912 245.159ZM217.871 237.364L215.047 245H213.854L211.03 237.364H212.303L214.411 243.449H214.49L216.598 237.364H217.871ZM221.434 245.179C220.95 245.179 220.511 245.088 220.117 244.906C219.722 244.72 219.409 244.453 219.177 244.105C218.945 243.754 218.829 243.33 218.829 242.832C218.829 242.395 218.915 242.04 219.088 241.768C219.26 241.493 219.49 241.278 219.779 241.122C220.067 240.966 220.385 240.85 220.733 240.774C221.085 240.695 221.438 240.632 221.792 240.585C222.256 240.526 222.632 240.481 222.921 240.451C223.212 240.418 223.425 240.363 223.557 240.287C223.693 240.211 223.761 240.078 223.761 239.889V239.849C223.761 239.359 223.627 238.978 223.358 238.706C223.093 238.434 222.69 238.298 222.15 238.298C221.59 238.298 221.151 238.421 220.833 238.666C220.515 238.911 220.291 239.173 220.162 239.452L219.048 239.054C219.247 238.59 219.512 238.229 219.843 237.97C220.178 237.708 220.543 237.526 220.937 237.423C221.335 237.317 221.726 237.264 222.11 237.264C222.356 237.264 222.637 237.294 222.956 237.354C223.277 237.41 223.587 237.528 223.885 237.707C224.187 237.886 224.437 238.156 224.636 238.517C224.835 238.878 224.934 239.362 224.934 239.969V245H223.761V243.966H223.701C223.622 244.132 223.489 244.309 223.304 244.498C223.118 244.687 222.871 244.848 222.563 244.98C222.255 245.113 221.878 245.179 221.434 245.179ZM221.613 244.125C222.077 244.125 222.468 244.034 222.787 243.852C223.108 243.669 223.35 243.434 223.512 243.146C223.678 242.857 223.761 242.554 223.761 242.236V241.162C223.711 241.222 223.602 241.276 223.433 241.326C223.267 241.372 223.075 241.414 222.856 241.45C222.641 241.483 222.43 241.513 222.225 241.54C222.023 241.563 221.859 241.583 221.733 241.599C221.428 241.639 221.143 241.704 220.877 241.793C220.616 241.879 220.404 242.01 220.241 242.186C220.082 242.358 220.002 242.594 220.002 242.892C220.002 243.3 220.153 243.608 220.455 243.817C220.76 244.022 221.146 244.125 221.613 244.125ZM227.076 245V237.364H228.209V238.517H228.289C228.428 238.139 228.68 237.833 229.045 237.597C229.409 237.362 229.82 237.244 230.278 237.244C230.364 237.244 230.471 237.246 230.601 237.249C230.73 237.253 230.828 237.258 230.894 237.264V238.457C230.854 238.447 230.763 238.433 230.621 238.413C230.481 238.389 230.334 238.378 230.178 238.378C229.807 238.378 229.475 238.456 229.184 238.612C228.895 238.764 228.667 238.976 228.498 239.248C228.332 239.516 228.249 239.823 228.249 240.168V245H227.076ZM234.936 245.159C234.3 245.159 233.738 244.998 233.251 244.677C232.763 244.352 232.382 243.895 232.107 243.305C231.832 242.711 231.694 242.01 231.694 241.202C231.694 240.4 231.832 239.704 232.107 239.114C232.382 238.524 232.765 238.068 233.256 237.746C233.746 237.425 234.313 237.264 234.956 237.264C235.453 237.264 235.846 237.347 236.134 237.513C236.426 237.675 236.648 237.861 236.8 238.07C236.956 238.275 237.077 238.444 237.163 238.577H237.263V234.818H238.436V245H237.302V243.827H237.163C237.077 243.966 236.954 244.142 236.795 244.354C236.636 244.562 236.409 244.75 236.114 244.915C235.819 245.078 235.426 245.159 234.936 245.159ZM235.095 244.105C235.566 244.105 235.963 243.982 236.288 243.737C236.613 243.489 236.86 243.146 237.029 242.708C237.198 242.267 237.282 241.759 237.282 241.182C237.282 240.612 237.2 240.113 237.034 239.685C236.868 239.254 236.623 238.92 236.298 238.681C235.973 238.439 235.572 238.318 235.095 238.318C234.598 238.318 234.184 238.446 233.852 238.701C233.524 238.953 233.277 239.296 233.111 239.73C232.949 240.161 232.868 240.645 232.868 241.182C232.868 241.725 232.951 242.219 233.116 242.663C233.285 243.104 233.534 243.455 233.862 243.717C234.193 243.976 234.604 244.105 235.095 244.105ZM242.498 243.608L242.418 244.145C242.362 244.523 242.276 244.927 242.16 245.358C242.047 245.789 241.929 246.195 241.807 246.576C241.684 246.957 241.583 247.26 241.503 247.486H240.608C240.652 247.274 240.708 246.994 240.778 246.646C240.847 246.298 240.917 245.908 240.986 245.477C241.059 245.05 241.119 244.612 241.165 244.165L241.225 243.608H242.498ZM248.768 245V234.818H250.001V243.906H254.734V245H248.768ZM259.586 245.159C258.897 245.159 258.292 244.995 257.772 244.667C257.255 244.339 256.85 243.88 256.559 243.29C256.27 242.7 256.126 242.01 256.126 241.222C256.126 240.426 256.27 239.732 256.559 239.138C256.85 238.545 257.255 238.085 257.772 237.756C258.292 237.428 258.897 237.264 259.586 237.264C260.276 237.264 260.879 237.428 261.396 237.756C261.916 238.085 262.321 238.545 262.609 239.138C262.901 239.732 263.047 240.426 263.047 241.222C263.047 242.01 262.901 242.7 262.609 243.29C262.321 243.88 261.916 244.339 261.396 244.667C260.879 244.995 260.276 245.159 259.586 245.159ZM259.586 244.105C260.11 244.105 260.541 243.971 260.879 243.702C261.217 243.434 261.467 243.081 261.63 242.643C261.792 242.206 261.873 241.732 261.873 241.222C261.873 240.711 261.792 240.236 261.63 239.795C261.467 239.354 261.217 238.998 260.879 238.726C260.541 238.454 260.11 238.318 259.586 238.318C259.063 238.318 258.632 238.454 258.294 238.726C257.956 238.998 257.705 239.354 257.543 239.795C257.381 240.236 257.299 240.711 257.299 241.222C257.299 241.732 257.381 242.206 257.543 242.643C257.705 243.081 257.956 243.434 258.294 243.702C258.632 243.971 259.063 244.105 259.586 244.105ZM270.247 239.074L269.193 239.372C269.126 239.196 269.029 239.026 268.899 238.86C268.773 238.691 268.601 238.552 268.382 238.442C268.164 238.333 267.883 238.278 267.542 238.278C267.075 238.278 266.685 238.386 266.374 238.602C266.066 238.814 265.911 239.084 265.911 239.412C265.911 239.704 266.017 239.934 266.23 240.103C266.442 240.272 266.773 240.413 267.224 240.526L268.357 240.804C269.04 240.97 269.549 241.223 269.884 241.565C270.218 241.903 270.386 242.339 270.386 242.872C270.386 243.31 270.26 243.701 270.008 244.045C269.759 244.39 269.411 244.662 268.964 244.861C268.517 245.06 267.996 245.159 267.403 245.159C266.624 245.159 265.979 244.99 265.469 244.652C264.959 244.314 264.635 243.82 264.499 243.17L265.613 242.892C265.719 243.303 265.92 243.611 266.215 243.817C266.513 244.022 266.902 244.125 267.383 244.125C267.93 244.125 268.364 244.009 268.686 243.777C269.01 243.542 269.173 243.26 269.173 242.932C269.173 242.667 269.08 242.445 268.894 242.266C268.709 242.083 268.424 241.947 268.039 241.858L266.767 241.56C266.067 241.394 265.553 241.137 265.225 240.789C264.901 240.438 264.738 239.999 264.738 239.472C264.738 239.041 264.859 238.66 265.101 238.328C265.346 237.997 265.679 237.737 266.1 237.548C266.525 237.359 267.005 237.264 267.542 237.264C268.298 237.264 268.891 237.43 269.322 237.761C269.756 238.093 270.064 238.53 270.247 239.074ZM276.666 245H275.374L279.112 234.818H280.385L284.124 245H282.831L279.788 236.429H279.709L276.666 245ZM277.143 241.023H282.354V242.116H277.143V241.023ZM286.724 240.406V245H285.55V237.364H286.684V238.557H286.783C286.962 238.169 287.234 237.857 287.599 237.622C287.963 237.384 288.434 237.264 289.011 237.264C289.528 237.264 289.98 237.37 290.368 237.582C290.756 237.791 291.057 238.109 291.273 238.537C291.488 238.961 291.596 239.498 291.596 240.148V245H290.423V240.227C290.423 239.627 290.267 239.16 289.955 238.825C289.644 238.487 289.216 238.318 288.673 238.318C288.298 238.318 287.963 238.399 287.668 238.562C287.377 238.724 287.146 238.961 286.977 239.273C286.808 239.584 286.724 239.962 286.724 240.406ZM296.822 248.023C296.256 248.023 295.768 247.95 295.361 247.804C294.953 247.661 294.613 247.473 294.341 247.237C294.073 247.005 293.859 246.757 293.7 246.491L294.635 245.835C294.741 245.974 294.875 246.134 295.037 246.312C295.2 246.495 295.422 246.652 295.704 246.785C295.989 246.921 296.362 246.989 296.822 246.989C297.439 246.989 297.948 246.839 298.349 246.541C298.75 246.243 298.95 245.776 298.95 245.139V243.588H298.851C298.765 243.727 298.642 243.9 298.483 244.105C298.327 244.307 298.102 244.488 297.807 244.647C297.515 244.803 297.121 244.881 296.623 244.881C296.007 244.881 295.453 244.735 294.963 244.443C294.476 244.152 294.09 243.727 293.805 243.17C293.523 242.614 293.382 241.937 293.382 241.142C293.382 240.36 293.519 239.679 293.795 239.099C294.07 238.515 294.452 238.065 294.943 237.746C295.434 237.425 296 237.264 296.643 237.264C297.14 237.264 297.535 237.347 297.827 237.513C298.122 237.675 298.347 237.861 298.503 238.07C298.662 238.275 298.784 238.444 298.871 238.577H298.99V237.364H300.123V245.219C300.123 245.875 299.974 246.409 299.676 246.82C299.381 247.234 298.983 247.537 298.483 247.729C297.986 247.925 297.432 248.023 296.822 248.023ZM296.782 243.827C297.253 243.827 297.651 243.719 297.976 243.504C298.3 243.288 298.547 242.978 298.716 242.574C298.885 242.17 298.97 241.686 298.97 241.122C298.97 240.572 298.887 240.086 298.721 239.665C298.556 239.245 298.31 238.915 297.986 238.676C297.661 238.437 297.26 238.318 296.782 238.318C296.285 238.318 295.871 238.444 295.54 238.696C295.211 238.948 294.965 239.286 294.799 239.71C294.636 240.134 294.555 240.605 294.555 241.122C294.555 241.652 294.638 242.121 294.804 242.529C294.973 242.933 295.221 243.252 295.55 243.484C295.881 243.712 296.292 243.827 296.782 243.827ZM305.473 245.159C304.737 245.159 304.102 244.997 303.569 244.672C303.038 244.344 302.629 243.886 302.341 243.3C302.056 242.71 301.913 242.024 301.913 241.241C301.913 240.459 302.056 239.77 302.341 239.173C302.629 238.573 303.03 238.106 303.544 237.771C304.061 237.433 304.664 237.264 305.354 237.264C305.751 237.264 306.144 237.33 306.532 237.463C306.92 237.596 307.273 237.811 307.591 238.109C307.909 238.404 308.162 238.795 308.351 239.283C308.54 239.77 308.635 240.37 308.635 241.082V241.58H302.748V240.565H307.442C307.442 240.134 307.355 239.75 307.183 239.412C307.014 239.074 306.772 238.807 306.457 238.612C306.146 238.416 305.778 238.318 305.354 238.318C304.886 238.318 304.482 238.434 304.14 238.666C303.802 238.895 303.542 239.193 303.36 239.561C303.178 239.929 303.086 240.323 303.086 240.744V241.42C303.086 241.997 303.186 242.486 303.385 242.887C303.587 243.285 303.867 243.588 304.225 243.797C304.583 244.002 304.999 244.105 305.473 244.105C305.781 244.105 306.059 244.062 306.308 243.976C306.56 243.886 306.777 243.754 306.959 243.578C307.142 243.399 307.282 243.177 307.382 242.912L308.515 243.23C308.396 243.615 308.196 243.953 307.914 244.244C307.632 244.533 307.284 244.758 306.87 244.92C306.456 245.08 305.99 245.159 305.473 245.159ZM311.593 234.818V245H310.42V234.818H311.593ZM316.944 245.159C316.208 245.159 315.573 244.997 315.039 244.672C314.509 244.344 314.1 243.886 313.811 243.3C313.526 242.71 313.384 242.024 313.384 241.241C313.384 240.459 313.526 239.77 313.811 239.173C314.1 238.573 314.501 238.106 315.015 237.771C315.532 237.433 316.135 237.264 316.824 237.264C317.222 237.264 317.615 237.33 318.002 237.463C318.39 237.596 318.743 237.811 319.061 238.109C319.38 238.404 319.633 238.795 319.822 239.283C320.011 239.77 320.105 240.37 320.105 241.082V241.58H314.219V240.565H318.912C318.912 240.134 318.826 239.75 318.654 239.412C318.485 239.074 318.243 238.807 317.928 238.612C317.616 238.416 317.248 238.318 316.824 238.318C316.357 238.318 315.953 238.434 315.611 238.666C315.273 238.895 315.013 239.193 314.831 239.561C314.648 239.929 314.557 240.323 314.557 240.744V241.42C314.557 241.997 314.657 242.486 314.855 242.887C315.058 243.285 315.338 243.588 315.696 243.797C316.054 244.002 316.47 244.105 316.944 244.105C317.252 244.105 317.53 244.062 317.779 243.976C318.031 243.886 318.248 243.754 318.43 243.578C318.612 243.399 318.753 243.177 318.853 242.912L319.986 243.23C319.867 243.615 319.666 243.953 319.385 244.244C319.103 244.533 318.755 244.758 318.341 244.92C317.926 245.08 317.461 245.159 316.944 245.159ZM327.299 239.074L326.245 239.372C326.179 239.196 326.081 239.026 325.952 238.86C325.826 238.691 325.654 238.552 325.435 238.442C325.216 238.333 324.936 238.278 324.595 238.278C324.127 238.278 323.738 238.386 323.426 238.602C323.118 238.814 322.964 239.084 322.964 239.412C322.964 239.704 323.07 239.934 323.282 240.103C323.494 240.272 323.826 240.413 324.277 240.526L325.41 240.804C326.093 240.97 326.602 241.223 326.936 241.565C327.271 241.903 327.439 242.339 327.439 242.872C327.439 243.31 327.313 243.701 327.061 244.045C326.812 244.39 326.464 244.662 326.017 244.861C325.569 245.06 325.049 245.159 324.456 245.159C323.677 245.159 323.032 244.99 322.522 244.652C322.011 244.314 321.688 243.82 321.552 243.17L322.666 242.892C322.772 243.303 322.972 243.611 323.267 243.817C323.566 244.022 323.955 244.125 324.436 244.125C324.983 244.125 325.417 244.009 325.738 243.777C326.063 243.542 326.225 243.26 326.225 242.932C326.225 242.667 326.133 242.445 325.947 242.266C325.761 242.083 325.476 241.947 325.092 241.858L323.819 241.56C323.12 241.394 322.606 241.137 322.278 240.789C321.953 240.438 321.791 239.999 321.791 239.472C321.791 239.041 321.912 238.66 322.154 238.328C322.399 237.997 322.732 237.737 323.153 237.548C323.577 237.359 324.058 237.264 324.595 237.264C325.35 237.264 325.944 237.43 326.375 237.761C326.809 238.093 327.117 238.53 327.299 239.074ZM330.06 245.08C329.815 245.08 329.604 244.992 329.428 244.816C329.253 244.64 329.165 244.43 329.165 244.185C329.165 243.939 329.253 243.729 329.428 243.553C329.604 243.378 329.815 243.29 330.06 243.29C330.305 243.29 330.516 243.378 330.691 243.553C330.867 243.729 330.955 243.939 330.955 244.185C330.955 244.347 330.913 244.496 330.83 244.632C330.751 244.768 330.643 244.877 330.507 244.96C330.375 245.04 330.226 245.08 330.06 245.08ZM333.915 245.08C333.67 245.08 333.46 244.992 333.284 244.816C333.108 244.64 333.02 244.43 333.02 244.185C333.02 243.939 333.108 243.729 333.284 243.553C333.46 243.378 333.67 243.29 333.915 243.29C334.161 243.29 334.371 243.378 334.547 243.553C334.722 243.729 334.81 243.939 334.81 244.185C334.81 244.347 334.769 244.496 334.686 244.632C334.606 244.768 334.499 244.877 334.363 244.96C334.23 245.04 334.081 245.08 333.915 245.08ZM337.771 245.08C337.526 245.08 337.315 244.992 337.139 244.816C336.964 244.64 336.876 244.43 336.876 244.185C336.876 243.939 336.964 243.729 337.139 243.553C337.315 243.378 337.526 243.29 337.771 243.29C338.016 243.29 338.227 243.378 338.402 243.553C338.578 243.729 338.666 243.939 338.666 244.185C338.666 244.347 338.624 244.496 338.541 244.632C338.462 244.768 338.354 244.877 338.218 244.96C338.086 245.04 337.936 245.08 337.771 245.08Z" fill="#4F4F4F"/>
</svg>
