<svg width="84" height="74" viewBox="0 0 84 74" fill="none" xmlns="http://www.w3.org/2000/svg">
<path d="M42.4896 33.19V73.06L83.1296 73.03L42.4896 33.19ZM74.5696 69.07C74.2896 69.07 74.0696 69.29 74.0696 69.57V71.97C74.0696 71.99 74.0796 72 74.0796 72.02H72.0796C72.0796 72 72.0896 71.99 72.0896 71.97V68.82C72.0896 68.54 71.8696 68.32 71.5896 68.32C71.3096 68.32 71.0896 68.54 71.0896 68.82V71.97C71.0896 71.99 71.0996 72.01 71.0996 72.02H69.0996C69.0996 72 69.1096 71.98 69.1096 71.96V70.07C69.1096 69.79 68.8896 69.57 68.6096 69.57C68.3296 69.57 68.1096 69.79 68.1096 70.07V71.96C68.1096 71.98 68.1196 72 68.1196 72.02H66.1196C66.1196 72 66.1296 71.98 66.1296 71.96V68.81C66.1296 68.53 65.9096 68.31 65.6296 68.31C65.3496 68.31 65.1296 68.53 65.1296 68.81V71.96C65.1296 71.98 65.1396 72 65.1396 72.02H63.1396C63.1396 72 63.1496 71.98 63.1496 71.96V70.07C63.1496 69.79 62.9296 69.57 62.6496 69.57C62.3696 69.57 62.1496 69.79 62.1496 70.07V71.96C62.1496 71.98 62.1596 72 62.1596 72.02H60.1596C60.1596 72 60.1696 71.98 60.1696 71.96V68.81C60.1696 68.53 59.9496 68.31 59.6696 68.31C59.3896 68.31 59.1696 68.53 59.1696 68.81V71.96C59.1696 71.98 59.1796 72 59.1796 72.02H57.1696C57.1696 72 57.1796 71.98 57.1796 71.95V69.7C57.1796 69.42 56.9596 69.2 56.6796 69.2C56.3996 69.2 56.1796 69.42 56.1796 69.7V71.98C56.1796 72 56.1896 72.02 56.1896 72.05H54.1796C54.1796 72.03 54.1896 72.01 54.1896 71.98V68.83C54.1896 68.55 53.9696 68.33 53.6896 68.33C53.4096 68.33 53.1896 68.55 53.1896 68.83V71.98C53.1896 72 53.1996 72.03 53.1996 72.05H51.1896C51.1896 72.03 51.1996 72 51.1996 71.98V70.09C51.1996 69.81 50.9796 69.59 50.6996 69.59C50.4196 69.59 50.1996 69.81 50.1996 70.09V71.98C50.1996 72.01 50.2096 72.03 50.2096 72.05H48.1996C48.1996 72.02 48.2196 72 48.2196 71.98V68.83C48.2196 68.55 47.9996 68.33 47.7196 68.33C47.4396 68.33 47.2196 68.55 47.2196 68.83V71.98C47.2196 72.01 47.2296 72.03 47.2396 72.06H43.5196V66.17H46.7496C47.0296 66.17 47.2496 65.95 47.2496 65.67C47.2496 65.39 47.0296 65.17 46.7496 65.17H43.5196V63.19H45.4196C45.6996 63.19 45.9196 62.97 45.9196 62.69C45.9196 62.41 45.6996 62.19 45.4196 62.19H43.5196V60.21H46.7496C47.0296 60.21 47.2496 59.99 47.2496 59.71C47.2496 59.43 47.0296 59.21 46.7496 59.21H43.5196V57.2H45.4196C45.6996 57.2 45.9196 56.98 45.9196 56.7C45.9196 56.42 45.6996 56.2 45.4196 56.2H43.5196V54.22H46.7496C47.0296 54.22 47.2496 54 47.2496 53.72C47.2496 53.44 47.0296 53.22 46.7496 53.22H43.5196V51.24H45.8196C46.0996 51.24 46.3196 51.02 46.3196 50.74C46.3196 50.46 46.0996 50.24 45.8196 50.24H43.5196V48.26H46.7496C47.0296 48.26 47.2496 48.04 47.2496 47.76C47.2496 47.48 47.0296 47.26 46.7496 47.26H43.5196V45.28H45.4196C45.6996 45.28 45.9196 45.06 45.9196 44.78C45.9196 44.5 45.6996 44.28 45.4196 44.28H43.5196V42.3H46.7496C47.0296 42.3 47.2496 42.08 47.2496 41.8C47.2496 41.52 47.0296 41.3 46.7496 41.3H43.5196V35.62L80.6896 72.05H75.0896C75.0896 72.03 75.0996 72.02 75.0996 72V69.6C75.0696 69.3 74.8496 69.07 74.5696 69.07ZM37.3696 2.94999H25.8696C25.1796 2.94999 24.6296 3.50999 24.6296 4.18999V71.81C24.6296 72.5 25.1896 73.05 25.8696 73.05H37.3696C38.0596 73.05 38.6096 72.49 38.6096 71.81V4.19999C38.6196 3.50999 38.0596 2.94999 37.3696 2.94999ZM37.6096 7.15999H35.0496C34.7696 7.15999 34.5496 7.37999 34.5496 7.65999C34.5496 7.93999 34.7696 8.15999 35.0496 8.15999H37.6096V10.19H36.1896C35.9096 10.19 35.6896 10.41 35.6896 10.69C35.6896 10.97 35.9096 11.19 36.1896 11.19H37.6096V13.22H35.0496C34.7696 13.22 34.5496 13.44 34.5496 13.72C34.5496 14 34.7696 14.22 35.0496 14.22H37.6096V16.25H36.1896C35.9096 16.25 35.6896 16.47 35.6896 16.75C35.6896 17.03 35.9096 17.25 36.1896 17.25H37.6096V19.28H35.0496C34.7696 19.28 34.5496 19.5 34.5496 19.78C34.5496 20.06 34.7696 20.28 35.0496 20.28H37.6096V22.31H36.1896C35.9096 22.31 35.6896 22.53 35.6896 22.81C35.6896 23.09 35.9096 23.31 36.1896 23.31H37.6096V25.34H35.0496C34.7696 25.34 34.5496 25.56 34.5496 25.84C34.5496 26.12 34.7696 26.34 35.0496 26.34H37.6096V28.37H36.1896C35.9096 28.37 35.6896 28.59 35.6896 28.87C35.6896 29.15 35.9096 29.37 36.1896 29.37H37.6096V31.4H35.0496C34.7696 31.4 34.5496 31.62 34.5496 31.9C34.5496 32.18 34.7696 32.4 35.0496 32.4H37.6096V34.43H36.1896C35.9096 34.43 35.6896 34.65 35.6896 34.93C35.6896 35.21 35.9096 35.43 36.1896 35.43H37.6096V37.46H35.0496C34.7696 37.46 34.5496 37.68 34.5496 37.96C34.5496 38.24 34.7696 38.46 35.0496 38.46H37.6096V40.49H36.1896C35.9096 40.49 35.6896 40.71 35.6896 40.99C35.6896 41.27 35.9096 41.49 36.1896 41.49H37.6096V43.52H35.0496C34.7696 43.52 34.5496 43.74 34.5496 44.02C34.5496 44.3 34.7696 44.52 35.0496 44.52H37.6096V46.55H36.1896C35.9096 46.55 35.6896 46.77 35.6896 47.05C35.6896 47.33 35.9096 47.55 36.1896 47.55H37.6096V49.58H35.0496C34.7696 49.58 34.5496 49.8 34.5496 50.08C34.5496 50.36 34.7696 50.58 35.0496 50.58H37.6096V52.61H36.1896C35.9096 52.61 35.6896 52.83 35.6896 53.11C35.6896 53.39 35.9096 53.61 36.1896 53.61H37.6096V55.64H35.0496C34.7696 55.64 34.5496 55.86 34.5496 56.14C34.5496 56.42 34.7696 56.64 35.0496 56.64H37.6096V58.67H36.1896C35.9096 58.67 35.6896 58.89 35.6896 59.17C35.6896 59.45 35.9096 59.67 36.1896 59.67H37.6096V61.7H35.0496C34.7696 61.7 34.5496 61.92 34.5496 62.2C34.5496 62.48 34.7696 62.7 35.0496 62.7H37.6096V64.73H36.1896C35.9096 64.73 35.6896 64.95 35.6896 65.23C35.6896 65.51 35.9096 65.73 36.1896 65.73H37.6096V67.76H35.0496C34.7696 67.76 34.5496 67.98 34.5496 68.26C34.5496 68.54 34.7696 68.76 35.0496 68.76H37.6096V71.72C37.6096 71.85 37.4996 71.96 37.3696 71.96H25.8696C25.7396 71.96 25.6296 71.85 25.6296 71.72V68.76H28.5396C28.8196 68.76 29.0396 68.54 29.0396 68.26C29.0396 67.98 28.8196 67.76 28.5396 67.76H25.6296V65.73H27.2196C27.4996 65.73 27.7196 65.51 27.7196 65.23C27.7196 64.95 27.4996 64.73 27.2196 64.73H25.6296V62.7H28.5396C28.8196 62.7 29.0396 62.48 29.0396 62.2C29.0396 61.92 28.8196 61.7 28.5396 61.7H25.6296V59.67H27.2196C27.4996 59.67 27.7196 59.45 27.7196 59.17C27.7196 58.89 27.4996 58.67 27.2196 58.67H25.6296V56.64H28.5396C28.8196 56.64 29.0396 56.42 29.0396 56.14C29.0396 55.86 28.8196 55.64 28.5396 55.64H25.6296V53.61H27.2196C27.4996 53.61 27.7196 53.39 27.7196 53.11C27.7196 52.83 27.4996 52.61 27.2196 52.61H25.6296V50.58H28.5396C28.8196 50.58 29.0396 50.36 29.0396 50.08C29.0396 49.8 28.8196 49.58 28.5396 49.58H25.6296V47.55H27.2196C27.4996 47.55 27.7196 47.33 27.7196 47.05C27.7196 46.77 27.4996 46.55 27.2196 46.55H25.6296V44.52H28.5396C28.8196 44.52 29.0396 44.3 29.0396 44.02C29.0396 43.74 28.8196 43.52 28.5396 43.52H25.6296V41.49H27.2196C27.4996 41.49 27.7196 41.27 27.7196 40.99C27.7196 40.71 27.4996 40.49 27.2196 40.49H25.6296V38.46H28.5396C28.8196 38.46 29.0396 38.24 29.0396 37.96C29.0396 37.68 28.8196 37.46 28.5396 37.46H25.6296V35.43H27.2196C27.4996 35.43 27.7196 35.21 27.7196 34.93C27.7196 34.65 27.4996 34.43 27.2196 34.43H25.6296V32.4H28.5396C28.8196 32.4 29.0396 32.18 29.0396 31.9C29.0396 31.62 28.8196 31.4 28.5396 31.4H25.6296V29.37H27.2196C27.4996 29.37 27.7196 29.15 27.7196 28.87C27.7196 28.59 27.4996 28.37 27.2196 28.37H25.6296V26.34H28.5396C28.8196 26.34 29.0396 26.12 29.0396 25.84C29.0396 25.56 28.8196 25.34 28.5396 25.34H25.6296V23.31H27.2196C27.4996 23.31 27.7196 23.09 27.7196 22.81C27.7196 22.53 27.4996 22.31 27.2196 22.31H25.6296V20.28H28.5396C28.8196 20.28 29.0396 20.06 29.0396 19.78C29.0396 19.5 28.8196 19.28 28.5396 19.28H25.6296V17.25H27.2196C27.4996 17.25 27.7196 17.03 27.7196 16.75C27.7196 16.47 27.4996 16.25 27.2196 16.25H25.6296V14.22H28.5396C28.8196 14.22 29.0396 14 29.0396 13.72C29.0396 13.44 28.8196 13.22 28.5396 13.22H25.6296V11.2H27.2196C27.4996 11.2 27.7196 10.98 27.7196 10.7C27.7196 10.42 27.4996 10.2 27.2196 10.2H25.6296V8.16999H28.5396C28.8196 8.16999 29.0396 7.94999 29.0396 7.66999C29.0396 7.38999 28.8196 7.16999 28.5396 7.16999H25.6296V4.19999C25.6296 4.06999 25.7396 3.95999 25.8696 3.95999H37.3696C37.4996 3.95999 37.6096 4.06999 37.6096 4.19999V7.15999ZM51.6396 53.4C51.4696 53.23 51.2096 53.18 50.9796 53.28C50.7596 53.37 50.6096 53.59 50.6096 53.84V64.24C50.6096 64.4 50.6696 64.56 50.7896 64.67L51.0096 64.84L61.8196 64.72C62.0696 64.72 62.2796 64.57 62.3696 64.34C62.4596 64.11 62.4096 63.85 62.2296 63.68L51.6396 53.4ZM51.6196 63.83V54.79L60.8396 63.73L51.6196 63.83ZM31.6196 5.64999C31.3396 5.64999 31.1196 5.86999 31.1196 6.14999V70.12C31.1196 70.4 31.3396 70.62 31.6196 70.62C31.8996 70.62 32.1196 70.4 32.1196 70.12V6.14999C32.1196 5.86999 31.8996 5.64999 31.6196 5.64999ZM23.1196 2.10999L19.1196 0.989993C18.7096 0.879993 18.2896 0.929993 17.9196 1.12999C17.5496 1.33999 17.2896 1.66999 17.1696 2.07999L16.3496 4.99999L15.4996 8.01999L1.15956 59.29L1.18956 59.3C1.15956 59.38 1.12956 59.46 1.12956 59.54L0.929561 68.12V68.18L0.919561 68.64L0.86956 71.87C0.85956 72.23 1.02956 72.48 1.23956 72.54C1.44956 72.6 1.71956 72.46 1.90956 72.16L3.54956 69.37L3.76956 69L3.80956 68.93L8.08956 61.49C8.12956 61.42 8.14956 61.33 8.15956 61.25L8.18956 61.26L22.2696 10.97L22.3796 10.58L22.5496 9.99999L23.2396 7.51999L24.2096 4.04999C24.4496 3.21999 23.9596 2.34999 23.1196 2.10999ZM3.06956 68.2L1.93956 67.88L2.12956 59.84L7.07956 61.23L3.06956 68.2ZM7.42956 60.28L2.32956 58.85L16.2096 9.25999L18.7596 9.96999L21.3096 10.68L7.42956 60.28ZM21.5796 9.72999L19.0296 9.01999L16.4796 8.30999L17.1096 6.06999L22.2096 7.49999L21.5796 9.72999ZM23.2396 3.78999L22.4696 6.51999L17.3696 5.08999L18.1296 2.35999C18.1696 2.20999 18.2696 2.08999 18.3996 2.01999C18.5296 1.94999 18.6896 1.92999 18.8296 1.96999L22.8296 3.08999C23.1496 3.16999 23.3296 3.47999 23.2396 3.78999Z" fill="black"/>
</svg>
