<svg width="90" height="78" viewBox="0 0 90 78" fill="none" xmlns="http://www.w3.org/2000/svg">
<path d="M43.32 31.4499H48.77C48.97 31.4499 49.14 31.6099 49.14 31.8199V37.2699C49.14 37.4699 48.98 37.6399 48.77 37.6399H43.32C43.12 37.6399 42.95 37.4799 42.95 37.2699V31.8199C42.95 31.6199 43.11 31.4499 43.32 31.4499ZM42.95 21.1799V26.6299C42.95 26.8299 43.11 26.9999 43.32 26.9999H48.77C48.97 26.9999 49.14 26.8399 49.14 26.6299V21.1799C49.14 20.9799 48.98 20.8099 48.77 20.8099H43.32C43.12 20.8099 42.95 20.9699 42.95 21.1799ZM43.32 42.0799C43.12 42.0799 42.95 42.2399 42.95 42.4499V47.8999C42.95 48.0999 43.11 48.2699 43.32 48.2699H48.77C48.97 48.2699 49.14 48.1099 49.14 47.8999V42.4499C49.14 42.2499 48.98 42.0799 48.77 42.0799H43.32ZM80.96 32.5899C81.13 32.5899 81.28 32.4499 81.28 32.2699V27.2099C81.28 27.0399 81.14 26.8899 80.96 26.8899H75.9C75.73 26.8899 75.58 27.0299 75.58 27.2099V32.2699C75.58 32.4399 75.72 32.5899 75.9 32.5899H80.96ZM36.91 10.1899H31.46C31.26 10.1899 31.09 10.3499 31.09 10.5599V16.0099C31.09 16.2099 31.25 16.3799 31.46 16.3799H36.91C37.11 16.3799 37.28 16.2199 37.28 16.0099V10.5599C37.28 10.3599 37.12 10.1899 36.91 10.1899ZM36.91 48.2699C37.11 48.2699 37.28 48.1099 37.28 47.8999V42.4499C37.28 42.2499 37.12 42.0799 36.91 42.0799H36.13C36.3 43.1699 36.39 44.1899 36.39 45.1799C36.39 46.0699 36.3 47.0599 36.09 48.2699H36.92H36.91ZM37.28 21.1899C37.28 20.9899 37.12 20.8199 36.91 20.8199H31.46C31.26 20.8199 31.09 20.9799 31.09 21.1899V26.6399C31.09 26.8399 31.25 27.0099 31.46 27.0099H36.91C37.11 27.0099 37.28 26.8499 37.28 26.6399V21.1899ZM36.91 37.6399C37.11 37.6399 37.28 37.4799 37.28 37.2699V31.8199C37.28 31.6199 37.12 31.4499 36.91 31.4499H31.46C31.32 31.4499 31.23 31.5299 31.17 31.6399C32.77 33.4199 34.02 35.4399 34.91 37.6399H36.91ZM48.77 10.1899H43.32C43.12 10.1899 42.95 10.3499 42.95 10.5599V16.0099C42.95 16.2099 43.11 16.3799 43.32 16.3799H48.77C48.97 16.3799 49.14 16.2199 49.14 16.0099V10.5599C49.14 10.3599 48.98 10.1899 48.77 10.1899ZM75.59 46.9399V51.9999C75.59 52.1699 75.73 52.3199 75.91 52.3199H80.97C81.14 52.3199 81.29 52.1799 81.29 51.9999V46.9399C81.29 46.7699 81.15 46.6199 80.97 46.6199H75.91C75.74 46.6199 75.59 46.7599 75.59 46.9399ZM75.59 37.0799V42.1399C75.59 42.3199 75.73 42.4599 75.91 42.4599H80.97C81.14 42.4599 81.29 42.3199 81.29 42.1399V37.0799C81.29 36.9099 81.15 36.7599 80.97 36.7599H75.91C75.74 36.7599 75.59 36.8999 75.59 37.0799ZM75.91 62.1699H80.97C81.14 62.1699 81.29 62.0299 81.29 61.8499V56.7899C81.29 56.6199 81.15 56.4699 80.97 56.4699H75.91C75.74 56.4699 75.59 56.6099 75.59 56.7899V61.8499C75.59 62.0199 75.73 62.1699 75.91 62.1699ZM32.09 45.4099C32.09 56.0699 18.07 74.7499 16.04 77.3999C13.99 74.8399 0 56.9099 0 45.4099C0 36.5599 7.2 29.3599 16.05 29.3599C24.9 29.3599 32.1 36.5599 32.1 45.4099H32.09ZM27.9 45.4099C27.9 38.8699 22.58 33.5499 16.05 33.5499C9.52 33.5499 4.19 38.8699 4.19 45.4099C4.19 51.9499 9.51 57.2599 16.05 57.2599C22.59 57.2599 27.9 51.9399 27.9 45.4099ZM66.67 62.1699H71.73C71.9 62.1699 72.05 62.0299 72.05 61.8499V56.7899C72.05 56.6199 71.91 56.4699 71.73 56.4699H66.67C66.49 56.4699 66.35 56.6099 66.35 56.7899V61.8499C66.35 62.0199 66.49 62.1699 66.67 62.1699ZM23.16 77.5599C22.57 77.5599 22 77.3799 21.5 77.0399C21.94 76.4299 22.43 75.7399 22.96 74.9999C23.06 75.0699 23.18 75.1099 23.31 75.1099H31.41V61.2299C32.22 59.6399 32.97 58.0299 33.63 56.4299H47.22C48.11 56.4299 48.84 57.1599 48.84 58.0499V75.1099H57.56V3.5099C57.56 3.1599 57.28 2.8799 56.93 2.8799H23.31C22.96 2.8799 22.68 3.1599 22.68 3.5099V25.9699C21.83 25.6699 21.01 25.4399 20.2 25.2699V3.5099C20.2 1.7999 21.6 0.399902 23.31 0.399902H56.93C58.64 0.399902 60.04 1.7999 60.04 3.5099V19.1599L60.5 19.0999C60.58 19.0899 60.66 19.0799 60.75 19.0799H86.9C88.61 19.0799 90.01 20.4799 90.01 22.1899V74.4799C90.01 76.1899 88.62 77.5899 86.9 77.5899L23.17 77.5599H23.16ZM60.12 75.1099H86.89C87.24 75.1099 87.52 74.8299 87.52 74.4799V22.1899C87.52 21.8399 87.24 21.5599 86.89 21.5599H60.74C60.39 21.5599 60.11 21.8399 60.11 22.1899V75.1099H60.12ZM33.89 75.1099H46.35V58.9199H33.89V75.1099ZM66.35 37.0799V42.1399C66.35 42.3199 66.49 42.4599 66.67 42.4599H71.73C71.9 42.4599 72.05 42.3199 72.05 42.1399V37.0799C72.05 36.9099 71.91 36.7599 71.73 36.7599H66.67C66.49 36.7599 66.35 36.8999 66.35 37.0799ZM71.72 32.5899C71.89 32.5899 72.04 32.4499 72.04 32.2699V27.2099C72.04 27.0399 71.9 26.8899 71.72 26.8899H66.66C66.48 26.8899 66.34 27.0299 66.34 27.2099V32.2699C66.34 32.4399 66.48 32.5899 66.66 32.5899H71.72ZM66.35 46.9399V51.9999C66.35 52.1699 66.49 52.3199 66.67 52.3199H71.73C71.9 52.3199 72.05 52.1799 72.05 51.9999V46.9399C72.05 46.7699 71.91 46.6199 71.73 46.6199H66.67C66.49 46.6199 66.35 46.7599 66.35 46.9399Z" fill="black"/>
</svg>
