<svg width="86" height="90" viewBox="0 0 86 90" fill="none" xmlns="http://www.w3.org/2000/svg">
<path d="M84.3834 17.3521H78.692L32.383 7.09009H32.3752C32.3322 7.08228 32.2892 7.07837 32.2463 7.07446C32.215 7.07056 32.1838 7.06665 32.1525 7.06274H32.1408L24.5392 7.06665V1.10575C24.5392 0.49637 24.047 0.00415039 23.4376 0.00415039C22.8282 0.00415039 22.336 0.49634 22.336 1.10575V7.07055H14.7305C14.7227 7.07055 14.7188 7.07446 14.711 7.07446C14.6993 7.07446 14.6875 7.07836 14.6719 7.07836C14.5391 7.08618 14.4102 7.11352 14.2891 7.1643C14.2852 7.16821 14.2774 7.17602 14.2735 7.17602C14.1446 7.23461 14.0313 7.31274 13.9336 7.4143C13.9297 7.4143 13.9258 7.41821 13.9258 7.42211L4.55083 17.3596L1.61723 17.3518C1.00785 17.3518 0.515625 17.844 0.515625 18.4534V23.6136C0.515625 24.223 1.00782 24.7152 1.61723 24.7152L13.6292 24.7191V83.2421H11.2542C10.6448 83.2421 10.1526 83.7343 10.1526 84.3437V88.9023C10.1526 89.5078 10.6448 90.0039 11.2542 90.0039L28.3202 90H81.7032C82.3126 90 82.8048 89.5078 82.8048 88.8984V61.3324C82.8048 60.723 82.3126 60.2269 81.7032 60.2269H58.1522V28.8869C58.1522 28.2775 57.66 27.7853 57.0506 27.7853L33.2456 27.7814V24.715H70.4096L71.2143 30.7111C71.2104 30.7462 71.2026 30.7853 71.2026 30.8244C71.2026 30.9728 71.2299 31.1134 71.2846 31.2463L71.6206 33.758C71.6909 34.3087 72.1596 34.715 72.7144 34.715H73.3394V36.0978C73.3394 36.7033 73.8316 37.1994 74.441 37.1994C75.0386 37.1994 75.5426 37.7033 75.5426 38.301C75.5426 38.8986 75.0387 39.4026 74.441 39.4026C73.8433 39.4026 73.3394 38.8987 73.3394 38.301C73.3394 37.6916 72.8472 37.1994 72.2378 37.1994C71.6284 37.1994 71.1362 37.6877 71.1362 38.301C71.1362 39.426 71.7026 40.4182 72.5659 41.0158L66.3628 48.3478C66.355 48.3556 66.355 48.3634 66.3511 48.3673C66.269 48.4689 66.2065 48.5822 66.1636 48.7072C66.1557 48.7267 66.1518 48.7384 66.1479 48.7579C66.1206 48.8556 66.1011 48.9532 66.1011 49.0626V56.6017C66.1011 57.2072 66.5932 57.7033 67.2026 57.7033H81.6986C82.308 57.7033 82.8002 57.2111 82.8002 56.6017V49.0626C82.8002 48.9572 82.7807 48.8595 82.7534 48.7579C82.7456 48.7384 82.7417 48.7267 82.7377 48.7072C82.6948 48.5822 82.6323 48.4728 82.5502 48.3712C82.5424 48.3634 82.5424 48.3556 82.5385 48.3478L76.3158 41.0158C77.1752 40.4181 77.7455 39.426 77.7455 38.301C77.7455 36.8635 76.8236 35.6408 75.5424 35.1838V34.715H76.1674C76.7182 34.715 77.1869 34.3088 77.2612 33.758L77.6011 31.2502C77.6558 31.1174 77.687 30.9807 77.687 30.8283C77.687 30.7893 77.6792 30.7502 77.6753 30.7111L78.48 24.715H84.3862C84.9916 24.715 85.4878 24.2228 85.4878 23.6134V18.4532C85.48 17.8438 84.9878 17.3516 84.3823 17.3516L84.3834 17.3521ZM80.6022 55.5001H68.3092V50.1642H80.6022V55.5001ZM69.5792 47.961L74.4425 42.211L79.3214 47.961H69.5792ZM33.2472 9.53899L68.5052 17.3515H33.2472V9.53899ZM13.6302 10.9413V17.3475H7.5872L13.6302 10.9413ZM2.7242 22.5113V19.5504H13.6302V22.5113H2.7242ZM12.357 85.4413H18.5523H18.5562H18.564H27.2202V87.7968H12.3572L12.357 85.4413ZM27.22 73.4683V83.2378H20.6262L27.22 73.4683ZM19.6575 80.7378V58.9958L26.9934 69.8628L19.6575 80.7378ZM27.22 66.2648L19.8841 55.3938L27.22 44.5228V66.2648ZM19.6575 51.7878V30.0458L26.9934 40.9168L19.6575 51.7878ZM80.6025 62.4328V87.7958H58.1535V62.4328H80.6025ZM55.9505 87.7958H29.4235V29.9838H55.9505V87.7958ZM28.3215 27.7798C27.7121 27.7798 27.2199 28.272 27.2199 28.8814V37.315L19.884 26.444L27.2199 15.573V25.6C27.2199 26.2094 27.7121 26.7016 28.3215 26.7016C28.9309 26.7016 29.4231 26.2133 29.4231 25.6V11.971C29.4231 11.9632 29.4192 11.9593 29.4192 11.9515C29.4192 11.8851 29.4114 11.8186 29.3997 11.7561C29.3918 11.7171 29.3801 11.6819 29.3684 11.6468C29.3567 11.6155 29.3528 11.5843 29.3411 11.5491C29.3254 11.514 29.3059 11.4827 29.2864 11.4476C29.2708 11.4202 29.259 11.389 29.2395 11.3577C29.2161 11.3265 29.1887 11.2991 29.1653 11.2679C29.1458 11.2444 29.1262 11.2132 29.1028 11.1937C29.0012 11.0882 28.8801 11.0062 28.7434 10.9515C28.72 10.9397 28.6926 10.9358 28.6692 10.928C28.6262 10.9124 28.5833 10.8968 28.5364 10.889C28.4817 10.8772 28.4309 10.8733 28.3762 10.8733C28.3567 10.8694 28.3411 10.8655 28.3215 10.8655H18.5559C17.9466 10.8655 17.4543 11.3538 17.4543 11.9671V83.2371H15.8332V9.26813H31.0402V27.7841H28.3214L28.3215 27.7798ZM19.6574 22.8423V13.0689H26.2512L19.6574 22.8423ZM75.2084 32.5142H73.6811L73.603 31.9282H75.2866L75.2084 32.5142ZM75.5795 29.729H73.3061L72.6342 24.7134H76.2514L75.5795 29.729ZM83.2787 22.5102H33.2477V19.5493H78.5637C78.5676 19.5493 78.5676 19.5532 78.5715 19.5532C78.5754 19.5532 78.5754 19.5493 78.5754 19.5493H83.2785L83.2787 22.5102ZM34.9307 44.4122H39.6416C40.251 44.4122 40.7432 43.92 40.7432 43.3106V35.7481C40.7432 35.1387 40.251 34.6465 39.6416 34.6465H34.9307C34.3213 34.6465 33.8291 35.1387 33.8291 35.7481V43.3106C33.8291 43.9239 34.3213 44.4122 34.9307 44.4122ZM36.0323 36.8536H38.5401V42.213H36.0323V36.8536ZM45.712 44.4122H50.4425C51.0519 44.4122 51.5441 43.92 51.5441 43.3106V35.7481C51.5441 35.1387 51.0519 34.6465 50.4425 34.6465H45.712C45.1026 34.6465 44.6104 35.1387 44.6104 35.7481V43.3106C44.6104 43.9239 45.1026 44.4122 45.712 44.4122ZM46.8136 36.8536H49.3409V42.213H46.8136V36.8536ZM34.9306 60.4236H39.6415C40.2509 60.4236 40.7431 59.9314 40.7431 59.322V51.7595C40.7431 51.1501 40.2509 50.6579 39.6415 50.6579H34.9306C34.3212 50.6579 33.829 51.1501 33.829 51.7595V59.322C33.829 59.9314 34.3212 60.4236 34.9306 60.4236ZM36.0322 52.8611H38.54V58.2166H36.0322V52.8611ZM45.7119 60.4236H50.4424C51.0518 60.4236 51.544 59.9314 51.544 59.322V51.7595C51.544 51.1501 51.0518 50.6579 50.4424 50.6579H45.7119C45.1025 50.6579 44.6103 51.1501 44.6103 51.7595V59.322C44.6103 59.9314 45.1025 60.4236 45.7119 60.4236ZM46.8135 52.8611H49.3408V58.2166H46.8135V52.8611ZM34.9305 76.4311H39.6414C40.2508 76.4311 40.743 75.9428 40.743 75.3295V67.7475C40.743 67.1381 40.2508 66.642 39.6414 66.642H34.9305C34.3211 66.642 33.8289 67.1342 33.8289 67.7475V75.3295C33.8289 75.9389 34.3211 76.4311 34.9305 76.4311ZM36.0321 68.8491H38.5399V74.228H36.0321V68.8491ZM45.7118 76.4311H50.4423C51.0517 76.4311 51.5439 75.9428 51.5439 75.3295V67.7475C51.5439 67.1381 51.0517 66.642 50.4423 66.642H45.7118C45.1024 66.642 44.6102 67.1342 44.6102 67.7475V75.3295C44.6102 75.9389 45.1024 76.4311 45.7118 76.4311ZM46.8134 68.8491H49.3407V74.228H46.8134V68.8491Z" fill="black"/>
</svg>
