<svg width="600" height="480" viewBox="0 0 600 480" fill="none" xmlns="http://www.w3.org/2000/svg">
<rect x="3" y="3" width="594" height="474" rx="22" fill="white" stroke="#F55129" stroke-width="6"/>
<path d="M74.428 145V116.164H80.854V124.102L80.098 121.78C80.962 119.836 82.312 118.36 84.148 117.352C86.02 116.344 88.342 115.84 91.114 115.84V122.266C90.826 122.194 90.556 122.158 90.304 122.158C90.052 122.122 89.8 122.104 89.548 122.104C86.992 122.104 84.958 122.86 83.446 124.372C81.934 125.848 81.178 128.062 81.178 131.014V145H74.428ZM107.43 145.378C104.226 145.378 101.418 144.748 99.0064 143.488C96.6304 142.192 94.7764 140.428 93.4444 138.196C92.1484 135.964 91.5004 133.426 91.5004 130.582C91.5004 127.702 92.1304 125.164 93.3904 122.968C94.6864 120.736 96.4504 118.99 98.6824 117.73C100.95 116.47 103.524 115.84 106.404 115.84C109.212 115.84 111.714 116.452 113.91 117.676C116.106 118.9 117.834 120.628 119.094 122.86C120.354 125.092 120.984 127.72 120.984 130.744C120.984 131.032 120.966 131.356 120.93 131.716C120.93 132.076 120.912 132.418 120.876 132.742H96.8464V128.26H117.312L114.666 129.664C114.702 128.008 114.36 126.55 113.64 125.29C112.92 124.03 111.93 123.04 110.67 122.32C109.446 121.6 108.024 121.24 106.404 121.24C104.748 121.24 103.29 121.6 102.03 122.32C100.806 123.04 99.8344 124.048 99.1144 125.344C98.4304 126.604 98.0884 128.098 98.0884 129.826V130.906C98.0884 132.634 98.4844 134.164 99.2764 135.496C100.068 136.828 101.184 137.854 102.624 138.574C104.064 139.294 105.72 139.654 107.592 139.654C109.212 139.654 110.67 139.402 111.966 138.898C113.262 138.394 114.414 137.602 115.422 136.522L119.04 140.68C117.744 142.192 116.106 143.362 114.126 144.19C112.182 144.982 109.95 145.378 107.43 145.378ZM136.972 145.378C134.2 145.378 131.698 144.766 129.466 143.542C127.27 142.282 125.542 140.554 124.282 138.358C123.022 136.162 122.392 133.57 122.392 130.582C122.392 127.594 123.022 125.002 124.282 122.806C125.542 120.61 127.27 118.9 129.466 117.676C131.698 116.452 134.2 115.84 136.972 115.84C139.384 115.84 141.544 116.38 143.452 117.46C145.36 118.504 146.872 120.106 147.988 122.266C149.104 124.426 149.662 127.198 149.662 130.582C149.662 133.93 149.122 136.702 148.042 138.898C146.962 141.058 145.468 142.678 143.56 143.758C141.652 144.838 139.456 145.378 136.972 145.378ZM137.782 139.6C139.402 139.6 140.842 139.24 142.102 138.52C143.398 137.8 144.424 136.756 145.18 135.388C145.972 134.02 146.368 132.418 146.368 130.582C146.368 128.71 145.972 127.108 145.18 125.776C144.424 124.408 143.398 123.364 142.102 122.644C140.842 121.924 139.402 121.564 137.782 121.564C136.162 121.564 134.704 121.924 133.408 122.644C132.148 123.364 131.122 124.408 130.33 125.776C129.574 127.108 129.196 128.71 129.196 130.582C129.196 132.418 129.574 134.02 130.33 135.388C131.122 136.756 132.148 137.8 133.408 138.52C134.704 139.24 136.162 139.6 137.782 139.6ZM146.53 145V138.196L146.8 130.528L146.26 122.86V104.932H152.956V145H146.53ZM161.482 145V114.544C161.482 111.52 162.364 109.108 164.128 107.308C165.928 105.472 168.484 104.554 171.796 104.554C172.984 104.554 174.1 104.68 175.144 104.932C176.224 105.184 177.124 105.58 177.844 106.12L176.008 111.196C175.504 110.8 174.928 110.512 174.28 110.332C173.632 110.116 172.966 110.008 172.282 110.008C170.878 110.008 169.816 110.404 169.096 111.196C168.376 111.952 168.016 113.104 168.016 114.652V117.892L168.232 120.916V145H161.482ZM156.73 121.78V116.38H175.954V121.78H156.73ZM180.706 145V104.932H187.456V145H180.706ZM211.384 145V139.168L211.006 137.926V127.72C211.006 125.74 210.412 124.21 209.224 123.13C208.036 122.014 206.236 121.456 203.824 121.456C202.204 121.456 200.602 121.708 199.018 122.212C197.47 122.716 196.156 123.418 195.076 124.318L192.43 119.404C193.978 118.216 195.814 117.334 197.938 116.758C200.098 116.146 202.33 115.84 204.634 115.84C208.81 115.84 212.032 116.848 214.3 118.864C216.604 120.844 217.756 123.922 217.756 128.098V145H211.384ZM202.312 145.378C200.152 145.378 198.262 145.018 196.642 144.298C195.022 143.542 193.762 142.516 192.862 141.22C191.998 139.888 191.566 138.394 191.566 136.738C191.566 135.118 191.944 133.66 192.7 132.364C193.492 131.068 194.77 130.042 196.534 129.286C198.298 128.53 200.638 128.152 203.554 128.152H211.924V132.634H204.04C201.736 132.634 200.188 133.012 199.396 133.768C198.604 134.488 198.208 135.388 198.208 136.468C198.208 137.692 198.694 138.664 199.666 139.384C200.638 140.104 201.988 140.464 203.716 140.464C205.372 140.464 206.848 140.086 208.144 139.33C209.476 138.574 210.43 137.458 211.006 135.982L212.14 140.032C211.492 141.724 210.322 143.038 208.63 143.974C206.974 144.91 204.868 145.378 202.312 145.378ZM236.84 155.854C234.176 155.854 231.566 155.494 229.01 154.774C226.49 154.09 224.42 153.082 222.8 151.75L225.824 146.674C227.084 147.718 228.668 148.546 230.576 149.158C232.52 149.806 234.482 150.13 236.462 150.13C239.63 150.13 241.952 149.392 243.428 147.916C244.904 146.476 245.642 144.298 245.642 141.382V136.252L246.182 129.718L245.966 123.184V116.164H252.392V140.626C252.392 145.846 251.06 149.68 248.396 152.128C245.732 154.612 241.88 155.854 236.84 155.854ZM235.976 143.704C233.24 143.704 230.756 143.128 228.524 141.976C226.328 140.788 224.582 139.15 223.286 137.062C222.026 134.974 221.396 132.526 221.396 129.718C221.396 126.946 222.026 124.516 223.286 122.428C224.582 120.34 226.328 118.72 228.524 117.568C230.756 116.416 233.24 115.84 235.976 115.84C238.424 115.84 240.62 116.326 242.564 117.298C244.508 118.27 246.056 119.782 247.208 121.834C248.396 123.886 248.99 126.514 248.99 129.718C248.99 132.922 248.396 135.568 247.208 137.656C246.056 139.708 244.508 141.238 242.564 142.246C240.62 143.218 238.424 143.704 235.976 143.704ZM237.002 137.98C238.694 137.98 240.206 137.638 241.538 136.954C242.87 136.234 243.896 135.262 244.616 134.038C245.372 132.778 245.75 131.338 245.75 129.718C245.75 128.098 245.372 126.676 244.616 125.452C243.896 124.192 242.87 123.238 241.538 122.59C240.206 121.906 238.694 121.564 237.002 121.564C235.31 121.564 233.78 121.906 232.412 122.59C231.08 123.238 230.036 124.192 229.28 125.452C228.56 126.676 228.2 128.098 228.2 129.718C228.2 131.338 228.56 132.778 229.28 134.038C230.036 135.262 231.08 136.234 232.412 136.954C233.78 137.638 235.31 137.98 237.002 137.98ZM284.02 145.378C280.996 145.378 278.296 144.748 275.92 143.488C273.58 142.192 271.744 140.428 270.412 138.196C269.08 135.964 268.414 133.426 268.414 130.582C268.414 127.702 269.08 125.164 270.412 122.968C271.744 120.736 273.58 118.99 275.92 117.73C278.296 116.47 280.996 115.84 284.02 115.84C286.828 115.84 289.294 116.416 291.418 117.568C293.578 118.684 295.216 120.34 296.332 122.536L291.148 125.56C290.284 124.192 289.222 123.184 287.962 122.536C286.738 121.888 285.406 121.564 283.966 121.564C282.31 121.564 280.816 121.924 279.484 122.644C278.152 123.364 277.108 124.408 276.352 125.776C275.596 127.108 275.218 128.71 275.218 130.582C275.218 132.454 275.596 134.074 276.352 135.442C277.108 136.774 278.152 137.8 279.484 138.52C280.816 139.24 282.31 139.6 283.966 139.6C285.406 139.6 286.738 139.276 287.962 138.628C289.222 137.98 290.284 136.972 291.148 135.604L296.332 138.628C295.216 140.788 293.578 142.462 291.418 143.65C289.294 144.802 286.828 145.378 284.02 145.378ZM315.565 115.84C317.869 115.84 319.921 116.29 321.721 117.19C323.557 118.09 324.997 119.476 326.041 121.348C327.085 123.184 327.607 125.56 327.607 128.476V145H320.857V129.34C320.857 126.784 320.245 124.876 319.021 123.616C317.833 122.356 316.159 121.726 313.999 121.726C312.415 121.726 311.011 122.05 309.787 122.698C308.563 123.346 307.609 124.318 306.925 125.614C306.277 126.874 305.953 128.476 305.953 130.42V145H299.203V104.932H305.953V123.94L304.495 121.564C305.503 119.728 306.961 118.324 308.869 117.352C310.813 116.344 313.045 115.84 315.565 115.84ZM347.077 145.378C343.873 145.378 341.065 144.748 338.653 143.488C336.277 142.192 334.423 140.428 333.091 138.196C331.795 135.964 331.147 133.426 331.147 130.582C331.147 127.702 331.777 125.164 333.037 122.968C334.333 120.736 336.097 118.99 338.329 117.73C340.597 116.47 343.171 115.84 346.051 115.84C348.859 115.84 351.361 116.452 353.557 117.676C355.753 118.9 357.481 120.628 358.741 122.86C360.001 125.092 360.631 127.72 360.631 130.744C360.631 131.032 360.613 131.356 360.577 131.716C360.577 132.076 360.559 132.418 360.523 132.742H336.493V128.26H356.959L354.313 129.664C354.349 128.008 354.007 126.55 353.287 125.29C352.567 124.03 351.577 123.04 350.317 122.32C349.093 121.6 347.671 121.24 346.051 121.24C344.395 121.24 342.937 121.6 341.677 122.32C340.453 123.04 339.481 124.048 338.761 125.344C338.077 126.604 337.735 128.098 337.735 129.826V130.906C337.735 132.634 338.131 134.164 338.923 135.496C339.715 136.828 340.831 137.854 342.271 138.574C343.711 139.294 345.367 139.654 347.239 139.654C348.859 139.654 350.317 139.402 351.613 138.898C352.909 138.394 354.061 137.602 355.069 136.522L358.687 140.68C357.391 142.192 355.753 143.362 353.773 144.19C351.829 144.982 349.597 145.378 347.077 145.378ZM377.644 145.378C374.62 145.378 371.92 144.748 369.544 143.488C367.204 142.192 365.368 140.428 364.036 138.196C362.704 135.964 362.038 133.426 362.038 130.582C362.038 127.702 362.704 125.164 364.036 122.968C365.368 120.736 367.204 118.99 369.544 117.73C371.92 116.47 374.62 115.84 377.644 115.84C380.452 115.84 382.918 116.416 385.042 117.568C387.202 118.684 388.84 120.34 389.956 122.536L384.772 125.56C383.908 124.192 382.846 123.184 381.586 122.536C380.362 121.888 379.03 121.564 377.59 121.564C375.934 121.564 374.44 121.924 373.108 122.644C371.776 123.364 370.732 124.408 369.976 125.776C369.22 127.108 368.842 128.71 368.842 130.582C368.842 132.454 369.22 134.074 369.976 135.442C370.732 136.774 371.776 137.8 373.108 138.52C374.44 139.24 375.934 139.6 377.59 139.6C379.03 139.6 380.362 139.276 381.586 138.628C382.846 137.98 383.908 136.972 384.772 135.604L389.956 138.628C388.84 140.788 387.202 142.462 385.042 143.65C382.918 144.802 380.452 145.378 377.644 145.378ZM398.336 138.574L398.498 130.096L413.564 116.164H421.664L408.866 129.016L405.302 131.986L398.336 138.574ZM392.828 145V104.932H399.578V145H392.828ZM414.59 145L404.06 131.986L408.326 126.586L422.798 145H414.59Z" fill="#F55129"/>
<path d="M77.625 192.42C77.5644 191.883 77.3144 191.466 76.875 191.17C76.4356 190.871 75.8826 190.722 75.2159 190.722C74.7386 190.722 74.3258 190.797 73.9773 190.949C73.6288 191.097 73.358 191.301 73.1648 191.562C72.9754 191.82 72.8807 192.114 72.8807 192.443C72.8807 192.72 72.9451 192.958 73.0739 193.159C73.2064 193.36 73.3788 193.528 73.5909 193.665C73.8068 193.797 74.0379 193.909 74.2841 194C74.5303 194.087 74.767 194.159 74.9943 194.216L76.1307 194.511C76.5019 194.602 76.8826 194.725 77.2727 194.881C77.6629 195.036 78.0246 195.241 78.358 195.494C78.6913 195.748 78.9602 196.062 79.1648 196.438C79.3731 196.812 79.4773 197.261 79.4773 197.784C79.4773 198.443 79.3068 199.028 78.9659 199.54C78.6288 200.051 78.1383 200.455 77.4943 200.75C76.8542 201.045 76.0795 201.193 75.1705 201.193C74.2992 201.193 73.5455 201.055 72.9091 200.778C72.2727 200.502 71.7746 200.11 71.4148 199.602C71.0549 199.091 70.8561 198.485 70.8182 197.784H72.5795C72.6136 198.205 72.75 198.555 72.9886 198.835C73.2311 199.112 73.5398 199.318 73.9148 199.455C74.2936 199.587 74.7083 199.653 75.1591 199.653C75.6553 199.653 76.0966 199.576 76.483 199.42C76.8731 199.261 77.1799 199.042 77.4034 198.761C77.6269 198.477 77.7386 198.146 77.7386 197.767C77.7386 197.422 77.6402 197.14 77.4432 196.92C77.25 196.701 76.9867 196.519 76.6534 196.375C76.3239 196.231 75.9508 196.104 75.5341 195.994L74.1591 195.619C73.2273 195.366 72.4886 194.992 71.9432 194.5C71.4015 194.008 71.1307 193.356 71.1307 192.545C71.1307 191.875 71.3125 191.29 71.6761 190.79C72.0398 190.29 72.5322 189.902 73.1534 189.625C73.7746 189.345 74.4754 189.205 75.2557 189.205C76.0436 189.205 76.7386 189.343 77.3409 189.619C77.947 189.896 78.4242 190.277 78.7727 190.761C79.1212 191.242 79.303 191.795 79.3182 192.42H77.625ZM85.2003 201.176C84.3404 201.176 83.5999 200.992 82.9787 200.625C82.3613 200.254 81.884 199.733 81.5469 199.062C81.2135 198.388 81.0469 197.598 81.0469 196.693C81.0469 195.799 81.2135 195.011 81.5469 194.33C81.884 193.648 82.3537 193.116 82.956 192.733C83.562 192.35 84.2704 192.159 85.081 192.159C85.5734 192.159 86.0507 192.241 86.5128 192.403C86.9749 192.566 87.3897 192.822 87.7571 193.17C88.1245 193.519 88.4143 193.972 88.6264 194.528C88.8385 195.081 88.9446 195.754 88.9446 196.545V197.148H82.0071V195.875H87.2798C87.2798 195.428 87.1889 195.032 87.0071 194.688C86.8253 194.339 86.5696 194.064 86.2401 193.864C85.9143 193.663 85.5317 193.562 85.0923 193.562C84.6151 193.562 84.1984 193.68 83.8423 193.915C83.4901 194.146 83.2173 194.449 83.0241 194.824C82.8348 195.195 82.7401 195.598 82.7401 196.034V197.028C82.7401 197.612 82.8423 198.108 83.0469 198.517C83.2552 198.926 83.545 199.239 83.9162 199.455C84.2874 199.667 84.7211 199.773 85.2173 199.773C85.5393 199.773 85.8329 199.727 86.098 199.636C86.3632 199.542 86.5923 199.402 86.7855 199.216C86.9787 199.03 87.1264 198.801 87.2287 198.528L88.8366 198.818C88.7079 199.292 88.4768 199.706 88.1435 200.062C87.8139 200.415 87.3991 200.689 86.8991 200.886C86.4029 201.08 85.8366 201.176 85.2003 201.176ZM93.3693 201.193C92.8163 201.193 92.3163 201.091 91.8693 200.886C91.4223 200.678 91.0682 200.377 90.8068 199.983C90.5492 199.589 90.4205 199.106 90.4205 198.534C90.4205 198.042 90.5152 197.636 90.7045 197.318C90.8939 197 91.1496 196.748 91.4716 196.562C91.7936 196.377 92.1534 196.237 92.5511 196.142C92.9489 196.047 93.3542 195.975 93.767 195.926C94.2898 195.866 94.714 195.816 95.0398 195.778C95.3655 195.737 95.6023 195.67 95.75 195.58C95.8977 195.489 95.9716 195.341 95.9716 195.136V195.097C95.9716 194.6 95.8314 194.216 95.5511 193.943C95.2746 193.67 94.8617 193.534 94.3125 193.534C93.7405 193.534 93.2898 193.661 92.9602 193.915C92.6345 194.165 92.4091 194.443 92.2841 194.75L90.6875 194.386C90.8769 193.856 91.1534 193.428 91.517 193.102C91.8845 192.773 92.3068 192.534 92.7841 192.386C93.2614 192.235 93.7633 192.159 94.2898 192.159C94.6383 192.159 95.0076 192.201 95.3977 192.284C95.7917 192.364 96.1591 192.511 96.5 192.727C96.8447 192.943 97.1269 193.252 97.3466 193.653C97.5663 194.051 97.6761 194.568 97.6761 195.205V201H96.017V199.807H95.9489C95.839 200.027 95.6742 200.242 95.4545 200.455C95.2348 200.667 94.9527 200.843 94.608 200.983C94.2633 201.123 93.8504 201.193 93.3693 201.193ZM93.7386 199.83C94.2083 199.83 94.6098 199.737 94.9432 199.551C95.2803 199.366 95.536 199.123 95.7102 198.824C95.8883 198.521 95.9773 198.197 95.9773 197.852V196.727C95.9167 196.788 95.7992 196.845 95.625 196.898C95.4545 196.947 95.2595 196.991 95.0398 197.028C94.8201 197.062 94.6061 197.095 94.3977 197.125C94.1894 197.152 94.0152 197.174 93.875 197.193C93.5455 197.235 93.2443 197.305 92.9716 197.403C92.7027 197.502 92.4867 197.644 92.3239 197.83C92.1648 198.011 92.0852 198.254 92.0852 198.557C92.0852 198.977 92.2405 199.295 92.5511 199.511C92.8617 199.723 93.2576 199.83 93.7386 199.83ZM99.9389 201V192.273H101.581V193.659H101.672C101.831 193.189 102.111 192.82 102.513 192.551C102.918 192.278 103.376 192.142 103.888 192.142C103.994 192.142 104.119 192.146 104.263 192.153C104.411 192.161 104.526 192.17 104.609 192.182V193.807C104.541 193.788 104.42 193.767 104.246 193.744C104.071 193.718 103.897 193.705 103.723 193.705C103.321 193.705 102.964 193.79 102.649 193.96C102.339 194.127 102.092 194.36 101.911 194.659C101.729 194.955 101.638 195.292 101.638 195.67V201H99.9389ZM109.443 201.176C108.598 201.176 107.871 200.985 107.261 200.602C106.655 200.216 106.189 199.684 105.864 199.006C105.538 198.328 105.375 197.551 105.375 196.676C105.375 195.79 105.542 195.008 105.875 194.33C106.208 193.648 106.678 193.116 107.284 192.733C107.89 192.35 108.604 192.159 109.426 192.159C110.089 192.159 110.68 192.282 111.199 192.528C111.718 192.771 112.136 193.112 112.455 193.551C112.777 193.991 112.968 194.504 113.028 195.091H111.375C111.284 194.682 111.076 194.33 110.75 194.034C110.428 193.739 109.996 193.591 109.455 193.591C108.981 193.591 108.566 193.716 108.21 193.966C107.858 194.212 107.583 194.564 107.386 195.023C107.189 195.477 107.091 196.015 107.091 196.636C107.091 197.273 107.188 197.822 107.381 198.284C107.574 198.746 107.847 199.104 108.199 199.358C108.555 199.612 108.973 199.739 109.455 199.739C109.777 199.739 110.068 199.68 110.33 199.562C110.595 199.441 110.816 199.269 110.994 199.045C111.176 198.822 111.303 198.553 111.375 198.239H113.028C112.968 198.803 112.784 199.307 112.477 199.75C112.17 200.193 111.759 200.542 111.244 200.795C110.733 201.049 110.133 201.176 109.443 201.176ZM116.544 195.818V201H114.845V189.364H116.521V193.693H116.629C116.834 193.223 117.146 192.85 117.567 192.574C117.987 192.297 118.536 192.159 119.214 192.159C119.813 192.159 120.336 192.282 120.783 192.528C121.233 192.775 121.582 193.142 121.828 193.631C122.078 194.116 122.203 194.722 122.203 195.449V201H120.504V195.653C120.504 195.013 120.339 194.517 120.01 194.165C119.68 193.809 119.222 193.631 118.635 193.631C118.233 193.631 117.874 193.716 117.555 193.886C117.241 194.057 116.993 194.307 116.811 194.636C116.633 194.962 116.544 195.356 116.544 195.818ZM128.841 201V189.364H130.54V193.688H130.642C130.741 193.506 130.883 193.295 131.068 193.057C131.254 192.818 131.511 192.61 131.841 192.432C132.17 192.25 132.606 192.159 133.148 192.159C133.852 192.159 134.481 192.337 135.034 192.693C135.587 193.049 136.021 193.562 136.335 194.233C136.653 194.903 136.812 195.71 136.812 196.653C136.812 197.597 136.655 198.405 136.341 199.08C136.027 199.75 135.595 200.267 135.045 200.631C134.496 200.991 133.869 201.17 133.165 201.17C132.634 201.17 132.201 201.081 131.864 200.903C131.53 200.725 131.269 200.517 131.08 200.278C130.89 200.04 130.744 199.828 130.642 199.642H130.5V201H128.841ZM130.506 196.636C130.506 197.25 130.595 197.788 130.773 198.25C130.951 198.712 131.208 199.074 131.545 199.335C131.883 199.593 132.295 199.722 132.784 199.722C133.292 199.722 133.716 199.587 134.057 199.318C134.398 199.045 134.655 198.676 134.83 198.21C135.008 197.744 135.097 197.22 135.097 196.636C135.097 196.061 135.009 195.544 134.835 195.085C134.665 194.627 134.407 194.265 134.062 194C133.722 193.735 133.295 193.602 132.784 193.602C132.292 193.602 131.875 193.729 131.534 193.983C131.197 194.237 130.941 194.591 130.767 195.045C130.593 195.5 130.506 196.03 130.506 196.636ZM139.497 204.273C139.243 204.273 139.012 204.252 138.804 204.21C138.596 204.172 138.44 204.131 138.338 204.085L138.747 202.693C139.058 202.777 139.334 202.813 139.577 202.801C139.819 202.79 140.033 202.699 140.219 202.528C140.408 202.358 140.575 202.08 140.719 201.693L140.929 201.114L137.736 192.273H139.554L141.764 199.045H141.855L144.065 192.273H145.889L142.293 202.165C142.126 202.619 141.914 203.004 141.656 203.318C141.399 203.636 141.092 203.875 140.736 204.034C140.38 204.193 139.967 204.273 139.497 204.273ZM154.26 201.193C153.707 201.193 153.207 201.091 152.76 200.886C152.313 200.678 151.959 200.377 151.697 199.983C151.44 199.589 151.311 199.106 151.311 198.534C151.311 198.042 151.406 197.636 151.595 197.318C151.785 197 152.04 196.748 152.362 196.562C152.684 196.377 153.044 196.237 153.442 196.142C153.839 196.047 154.245 195.975 154.658 195.926C155.18 195.866 155.605 195.816 155.93 195.778C156.256 195.737 156.493 195.67 156.641 195.58C156.788 195.489 156.862 195.341 156.862 195.136V195.097C156.862 194.6 156.722 194.216 156.442 193.943C156.165 193.67 155.752 193.534 155.203 193.534C154.631 193.534 154.18 193.661 153.851 193.915C153.525 194.165 153.3 194.443 153.175 194.75L151.578 194.386C151.768 193.856 152.044 193.428 152.408 193.102C152.775 192.773 153.197 192.534 153.675 192.386C154.152 192.235 154.654 192.159 155.18 192.159C155.529 192.159 155.898 192.201 156.288 192.284C156.682 192.364 157.05 192.511 157.391 192.727C157.735 192.943 158.018 193.252 158.237 193.653C158.457 194.051 158.567 194.568 158.567 195.205V201H156.908V199.807H156.839C156.73 200.027 156.565 200.242 156.345 200.455C156.125 200.667 155.843 200.843 155.499 200.983C155.154 201.123 154.741 201.193 154.26 201.193ZM154.629 199.83C155.099 199.83 155.5 199.737 155.834 199.551C156.171 199.366 156.427 199.123 156.601 198.824C156.779 198.521 156.868 198.197 156.868 197.852V196.727C156.807 196.788 156.69 196.845 156.516 196.898C156.345 196.947 156.15 196.991 155.93 197.028C155.711 197.062 155.497 197.095 155.288 197.125C155.08 197.152 154.906 197.174 154.766 197.193C154.436 197.235 154.135 197.305 153.862 197.403C153.593 197.502 153.377 197.644 153.214 197.83C153.055 198.011 152.976 198.254 152.976 198.557C152.976 198.977 153.131 199.295 153.442 199.511C153.752 199.723 154.148 199.83 154.629 199.83ZM164.097 201.17C163.392 201.17 162.763 200.991 162.21 200.631C161.661 200.267 161.229 199.75 160.915 199.08C160.604 198.405 160.449 197.597 160.449 196.653C160.449 195.71 160.606 194.903 160.92 194.233C161.239 193.562 161.674 193.049 162.227 192.693C162.78 192.337 163.407 192.159 164.108 192.159C164.65 192.159 165.085 192.25 165.415 192.432C165.748 192.61 166.006 192.818 166.188 193.057C166.373 193.295 166.517 193.506 166.619 193.688H166.722V189.364H168.42V201H166.761V199.642H166.619C166.517 199.828 166.369 200.04 166.176 200.278C165.987 200.517 165.725 200.725 165.392 200.903C165.059 201.081 164.627 201.17 164.097 201.17ZM164.472 199.722C164.96 199.722 165.373 199.593 165.71 199.335C166.051 199.074 166.309 198.712 166.483 198.25C166.661 197.788 166.75 197.25 166.75 196.636C166.75 196.03 166.663 195.5 166.489 195.045C166.314 194.591 166.059 194.237 165.722 193.983C165.384 193.729 164.968 193.602 164.472 193.602C163.96 193.602 163.534 193.735 163.193 194C162.852 194.265 162.595 194.627 162.42 195.085C162.25 195.544 162.165 196.061 162.165 196.636C162.165 197.22 162.252 197.744 162.426 198.21C162.6 198.676 162.858 199.045 163.199 199.318C163.544 199.587 163.968 199.722 164.472 199.722ZM174.112 201.17C173.408 201.17 172.779 200.991 172.226 200.631C171.677 200.267 171.245 199.75 170.93 199.08C170.62 198.405 170.464 197.597 170.464 196.653C170.464 195.71 170.622 194.903 170.936 194.233C171.254 193.562 171.69 193.049 172.243 192.693C172.796 192.337 173.423 192.159 174.124 192.159C174.665 192.159 175.101 192.25 175.43 192.432C175.764 192.61 176.021 192.818 176.203 193.057C176.389 193.295 176.533 193.506 176.635 193.688H176.737V189.364H178.436V201H176.777V199.642H176.635C176.533 199.828 176.385 200.04 176.192 200.278C176.002 200.517 175.741 200.725 175.408 200.903C175.074 201.081 174.643 201.17 174.112 201.17ZM174.487 199.722C174.976 199.722 175.389 199.593 175.726 199.335C176.067 199.074 176.324 198.712 176.499 198.25C176.677 197.788 176.766 197.25 176.766 196.636C176.766 196.03 176.679 195.5 176.504 195.045C176.33 194.591 176.074 194.237 175.737 193.983C175.4 193.729 174.983 193.602 174.487 193.602C173.976 193.602 173.55 193.735 173.209 194C172.868 194.265 172.61 194.627 172.436 195.085C172.266 195.544 172.18 196.061 172.18 196.636C172.18 197.22 172.268 197.744 172.442 198.21C172.616 198.676 172.874 199.045 173.214 199.318C173.559 199.587 173.983 199.722 174.487 199.722ZM180.861 201V192.273H182.503V193.659H182.594C182.753 193.189 183.033 192.82 183.435 192.551C183.84 192.278 184.298 192.142 184.81 192.142C184.916 192.142 185.041 192.146 185.185 192.153C185.332 192.161 185.448 192.17 185.531 192.182V193.807C185.463 193.788 185.342 193.767 185.168 193.744C184.993 193.718 184.819 193.705 184.645 193.705C184.243 193.705 183.885 193.79 183.571 193.96C183.26 194.127 183.014 194.36 182.832 194.659C182.651 194.955 182.56 195.292 182.56 195.67V201H180.861ZM190.45 201.176C189.59 201.176 188.85 200.992 188.229 200.625C187.611 200.254 187.134 199.733 186.797 199.062C186.464 198.388 186.297 197.598 186.297 196.693C186.297 195.799 186.464 195.011 186.797 194.33C187.134 193.648 187.604 193.116 188.206 192.733C188.812 192.35 189.52 192.159 190.331 192.159C190.823 192.159 191.301 192.241 191.763 192.403C192.225 192.566 192.64 192.822 193.007 193.17C193.375 193.519 193.664 193.972 193.876 194.528C194.089 195.081 194.195 195.754 194.195 196.545V197.148H187.257V195.875H192.53C192.53 195.428 192.439 195.032 192.257 194.688C192.075 194.339 191.82 194.064 191.49 193.864C191.164 193.663 190.782 193.562 190.342 193.562C189.865 193.562 189.448 193.68 189.092 193.915C188.74 194.146 188.467 194.449 188.274 194.824C188.085 195.195 187.99 195.598 187.99 196.034V197.028C187.99 197.612 188.092 198.108 188.297 198.517C188.505 198.926 188.795 199.239 189.166 199.455C189.537 199.667 189.971 199.773 190.467 199.773C190.789 199.773 191.083 199.727 191.348 199.636C191.613 199.542 191.842 199.402 192.036 199.216C192.229 199.03 192.376 198.801 192.479 198.528L194.087 198.818C193.958 199.292 193.727 199.706 193.393 200.062C193.064 200.415 192.649 200.689 192.149 200.886C191.653 201.08 191.087 201.176 190.45 201.176ZM202.619 194.403L201.08 194.676C201.015 194.479 200.913 194.292 200.773 194.114C200.636 193.936 200.451 193.79 200.216 193.676C199.981 193.562 199.688 193.506 199.335 193.506C198.854 193.506 198.453 193.614 198.131 193.83C197.809 194.042 197.648 194.316 197.648 194.653C197.648 194.945 197.756 195.18 197.972 195.358C198.188 195.536 198.536 195.682 199.017 195.795L200.403 196.114C201.206 196.299 201.805 196.585 202.199 196.972C202.593 197.358 202.79 197.86 202.79 198.477C202.79 199 202.638 199.466 202.335 199.875C202.036 200.28 201.617 200.598 201.08 200.83C200.545 201.061 199.926 201.176 199.222 201.176C198.244 201.176 197.447 200.968 196.83 200.551C196.212 200.131 195.833 199.534 195.693 198.761L197.335 198.511C197.438 198.939 197.648 199.263 197.966 199.483C198.284 199.699 198.699 199.807 199.21 199.807C199.767 199.807 200.212 199.691 200.545 199.46C200.879 199.225 201.045 198.939 201.045 198.602C201.045 198.33 200.943 198.1 200.739 197.915C200.538 197.729 200.229 197.589 199.812 197.494L198.335 197.17C197.521 196.985 196.919 196.689 196.528 196.284C196.142 195.879 195.949 195.366 195.949 194.744C195.949 194.229 196.093 193.778 196.381 193.392C196.669 193.006 197.066 192.705 197.574 192.489C198.081 192.269 198.663 192.159 199.318 192.159C200.261 192.159 201.004 192.364 201.545 192.773C202.087 193.178 202.445 193.722 202.619 194.403ZM211.197 194.403L209.658 194.676C209.593 194.479 209.491 194.292 209.351 194.114C209.214 193.936 209.029 193.79 208.794 193.676C208.559 193.562 208.266 193.506 207.913 193.506C207.432 193.506 207.031 193.614 206.709 193.83C206.387 194.042 206.226 194.316 206.226 194.653C206.226 194.945 206.334 195.18 206.55 195.358C206.766 195.536 207.114 195.682 207.595 195.795L208.982 196.114C209.785 196.299 210.383 196.585 210.777 196.972C211.171 197.358 211.368 197.86 211.368 198.477C211.368 199 211.216 199.466 210.913 199.875C210.614 200.28 210.196 200.598 209.658 200.83C209.124 201.061 208.504 201.176 207.8 201.176C206.822 201.176 206.025 200.968 205.408 200.551C204.79 200.131 204.411 199.534 204.271 198.761L205.913 198.511C206.016 198.939 206.226 199.263 206.544 199.483C206.862 199.699 207.277 199.807 207.788 199.807C208.345 199.807 208.79 199.691 209.124 199.46C209.457 199.225 209.624 198.939 209.624 198.602C209.624 198.33 209.521 198.1 209.317 197.915C209.116 197.729 208.807 197.589 208.391 197.494L206.913 197.17C206.099 196.985 205.497 196.689 205.107 196.284C204.72 195.879 204.527 195.366 204.527 194.744C204.527 194.229 204.671 193.778 204.959 193.392C205.247 193.006 205.644 192.705 206.152 192.489C206.66 192.269 207.241 192.159 207.896 192.159C208.839 192.159 209.582 192.364 210.124 192.773C210.665 193.178 211.023 193.722 211.197 194.403Z" fill="#F55129"/>
<rect x="71" y="216" width="458" height="48" rx="24" fill="white" stroke="#F8481D" stroke-width="2"/>
<rect x="190" y="315" width="198" height="50" rx="25" fill="#252E9E"/>
<path d="M263.877 336.638C263.821 336.065 263.577 335.62 263.146 335.303C262.715 334.985 262.13 334.827 261.392 334.827C260.89 334.827 260.466 334.898 260.12 335.04C259.775 335.177 259.51 335.369 259.325 335.615C259.145 335.861 259.055 336.141 259.055 336.453C259.046 336.714 259.1 336.941 259.218 337.135C259.342 337.329 259.51 337.497 259.723 337.639C259.936 337.777 260.182 337.897 260.461 338.001C260.741 338.101 261.039 338.186 261.356 338.257L262.663 338.57C263.297 338.712 263.88 338.901 264.41 339.138C264.94 339.375 265.4 339.666 265.788 340.011C266.176 340.357 266.477 340.764 266.69 341.233C266.908 341.702 267.019 342.239 267.024 342.845C267.019 343.735 266.792 344.507 266.342 345.161C265.897 345.809 265.253 346.313 264.41 346.673C263.572 347.028 262.561 347.206 261.377 347.206C260.203 347.206 259.181 347.026 258.309 346.666C257.443 346.306 256.766 345.774 256.278 345.068C255.795 344.358 255.542 343.48 255.518 342.433H258.494C258.527 342.921 258.667 343.328 258.913 343.655C259.164 343.977 259.498 344.221 259.914 344.386C260.336 344.547 260.812 344.628 261.342 344.628C261.863 344.628 262.315 344.552 262.699 344.401C263.087 344.249 263.387 344.038 263.6 343.768C263.814 343.499 263.92 343.188 263.92 342.838C263.92 342.511 263.823 342.237 263.629 342.014C263.44 341.792 263.16 341.602 262.791 341.446C262.426 341.29 261.979 341.148 261.449 341.02L259.865 340.622C258.638 340.324 257.67 339.857 256.96 339.223C256.25 338.589 255.897 337.734 255.902 336.659C255.897 335.778 256.131 335.009 256.605 334.351C257.083 333.693 257.739 333.179 258.572 332.81C259.405 332.44 260.352 332.256 261.413 332.256C262.493 332.256 263.435 332.44 264.24 332.81C265.049 333.179 265.679 333.693 266.129 334.351C266.579 335.009 266.811 335.771 266.825 336.638H263.877ZM274.007 347.213C272.885 347.213 271.919 346.986 271.109 346.531C270.304 346.072 269.684 345.423 269.249 344.585C268.813 343.742 268.595 342.746 268.595 341.595C268.595 340.473 268.813 339.488 269.249 338.641C269.684 337.793 270.297 337.133 271.088 336.659C271.884 336.186 272.816 335.949 273.886 335.949C274.606 335.949 275.276 336.065 275.896 336.297C276.521 336.524 277.066 336.867 277.53 337.327C277.999 337.786 278.363 338.364 278.624 339.06C278.884 339.751 279.014 340.561 279.014 341.489V342.32H269.803V340.445H276.166C276.166 340.009 276.071 339.623 275.882 339.287C275.693 338.951 275.43 338.688 275.094 338.499C274.762 338.304 274.376 338.207 273.936 338.207C273.477 338.207 273.07 338.314 272.714 338.527C272.364 338.735 272.089 339.017 271.891 339.372C271.692 339.723 271.59 340.113 271.585 340.544V342.327C271.585 342.866 271.685 343.333 271.884 343.726C272.087 344.119 272.374 344.422 272.743 344.635C273.112 344.848 273.55 344.955 274.057 344.955C274.393 344.955 274.701 344.907 274.98 344.812C275.259 344.718 275.499 344.576 275.697 344.386C275.896 344.197 276.048 343.965 276.152 343.69L278.95 343.875C278.808 344.547 278.517 345.134 278.077 345.636C277.641 346.134 277.078 346.522 276.386 346.801C275.7 347.076 274.907 347.213 274.007 347.213ZM284.099 347.206C283.403 347.206 282.783 347.085 282.239 346.844C281.694 346.598 281.263 346.235 280.946 345.757C280.634 345.274 280.477 344.673 280.477 343.953C280.477 343.347 280.589 342.838 280.811 342.426C281.034 342.014 281.337 341.683 281.72 341.432C282.104 341.181 282.539 340.991 283.027 340.864C283.519 340.736 284.036 340.646 284.575 340.594C285.21 340.527 285.721 340.466 286.109 340.409C286.498 340.348 286.779 340.258 286.955 340.139C287.13 340.021 287.217 339.846 287.217 339.614V339.571C287.217 339.121 287.075 338.773 286.791 338.527C286.512 338.281 286.114 338.158 285.598 338.158C285.054 338.158 284.62 338.278 284.298 338.52C283.976 338.757 283.763 339.055 283.659 339.415L280.861 339.188C281.003 338.525 281.282 337.952 281.699 337.469C282.116 336.981 282.653 336.607 283.311 336.347C283.974 336.081 284.741 335.949 285.612 335.949C286.218 335.949 286.798 336.02 287.352 336.162C287.911 336.304 288.406 336.524 288.837 336.822C289.272 337.121 289.616 337.504 289.866 337.973C290.117 338.437 290.243 338.993 290.243 339.642V347H287.374V345.487H287.288C287.113 345.828 286.879 346.129 286.585 346.389C286.292 346.645 285.939 346.846 285.527 346.993C285.115 347.135 284.639 347.206 284.099 347.206ZM284.966 345.118C285.411 345.118 285.804 345.03 286.145 344.855C286.486 344.675 286.753 344.434 286.947 344.131C287.142 343.828 287.239 343.484 287.239 343.101V341.943C287.144 342.005 287.014 342.062 286.848 342.114C286.687 342.161 286.505 342.206 286.301 342.249C286.098 342.286 285.894 342.322 285.69 342.355C285.487 342.384 285.302 342.41 285.136 342.433C284.781 342.485 284.471 342.568 284.206 342.682C283.941 342.795 283.735 342.949 283.588 343.143C283.441 343.333 283.368 343.57 283.368 343.854C283.368 344.266 283.517 344.58 283.815 344.798C284.118 345.011 284.502 345.118 284.966 345.118ZM292.59 347V336.091H295.523V337.994H295.637C295.836 337.317 296.17 336.806 296.638 336.46C297.107 336.11 297.647 335.935 298.258 335.935C298.409 335.935 298.573 335.944 298.748 335.963C298.923 335.982 299.077 336.008 299.21 336.041V338.726C299.067 338.683 298.871 338.645 298.62 338.612C298.369 338.579 298.139 338.562 297.931 338.562C297.486 338.562 297.088 338.66 296.738 338.854C296.392 339.043 296.118 339.308 295.914 339.649C295.715 339.99 295.616 340.383 295.616 340.828V347H292.59ZM305.195 347.213C304.078 347.213 303.116 346.976 302.311 346.503C301.511 346.025 300.896 345.362 300.465 344.514C300.039 343.667 299.826 342.691 299.826 341.588C299.826 340.471 300.041 339.491 300.472 338.648C300.908 337.8 301.525 337.14 302.326 336.666C303.126 336.188 304.078 335.949 305.181 335.949C306.132 335.949 306.966 336.122 307.681 336.467C308.396 336.813 308.962 337.298 309.378 337.923C309.795 338.548 310.025 339.282 310.067 340.125H307.212C307.132 339.58 306.918 339.143 306.573 338.811C306.232 338.475 305.784 338.307 305.23 338.307C304.762 338.307 304.352 338.435 304.002 338.69C303.656 338.941 303.386 339.308 303.192 339.791C302.998 340.274 302.901 340.859 302.901 341.545C302.901 342.241 302.996 342.833 303.185 343.321C303.379 343.809 303.651 344.18 304.002 344.436C304.352 344.692 304.762 344.82 305.23 344.82C305.576 344.82 305.886 344.749 306.161 344.607C306.44 344.464 306.67 344.259 306.85 343.989C307.034 343.714 307.155 343.385 307.212 343.001H310.067C310.02 343.835 309.792 344.569 309.385 345.203C308.983 345.833 308.426 346.325 307.716 346.68C307.006 347.036 306.166 347.213 305.195 347.213ZM315.03 340.693V347H312.004V332.455H314.945V338.016H315.072C315.319 337.372 315.716 336.867 316.266 336.503C316.815 336.134 317.504 335.949 318.332 335.949C319.09 335.949 319.75 336.115 320.314 336.446C320.882 336.773 321.322 337.244 321.635 337.859C321.952 338.47 322.108 339.202 322.104 340.054V347H319.078V340.594C319.083 339.921 318.912 339.398 318.567 339.024C318.226 338.65 317.748 338.463 317.132 338.463C316.72 338.463 316.356 338.551 316.038 338.726C315.726 338.901 315.48 339.157 315.3 339.493C315.125 339.824 315.035 340.224 315.03 340.693Z" fill="#EFEBEB"/>
<path d="M95.0788 234.818V245H93.8459V236.111H93.7862L91.3004 237.761V236.509L93.8459 234.818H95.0788ZM98.0071 245V244.105L101.368 240.426C101.762 239.995 102.087 239.621 102.342 239.303C102.598 238.981 102.786 238.679 102.909 238.398C103.035 238.113 103.098 237.814 103.098 237.503C103.098 237.145 103.012 236.835 102.839 236.573C102.67 236.311 102.438 236.109 102.143 235.967C101.848 235.824 101.517 235.753 101.149 235.753C100.758 235.753 100.417 235.834 100.125 235.996C99.8366 236.156 99.6129 236.379 99.4538 236.668C99.2981 236.956 99.2202 237.294 99.2202 237.682H98.0469C98.0469 237.085 98.1844 236.562 98.4595 236.111C98.7346 235.66 99.1091 235.309 99.5831 235.057C100.06 234.805 100.596 234.679 101.189 234.679C101.786 234.679 102.314 234.805 102.775 235.057C103.236 235.309 103.597 235.648 103.859 236.076C104.121 236.504 104.251 236.979 104.251 237.503C104.251 237.877 104.183 238.244 104.048 238.602C103.915 238.956 103.683 239.352 103.352 239.79C103.023 240.224 102.568 240.754 101.984 241.381L99.6974 243.827V243.906H104.43V245H98.0071ZM109.924 245.139C109.268 245.139 108.683 245.027 108.169 244.801C107.659 244.576 107.253 244.263 106.951 243.862C106.653 243.457 106.49 242.988 106.464 242.455H107.717C107.743 242.783 107.856 243.066 108.055 243.305C108.254 243.54 108.514 243.722 108.835 243.852C109.157 243.981 109.513 244.045 109.904 244.045C110.342 244.045 110.729 243.969 111.067 243.817C111.406 243.664 111.671 243.452 111.863 243.18C112.055 242.909 112.151 242.594 112.151 242.236C112.151 241.861 112.058 241.531 111.873 241.246C111.687 240.958 111.415 240.733 111.058 240.57C110.7 240.408 110.262 240.327 109.745 240.327H108.93V239.233H109.745C110.149 239.233 110.504 239.16 110.809 239.014C111.117 238.868 111.357 238.663 111.53 238.398C111.705 238.133 111.793 237.821 111.793 237.463C111.793 237.118 111.717 236.818 111.565 236.563C111.412 236.308 111.197 236.109 110.918 235.967C110.643 235.824 110.318 235.753 109.944 235.753C109.593 235.753 109.261 235.817 108.95 235.947C108.641 236.073 108.389 236.257 108.194 236.499C107.998 236.737 107.892 237.026 107.876 237.364H106.683C106.702 236.83 106.863 236.363 107.165 235.962C107.466 235.557 107.861 235.242 108.348 235.017C108.839 234.792 109.377 234.679 109.964 234.679C110.594 234.679 111.134 234.807 111.585 235.062C112.035 235.314 112.382 235.647 112.624 236.061C112.866 236.475 112.987 236.923 112.987 237.403C112.987 237.977 112.836 238.466 112.534 238.87C112.236 239.274 111.83 239.554 111.316 239.71V239.79C111.959 239.896 112.461 240.169 112.822 240.61C113.184 241.048 113.364 241.589 113.364 242.236C113.364 242.789 113.214 243.286 112.912 243.727C112.614 244.165 112.206 244.509 111.689 244.761C111.172 245.013 110.584 245.139 109.924 245.139ZM115.159 242.912V241.898L119.634 234.818H120.369V236.389H119.872L116.491 241.739V241.818H122.517V242.912H115.159ZM119.952 245V242.604V242.131V234.818H121.125V245H119.952ZM136.69 238H135.457C135.384 237.645 135.256 237.334 135.074 237.065C134.895 236.797 134.676 236.571 134.418 236.389C134.163 236.204 133.879 236.064 133.568 235.972C133.256 235.879 132.931 235.832 132.593 235.832C131.977 235.832 131.418 235.988 130.918 236.3C130.421 236.611 130.025 237.07 129.73 237.677C129.438 238.283 129.292 239.027 129.292 239.909C129.292 240.791 129.438 241.535 129.73 242.141C130.025 242.748 130.421 243.207 130.918 243.518C131.418 243.83 131.977 243.986 132.593 243.986C132.931 243.986 133.256 243.939 133.568 243.847C133.879 243.754 134.163 243.616 134.418 243.434C134.676 243.248 134.895 243.021 135.074 242.753C135.256 242.481 135.384 242.17 135.457 241.818H136.69C136.597 242.339 136.428 242.804 136.183 243.215C135.937 243.626 135.633 243.976 135.268 244.264C134.903 244.549 134.494 244.766 134.04 244.915C133.589 245.065 133.107 245.139 132.593 245.139C131.725 245.139 130.953 244.927 130.276 244.503C129.6 244.079 129.068 243.475 128.681 242.693C128.293 241.911 128.099 240.983 128.099 239.909C128.099 238.835 128.293 237.907 128.681 237.125C129.068 236.343 129.6 235.74 130.276 235.315C130.953 234.891 131.725 234.679 132.593 234.679C133.107 234.679 133.589 234.754 134.04 234.903C134.494 235.052 134.903 235.271 135.268 235.559C135.633 235.844 135.937 236.192 136.183 236.603C136.428 237.011 136.597 237.476 136.69 238ZM143.336 241.878V237.364H144.509V245H143.336V243.707H143.256C143.077 244.095 142.799 244.425 142.421 244.697C142.043 244.965 141.566 245.099 140.989 245.099C140.512 245.099 140.087 244.995 139.716 244.786C139.345 244.574 139.053 244.256 138.841 243.832C138.629 243.404 138.523 242.866 138.523 242.216V237.364H139.696V242.136C139.696 242.693 139.852 243.137 140.164 243.469C140.479 243.8 140.88 243.966 141.367 243.966C141.658 243.966 141.955 243.891 142.257 243.742C142.562 243.593 142.817 243.364 143.022 243.056C143.231 242.748 143.336 242.355 143.336 241.878ZM147.831 234.818V245H146.658V234.818H147.831ZM156.224 237.364L153.401 245H152.207L149.384 237.364H150.656L152.764 243.449H152.844L154.952 237.364H156.224ZM160.701 245.159C159.966 245.159 159.331 244.997 158.797 244.672C158.267 244.344 157.858 243.886 157.569 243.3C157.284 242.71 157.142 242.024 157.142 241.241C157.142 240.459 157.284 239.77 157.569 239.173C157.858 238.573 158.259 238.106 158.772 237.771C159.289 237.433 159.893 237.264 160.582 237.264C160.98 237.264 161.373 237.33 161.76 237.463C162.148 237.596 162.501 237.811 162.819 238.109C163.137 238.404 163.391 238.795 163.58 239.283C163.769 239.77 163.863 240.37 163.863 241.082V241.58H157.977V240.565H162.67C162.67 240.134 162.584 239.75 162.412 239.412C162.243 239.074 162.001 238.807 161.686 238.612C161.374 238.416 161.006 238.318 160.582 238.318C160.115 238.318 159.71 238.434 159.369 238.666C159.031 238.895 158.771 239.193 158.588 239.561C158.406 239.929 158.315 240.323 158.315 240.744V241.42C158.315 241.997 158.414 242.486 158.613 242.887C158.815 243.285 159.096 243.588 159.453 243.797C159.811 244.002 160.227 244.105 160.701 244.105C161.01 244.105 161.288 244.062 161.537 243.976C161.788 243.886 162.006 243.754 162.188 243.578C162.37 243.399 162.511 243.177 162.61 242.912L163.744 243.23C163.625 243.615 163.424 243.953 163.142 244.244C162.861 244.533 162.513 244.758 162.098 244.92C161.684 245.08 161.218 245.159 160.701 245.159ZM165.648 245V237.364H166.782V238.517H166.861C167 238.139 167.252 237.833 167.617 237.597C167.981 237.362 168.392 237.244 168.85 237.244C168.936 237.244 169.044 237.246 169.173 237.249C169.302 237.253 169.4 237.258 169.466 237.264V238.457C169.426 238.447 169.335 238.433 169.193 238.413C169.054 238.389 168.906 238.378 168.75 238.378C168.379 238.378 168.048 238.456 167.756 238.612C167.468 238.764 167.239 238.976 167.07 239.248C166.904 239.516 166.821 239.823 166.821 240.168V245H165.648ZM174.954 245V234.818H178.513C179.223 234.818 179.808 234.941 180.268 235.186C180.729 235.428 181.072 235.754 181.297 236.165C181.523 236.573 181.635 237.026 181.635 237.523C181.635 237.96 181.558 238.321 181.402 238.607C181.249 238.892 181.047 239.117 180.795 239.283C180.547 239.448 180.277 239.571 179.985 239.651V239.75C180.296 239.77 180.61 239.879 180.925 240.078C181.239 240.277 181.503 240.562 181.715 240.933C181.927 241.304 182.033 241.759 182.033 242.295C182.033 242.806 181.917 243.265 181.685 243.673C181.453 244.08 181.087 244.403 180.586 244.642C180.086 244.881 179.435 245 178.633 245H174.954ZM176.187 243.906H178.633C179.438 243.906 180.01 243.75 180.348 243.439C180.689 243.124 180.86 242.743 180.86 242.295C180.86 241.951 180.772 241.633 180.596 241.341C180.421 241.046 180.171 240.811 179.846 240.635C179.521 240.456 179.136 240.366 178.692 240.366H176.187V243.906ZM176.187 239.293H178.474C178.845 239.293 179.18 239.22 179.478 239.074C179.779 238.928 180.018 238.723 180.194 238.457C180.373 238.192 180.462 237.881 180.462 237.523C180.462 237.075 180.306 236.696 179.995 236.384C179.683 236.069 179.189 235.912 178.513 235.912H176.187V239.293ZM187.002 245.159C186.313 245.159 185.708 244.995 185.188 244.667C184.671 244.339 184.266 243.88 183.975 243.29C183.686 242.7 183.542 242.01 183.542 241.222C183.542 240.426 183.686 239.732 183.975 239.138C184.266 238.545 184.671 238.085 185.188 237.756C185.708 237.428 186.313 237.264 187.002 237.264C187.692 237.264 188.295 237.428 188.812 237.756C189.332 238.085 189.737 238.545 190.025 239.138C190.317 239.732 190.463 240.426 190.463 241.222C190.463 242.01 190.317 242.7 190.025 243.29C189.737 243.88 189.332 244.339 188.812 244.667C188.295 244.995 187.692 245.159 187.002 245.159ZM187.002 244.105C187.526 244.105 187.957 243.971 188.295 243.702C188.633 243.434 188.883 243.081 189.046 242.643C189.208 242.206 189.289 241.732 189.289 241.222C189.289 240.711 189.208 240.236 189.046 239.795C188.883 239.354 188.633 238.998 188.295 238.726C187.957 238.454 187.526 238.318 187.002 238.318C186.479 238.318 186.048 238.454 185.71 238.726C185.372 238.998 185.121 239.354 184.959 239.795C184.797 240.236 184.715 240.711 184.715 241.222C184.715 241.732 184.797 242.206 184.959 242.643C185.121 243.081 185.372 243.434 185.71 243.702C186.048 243.971 186.479 244.105 187.002 244.105ZM197.066 241.878V237.364H198.239V245H197.066V243.707H196.987C196.808 244.095 196.529 244.425 196.151 244.697C195.773 244.965 195.296 245.099 194.719 245.099C194.242 245.099 193.818 244.995 193.447 244.786C193.076 244.574 192.784 244.256 192.572 243.832C192.36 243.404 192.254 242.866 192.254 242.216V237.364H193.427V242.136C193.427 242.693 193.583 243.137 193.894 243.469C194.209 243.8 194.61 243.966 195.097 243.966C195.389 243.966 195.686 243.891 195.987 243.742C196.292 243.593 196.547 243.364 196.753 243.056C196.962 242.748 197.066 242.355 197.066 241.878ZM201.562 234.818V245H200.388V234.818H201.562ZM206.912 245.159C206.176 245.159 205.542 244.997 205.008 244.672C204.478 244.344 204.069 243.886 203.78 243.3C203.495 242.71 203.353 242.024 203.353 241.241C203.353 240.459 203.495 239.77 203.78 239.173C204.069 238.573 204.47 238.106 204.983 237.771C205.5 237.433 206.104 237.264 206.793 237.264C207.191 237.264 207.583 237.33 207.971 237.463C208.359 237.596 208.712 237.811 209.03 238.109C209.348 238.404 209.602 238.795 209.791 239.283C209.98 239.77 210.074 240.37 210.074 241.082V241.58H204.188V240.565H208.881C208.881 240.134 208.795 239.75 208.623 239.412C208.453 239.074 208.212 238.807 207.897 238.612C207.585 238.416 207.217 238.318 206.793 238.318C206.326 238.318 205.921 238.434 205.58 238.666C205.242 238.895 204.982 239.193 204.799 239.561C204.617 239.929 204.526 240.323 204.526 240.744V241.42C204.526 241.997 204.625 242.486 204.824 242.887C205.026 243.285 205.306 243.588 205.664 243.797C206.022 244.002 206.438 244.105 206.912 244.105C207.221 244.105 207.499 244.062 207.748 243.976C207.999 243.886 208.217 243.754 208.399 243.578C208.581 243.399 208.722 243.177 208.821 242.912L209.955 243.23C209.836 243.615 209.635 243.953 209.353 244.244C209.072 244.533 208.724 244.758 208.309 244.92C207.895 245.08 207.429 245.159 206.912 245.159ZM217.871 237.364L215.047 245H213.854L211.03 237.364H212.303L214.411 243.449H214.49L216.598 237.364H217.871ZM221.434 245.179C220.95 245.179 220.511 245.088 220.117 244.906C219.722 244.72 219.409 244.453 219.177 244.105C218.945 243.754 218.829 243.33 218.829 242.832C218.829 242.395 218.915 242.04 219.088 241.768C219.26 241.493 219.49 241.278 219.779 241.122C220.067 240.966 220.385 240.85 220.733 240.774C221.085 240.695 221.438 240.632 221.792 240.585C222.256 240.526 222.632 240.481 222.921 240.451C223.212 240.418 223.425 240.363 223.557 240.287C223.693 240.211 223.761 240.078 223.761 239.889V239.849C223.761 239.359 223.627 238.978 223.358 238.706C223.093 238.434 222.69 238.298 222.15 238.298C221.59 238.298 221.151 238.421 220.833 238.666C220.515 238.911 220.291 239.173 220.162 239.452L219.048 239.054C219.247 238.59 219.512 238.229 219.843 237.97C220.178 237.708 220.543 237.526 220.937 237.423C221.335 237.317 221.726 237.264 222.11 237.264C222.356 237.264 222.637 237.294 222.956 237.354C223.277 237.41 223.587 237.528 223.885 237.707C224.187 237.886 224.437 238.156 224.636 238.517C224.835 238.878 224.934 239.362 224.934 239.969V245H223.761V243.966H223.701C223.622 244.132 223.489 244.309 223.304 244.498C223.118 244.687 222.871 244.848 222.563 244.98C222.255 245.113 221.878 245.179 221.434 245.179ZM221.613 244.125C222.077 244.125 222.468 244.034 222.787 243.852C223.108 243.669 223.35 243.434 223.512 243.146C223.678 242.857 223.761 242.554 223.761 242.236V241.162C223.711 241.222 223.602 241.276 223.433 241.326C223.267 241.372 223.075 241.414 222.856 241.45C222.641 241.483 222.43 241.513 222.225 241.54C222.023 241.563 221.859 241.583 221.733 241.599C221.428 241.639 221.143 241.704 220.877 241.793C220.616 241.879 220.404 242.01 220.241 242.186C220.082 242.358 220.002 242.594 220.002 242.892C220.002 243.3 220.153 243.608 220.455 243.817C220.76 244.022 221.146 244.125 221.613 244.125ZM227.076 245V237.364H228.209V238.517H228.289C228.428 238.139 228.68 237.833 229.045 237.597C229.409 237.362 229.82 237.244 230.278 237.244C230.364 237.244 230.471 237.246 230.601 237.249C230.73 237.253 230.828 237.258 230.894 237.264V238.457C230.854 238.447 230.763 238.433 230.621 238.413C230.481 238.389 230.334 238.378 230.178 238.378C229.807 238.378 229.475 238.456 229.184 238.612C228.895 238.764 228.667 238.976 228.498 239.248C228.332 239.516 228.249 239.823 228.249 240.168V245H227.076ZM234.936 245.159C234.3 245.159 233.738 244.998 233.251 244.677C232.763 244.352 232.382 243.895 232.107 243.305C231.832 242.711 231.694 242.01 231.694 241.202C231.694 240.4 231.832 239.704 232.107 239.114C232.382 238.524 232.765 238.068 233.256 237.746C233.746 237.425 234.313 237.264 234.956 237.264C235.453 237.264 235.846 237.347 236.134 237.513C236.426 237.675 236.648 237.861 236.8 238.07C236.956 238.275 237.077 238.444 237.163 238.577H237.263V234.818H238.436V245H237.302V243.827H237.163C237.077 243.966 236.954 244.142 236.795 244.354C236.636 244.562 236.409 244.75 236.114 244.915C235.819 245.078 235.426 245.159 234.936 245.159ZM235.095 244.105C235.566 244.105 235.963 243.982 236.288 243.737C236.613 243.489 236.86 243.146 237.029 242.708C237.198 242.267 237.282 241.759 237.282 241.182C237.282 240.612 237.2 240.113 237.034 239.685C236.868 239.254 236.623 238.92 236.298 238.681C235.973 238.439 235.572 238.318 235.095 238.318C234.598 238.318 234.184 238.446 233.852 238.701C233.524 238.953 233.277 239.296 233.111 239.73C232.949 240.161 232.868 240.645 232.868 241.182C232.868 241.725 232.951 242.219 233.116 242.663C233.285 243.104 233.534 243.455 233.862 243.717C234.193 243.976 234.604 244.105 235.095 244.105ZM242.498 243.608L242.418 244.145C242.362 244.523 242.276 244.927 242.16 245.358C242.047 245.789 241.929 246.195 241.807 246.576C241.684 246.957 241.583 247.26 241.503 247.486H240.608C240.652 247.274 240.708 246.994 240.778 246.646C240.847 246.298 240.917 245.908 240.986 245.477C241.059 245.05 241.119 244.612 241.165 244.165L241.225 243.608H242.498ZM248.768 245V234.818H250.001V243.906H254.734V245H248.768ZM259.586 245.159C258.897 245.159 258.292 244.995 257.772 244.667C257.255 244.339 256.85 243.88 256.559 243.29C256.27 242.7 256.126 242.01 256.126 241.222C256.126 240.426 256.27 239.732 256.559 239.138C256.85 238.545 257.255 238.085 257.772 237.756C258.292 237.428 258.897 237.264 259.586 237.264C260.276 237.264 260.879 237.428 261.396 237.756C261.916 238.085 262.321 238.545 262.609 239.138C262.901 239.732 263.047 240.426 263.047 241.222C263.047 242.01 262.901 242.7 262.609 243.29C262.321 243.88 261.916 244.339 261.396 244.667C260.879 244.995 260.276 245.159 259.586 245.159ZM259.586 244.105C260.11 244.105 260.541 243.971 260.879 243.702C261.217 243.434 261.467 243.081 261.63 242.643C261.792 242.206 261.873 241.732 261.873 241.222C261.873 240.711 261.792 240.236 261.63 239.795C261.467 239.354 261.217 238.998 260.879 238.726C260.541 238.454 260.11 238.318 259.586 238.318C259.063 238.318 258.632 238.454 258.294 238.726C257.956 238.998 257.705 239.354 257.543 239.795C257.381 240.236 257.299 240.711 257.299 241.222C257.299 241.732 257.381 242.206 257.543 242.643C257.705 243.081 257.956 243.434 258.294 243.702C258.632 243.971 259.063 244.105 259.586 244.105ZM270.247 239.074L269.193 239.372C269.126 239.196 269.029 239.026 268.899 238.86C268.773 238.691 268.601 238.552 268.382 238.442C268.164 238.333 267.883 238.278 267.542 238.278C267.075 238.278 266.685 238.386 266.374 238.602C266.066 238.814 265.911 239.084 265.911 239.412C265.911 239.704 266.017 239.934 266.23 240.103C266.442 240.272 266.773 240.413 267.224 240.526L268.357 240.804C269.04 240.97 269.549 241.223 269.884 241.565C270.218 241.903 270.386 242.339 270.386 242.872C270.386 243.31 270.26 243.701 270.008 244.045C269.759 244.39 269.411 244.662 268.964 244.861C268.517 245.06 267.996 245.159 267.403 245.159C266.624 245.159 265.979 244.99 265.469 244.652C264.959 244.314 264.635 243.82 264.499 243.17L265.613 242.892C265.719 243.303 265.92 243.611 266.215 243.817C266.513 244.022 266.902 244.125 267.383 244.125C267.93 244.125 268.364 244.009 268.686 243.777C269.01 243.542 269.173 243.26 269.173 242.932C269.173 242.667 269.08 242.445 268.894 242.266C268.709 242.083 268.424 241.947 268.039 241.858L266.767 241.56C266.067 241.394 265.553 241.137 265.225 240.789C264.901 240.438 264.738 239.999 264.738 239.472C264.738 239.041 264.859 238.66 265.101 238.328C265.346 237.997 265.679 237.737 266.1 237.548C266.525 237.359 267.005 237.264 267.542 237.264C268.298 237.264 268.891 237.43 269.322 237.761C269.756 238.093 270.064 238.53 270.247 239.074ZM276.666 245H275.374L279.112 234.818H280.385L284.124 245H282.831L279.788 236.429H279.709L276.666 245ZM277.143 241.023H282.354V242.116H277.143V241.023ZM286.724 240.406V245H285.55V237.364H286.684V238.557H286.783C286.962 238.169 287.234 237.857 287.599 237.622C287.963 237.384 288.434 237.264 289.011 237.264C289.528 237.264 289.98 237.37 290.368 237.582C290.756 237.791 291.057 238.109 291.273 238.537C291.488 238.961 291.596 239.498 291.596 240.148V245H290.423V240.227C290.423 239.627 290.267 239.16 289.955 238.825C289.644 238.487 289.216 238.318 288.673 238.318C288.298 238.318 287.963 238.399 287.668 238.562C287.377 238.724 287.146 238.961 286.977 239.273C286.808 239.584 286.724 239.962 286.724 240.406ZM296.822 248.023C296.256 248.023 295.768 247.95 295.361 247.804C294.953 247.661 294.613 247.473 294.341 247.237C294.073 247.005 293.859 246.757 293.7 246.491L294.635 245.835C294.741 245.974 294.875 246.134 295.037 246.312C295.2 246.495 295.422 246.652 295.704 246.785C295.989 246.921 296.362 246.989 296.822 246.989C297.439 246.989 297.948 246.839 298.349 246.541C298.75 246.243 298.95 245.776 298.95 245.139V243.588H298.851C298.765 243.727 298.642 243.9 298.483 244.105C298.327 244.307 298.102 244.488 297.807 244.647C297.515 244.803 297.121 244.881 296.623 244.881C296.007 244.881 295.453 244.735 294.963 244.443C294.476 244.152 294.09 243.727 293.805 243.17C293.523 242.614 293.382 241.937 293.382 241.142C293.382 240.36 293.519 239.679 293.795 239.099C294.07 238.515 294.452 238.065 294.943 237.746C295.434 237.425 296 237.264 296.643 237.264C297.14 237.264 297.535 237.347 297.827 237.513C298.122 237.675 298.347 237.861 298.503 238.07C298.662 238.275 298.784 238.444 298.871 238.577H298.99V237.364H300.123V245.219C300.123 245.875 299.974 246.409 299.676 246.82C299.381 247.234 298.983 247.537 298.483 247.729C297.986 247.925 297.432 248.023 296.822 248.023ZM296.782 243.827C297.253 243.827 297.651 243.719 297.976 243.504C298.3 243.288 298.547 242.978 298.716 242.574C298.885 242.17 298.97 241.686 298.97 241.122C298.97 240.572 298.887 240.086 298.721 239.665C298.556 239.245 298.31 238.915 297.986 238.676C297.661 238.437 297.26 238.318 296.782 238.318C296.285 238.318 295.871 238.444 295.54 238.696C295.211 238.948 294.965 239.286 294.799 239.71C294.636 240.134 294.555 240.605 294.555 241.122C294.555 241.652 294.638 242.121 294.804 242.529C294.973 242.933 295.221 243.252 295.55 243.484C295.881 243.712 296.292 243.827 296.782 243.827ZM305.473 245.159C304.737 245.159 304.102 244.997 303.569 244.672C303.038 244.344 302.629 243.886 302.341 243.3C302.056 242.71 301.913 242.024 301.913 241.241C301.913 240.459 302.056 239.77 302.341 239.173C302.629 238.573 303.03 238.106 303.544 237.771C304.061 237.433 304.664 237.264 305.354 237.264C305.751 237.264 306.144 237.33 306.532 237.463C306.92 237.596 307.273 237.811 307.591 238.109C307.909 238.404 308.162 238.795 308.351 239.283C308.54 239.77 308.635 240.37 308.635 241.082V241.58H302.748V240.565H307.442C307.442 240.134 307.355 239.75 307.183 239.412C307.014 239.074 306.772 238.807 306.457 238.612C306.146 238.416 305.778 238.318 305.354 238.318C304.886 238.318 304.482 238.434 304.14 238.666C303.802 238.895 303.542 239.193 303.36 239.561C303.178 239.929 303.086 240.323 303.086 240.744V241.42C303.086 241.997 303.186 242.486 303.385 242.887C303.587 243.285 303.867 243.588 304.225 243.797C304.583 244.002 304.999 244.105 305.473 244.105C305.781 244.105 306.059 244.062 306.308 243.976C306.56 243.886 306.777 243.754 306.959 243.578C307.142 243.399 307.282 243.177 307.382 242.912L308.515 243.23C308.396 243.615 308.196 243.953 307.914 244.244C307.632 244.533 307.284 244.758 306.87 244.92C306.456 245.08 305.99 245.159 305.473 245.159ZM311.593 234.818V245H310.42V234.818H311.593ZM316.944 245.159C316.208 245.159 315.573 244.997 315.039 244.672C314.509 244.344 314.1 243.886 313.811 243.3C313.526 242.71 313.384 242.024 313.384 241.241C313.384 240.459 313.526 239.77 313.811 239.173C314.1 238.573 314.501 238.106 315.015 237.771C315.532 237.433 316.135 237.264 316.824 237.264C317.222 237.264 317.615 237.33 318.002 237.463C318.39 237.596 318.743 237.811 319.061 238.109C319.38 238.404 319.633 238.795 319.822 239.283C320.011 239.77 320.105 240.37 320.105 241.082V241.58H314.219V240.565H318.912C318.912 240.134 318.826 239.75 318.654 239.412C318.485 239.074 318.243 238.807 317.928 238.612C317.616 238.416 317.248 238.318 316.824 238.318C316.357 238.318 315.953 238.434 315.611 238.666C315.273 238.895 315.013 239.193 314.831 239.561C314.648 239.929 314.557 240.323 314.557 240.744V241.42C314.557 241.997 314.657 242.486 314.855 242.887C315.058 243.285 315.338 243.588 315.696 243.797C316.054 244.002 316.47 244.105 316.944 244.105C317.252 244.105 317.53 244.062 317.779 243.976C318.031 243.886 318.248 243.754 318.43 243.578C318.612 243.399 318.753 243.177 318.853 242.912L319.986 243.23C319.867 243.615 319.666 243.953 319.385 244.244C319.103 244.533 318.755 244.758 318.341 244.92C317.926 245.08 317.461 245.159 316.944 245.159ZM327.299 239.074L326.245 239.372C326.179 239.196 326.081 239.026 325.952 238.86C325.826 238.691 325.654 238.552 325.435 238.442C325.216 238.333 324.936 238.278 324.595 238.278C324.127 238.278 323.738 238.386 323.426 238.602C323.118 238.814 322.964 239.084 322.964 239.412C322.964 239.704 323.07 239.934 323.282 240.103C323.494 240.272 323.826 240.413 324.277 240.526L325.41 240.804C326.093 240.97 326.602 241.223 326.936 241.565C327.271 241.903 327.439 242.339 327.439 242.872C327.439 243.31 327.313 243.701 327.061 244.045C326.812 244.39 326.464 244.662 326.017 244.861C325.569 245.06 325.049 245.159 324.456 245.159C323.677 245.159 323.032 244.99 322.522 244.652C322.011 244.314 321.688 243.82 321.552 243.17L322.666 242.892C322.772 243.303 322.972 243.611 323.267 243.817C323.566 244.022 323.955 244.125 324.436 244.125C324.983 244.125 325.417 244.009 325.738 243.777C326.063 243.542 326.225 243.26 326.225 242.932C326.225 242.667 326.133 242.445 325.947 242.266C325.761 242.083 325.476 241.947 325.092 241.858L323.819 241.56C323.12 241.394 322.606 241.137 322.278 240.789C321.953 240.438 321.791 239.999 321.791 239.472C321.791 239.041 321.912 238.66 322.154 238.328C322.399 237.997 322.732 237.737 323.153 237.548C323.577 237.359 324.058 237.264 324.595 237.264C325.35 237.264 325.944 237.43 326.375 237.761C326.809 238.093 327.117 238.53 327.299 239.074ZM330.06 245.08C329.815 245.08 329.604 244.992 329.428 244.816C329.253 244.64 329.165 244.43 329.165 244.185C329.165 243.939 329.253 243.729 329.428 243.553C329.604 243.378 329.815 243.29 330.06 243.29C330.305 243.29 330.516 243.378 330.691 243.553C330.867 243.729 330.955 243.939 330.955 244.185C330.955 244.347 330.913 244.496 330.83 244.632C330.751 244.768 330.643 244.877 330.507 244.96C330.375 245.04 330.226 245.08 330.06 245.08ZM333.915 245.08C333.67 245.08 333.46 244.992 333.284 244.816C333.108 244.64 333.02 244.43 333.02 244.185C333.02 243.939 333.108 243.729 333.284 243.553C333.46 243.378 333.67 243.29 333.915 243.29C334.161 243.29 334.371 243.378 334.547 243.553C334.722 243.729 334.81 243.939 334.81 244.185C334.81 244.347 334.769 244.496 334.686 244.632C334.606 244.768 334.499 244.877 334.363 244.96C334.23 245.04 334.081 245.08 333.915 245.08ZM337.771 245.08C337.526 245.08 337.315 244.992 337.139 244.816C336.964 244.64 336.876 244.43 336.876 244.185C336.876 243.939 336.964 243.729 337.139 243.553C337.315 243.378 337.526 243.29 337.771 243.29C338.016 243.29 338.227 243.378 338.402 243.553C338.578 243.729 338.666 243.939 338.666 244.185C338.666 244.347 338.624 244.496 338.541 244.632C338.462 244.768 338.354 244.877 338.218 244.96C338.086 245.04 337.936 245.08 337.771 245.08Z" fill="#4F4F4F"/>
</svg>
