<svg width="490" height="490" viewBox="0 0 490 490" fill="none" xmlns="http://www.w3.org/2000/svg">
<path fill-rule="evenodd" clip-rule="evenodd" d="M36.597 459.375H453.48V157.106L36.597 157.183V459.375Z" fill="#F8E157"/>
<path d="M120.663 88.2002L54.1303 126.481C48.7527 129.577 44.2907 134.041 41.1977 139.42C38.1047 144.799 36.4911 150.902 36.5209 157.106C36.5267 163.381 38.0387 169.563 40.9297 175.132C43.8208 180.701 48.0065 185.494 53.135 189.11L232.215 315.131C235.948 317.789 240.418 319.217 245.001 319.217C249.584 319.217 254.053 317.789 257.787 315.131L436.866 189.186C441.995 185.571 446.18 180.777 449.071 175.208C451.963 169.639 453.474 163.458 453.48 157.183C453.51 150.978 451.896 144.876 448.803 139.497C445.711 134.118 441.248 129.654 435.871 126.558L369.644 88.2768L120.663 88.2002Z" fill="#FCBF4A"/>
<path d="M107.954 30.625C104.99 30.625 102.146 31.8027 100.05 33.899C97.9537 35.9953 96.776 38.8385 96.776 41.8031V219.887L232.215 315.131C235.949 317.789 240.418 319.217 245.001 319.217C249.584 319.217 254.053 317.789 257.787 315.131L393.149 219.887V41.8031C393.15 38.8517 391.982 36.0201 389.903 33.9259C387.823 31.8318 384.999 30.6452 382.048 30.625H107.954Z" fill="#E0E5EB"/>
<path d="M366.659 30.625V199.828C366.686 202.51 366.083 205.161 364.9 207.567C363.716 209.974 361.985 212.07 359.845 213.686L257.94 285.195C254.382 287.717 250.128 289.071 245.767 289.071C241.405 289.071 237.152 287.717 233.593 285.195L96.776 188.88V219.505L232.215 315.131C235.949 317.789 240.418 319.217 245.001 319.217C249.584 319.217 254.053 317.789 257.787 315.131L393.149 219.887V41.8031C393.08 38.9221 391.901 36.1792 389.857 34.1469C388.86 33.1215 387.671 32.303 386.357 31.738C385.043 31.1731 383.631 30.8729 382.201 30.8547L366.659 30.625Z" fill="#BEC7D6"/>
<path d="M186.048 142.024C184.599 139.523 184.052 136.6 184.497 133.743C184.943 130.887 186.356 128.27 188.498 126.329L245.001 74.8023C246.395 73.515 248.061 72.5582 249.876 72.0031C251.69 71.4479 253.606 71.3085 255.482 71.5954C257.357 71.8823 259.144 72.5879 260.71 73.66C262.275 74.7321 263.579 76.1431 264.525 77.7882C272.181 90.8038 283.283 110.174 290.709 123.113C291.654 124.761 292.22 126.599 292.365 128.492C292.511 130.386 292.233 132.289 291.551 134.062C290.932 135.831 289.922 137.438 288.597 138.763C287.271 140.089 285.664 141.099 283.895 141.718L211.084 164.687C208.325 165.565 205.348 165.474 202.647 164.43C199.946 163.386 197.682 161.451 196.231 158.944L186.048 142.024Z" fill="#4F9FF6"/>
<path d="M220.117 161.624C220.117 161.624 235.43 175.788 245.842 184.593C246.867 185.549 248.071 186.292 249.386 186.779C250.7 187.265 252.098 187.485 253.498 187.426C254.952 187.377 256.38 187.032 257.697 186.414C259.013 185.795 260.189 184.915 261.155 183.827L265.366 179.157C267.25 177.004 268.223 174.203 268.08 171.346C267.937 168.489 266.689 165.799 264.6 163.844L251.202 151.748L220.117 161.624Z" fill="#3F76D3"/>
<path d="M36.5205 459.375L236.272 322.711C239.328 320.583 242.961 319.443 246.685 319.443C250.408 319.443 254.042 320.583 257.097 322.711L453.48 459.375H36.5205Z" fill="#FCBF4A"/>
<path fill-rule="evenodd" clip-rule="evenodd" d="M208.786 239.794H281.214C283.245 239.794 285.192 238.988 286.628 237.552C288.064 236.116 288.871 234.169 288.871 232.138C288.871 230.108 288.064 228.16 286.628 226.724C285.192 225.289 283.245 224.482 281.214 224.482H208.786C206.756 224.482 204.808 225.289 203.372 226.724C201.937 228.16 201.13 230.108 201.13 232.138C201.13 234.169 201.937 236.116 203.372 237.552C204.808 238.988 206.756 239.794 208.786 239.794Z" fill="#5E697B"/>
<path fill-rule="evenodd" clip-rule="evenodd" d="M36.597 459.375H453.48V157.106L36.597 157.183V459.375Z" fill="#F8E157"/>
<path d="M120.663 88.2002L54.1302 126.481C48.7526 129.577 44.2906 134.041 41.1976 139.42C38.1046 144.799 36.491 150.902 36.5208 157.106C36.5266 163.381 38.0386 169.563 40.9296 175.132C43.8207 180.701 48.0064 185.494 53.1349 189.11L232.215 315.131C235.948 317.789 240.417 319.217 245 319.217C249.583 319.217 254.053 317.789 257.786 315.131L436.866 189.186C441.995 185.571 446.18 180.777 449.071 175.208C451.962 169.639 453.474 163.458 453.48 157.183C453.51 150.978 451.896 144.876 448.803 139.497C445.71 134.118 441.248 129.654 435.871 126.558L369.644 88.2768L120.663 88.2002Z" fill="#FCBF4A"/>
<path d="M107.954 30.625C104.99 30.625 102.146 31.8027 100.05 33.899C97.9537 35.9953 96.776 38.8385 96.776 41.8031V219.887L232.215 315.131C235.949 317.789 240.418 319.217 245.001 319.217C249.584 319.217 254.053 317.789 257.787 315.131L393.149 219.887V41.8031C393.15 38.8517 391.982 36.0201 389.903 33.9259C387.823 31.8318 384.999 30.6452 382.048 30.625H107.954Z" fill="#E0E5EB"/>
<path d="M366.659 30.625V199.828C366.686 202.51 366.083 205.161 364.9 207.567C363.716 209.974 361.985 212.07 359.845 213.686L257.94 285.195C254.382 287.717 250.128 289.071 245.767 289.071C241.405 289.071 237.152 287.717 233.593 285.195L96.776 188.88V219.505L232.215 315.131C235.949 317.789 240.418 319.217 245.001 319.217C249.584 319.217 254.053 317.789 257.787 315.131L393.149 219.887V41.8031C393.08 38.9221 391.901 36.1792 389.857 34.1469C388.86 33.1215 387.671 32.303 386.357 31.738C385.043 31.1731 383.631 30.8729 382.201 30.8547L366.659 30.625Z" fill="#BEC7D6"/>
<path d="M36.5204 459.375L236.272 322.711C239.327 320.583 242.961 319.443 246.684 319.443C250.408 319.443 254.042 320.583 257.097 322.711L453.48 459.375H36.5204Z" fill="#FCBF4A"/>
<path d="M221.53 128.926H265.59V159.217V189.508H221.53V128.926Z" fill="#6E7B91"/>
<path d="M292.376 107.223H285.357V90.7572C285.357 72.5594 264.333 54.8599 244.106 54.8599C223.878 54.8599 202.587 72.4816 202.587 90.6793V107.223H195.835C190.778 107.223 186.641 110.945 186.641 115.494V202.347C186.641 206.897 190.778 210.619 195.835 210.619H292.376C297.433 210.619 301.57 206.897 301.57 202.347V115.494C301.57 110.945 297.433 107.223 292.376 107.223ZM257.897 178.566H230.314L237.67 161.609C233.302 159.541 230.314 155.405 230.314 150.649C230.314 143.825 236.52 138.242 244.106 138.242C251.691 138.242 257.897 143.825 257.897 150.649C257.897 155.405 254.909 159.541 250.542 161.609L257.897 178.566ZM267.132 107.223H220.64V90.6793C220.64 77.031 228.935 69.8893 244.106 69.8893C259.276 69.8893 267.132 77.1089 267.132 90.7572V107.223Z" fill="#6E7B91"/>
</svg>
