<svg width="427" height="427" viewBox="0 0 427 427" fill="none" xmlns="http://www.w3.org/2000/svg">
<path d="M33.3593 0C152.252 0 271.145 0 393.641 0C393.658 43.4839 393.675 86.9679 393.693 131.77C393.7 145.494 393.708 159.218 393.716 173.358C393.72 190.132 393.72 190.132 393.72 197.988C393.721 203.468 393.724 208.948 393.729 214.428C393.734 220.756 393.736 227.084 393.735 233.412C393.735 236.645 393.735 239.878 393.74 243.112C393.784 275.87 393.784 275.87 391.399 286.421C391.254 287.079 391.108 287.737 390.958 288.415C384.569 316.019 368.111 340.014 344.188 355.378C336.585 360.116 328.662 364.326 320.803 368.619C316.251 371.105 311.712 373.616 307.172 376.123C305.649 376.964 304.126 377.804 302.602 378.644C295.828 382.378 289.063 386.128 282.304 389.888C274.025 394.492 265.735 399.076 257.439 403.649C248.923 408.342 240.419 413.057 231.924 417.787C230.219 418.736 228.511 419.681 226.801 420.622C225.132 421.554 223.478 422.513 221.837 423.494C221.04 423.961 220.244 424.428 219.423 424.908C218.722 425.331 218.022 425.753 217.301 426.188C214.517 427.248 213.019 426.958 210.164 426.166C207.76 425.058 207.76 425.058 205.235 423.635C204.285 423.104 203.334 422.574 202.355 422.027C201.327 421.443 200.298 420.86 199.27 420.276C198.191 419.671 197.112 419.067 196.032 418.463C193.79 417.209 191.55 415.952 189.311 414.692C184.682 412.09 180.03 409.531 175.378 406.972C172.866 405.589 170.356 404.203 167.846 402.818C164.303 400.863 160.759 398.909 157.215 396.955C145.995 390.77 134.78 384.575 123.586 378.341C118.658 375.599 113.722 372.872 108.773 370.168C78.7717 353.77 78.7717 353.77 66.7187 342.768C66.1048 342.213 65.491 341.658 64.8585 341.087C49.9507 326.923 40.4225 307.556 35.8613 287.725C35.6817 286.946 35.5022 286.168 35.3172 285.366C32.3643 270.968 33.242 255.861 33.2625 241.248C33.2662 237.958 33.2649 234.667 33.2643 231.376C33.2639 225.006 33.2677 218.636 33.2731 212.266C33.2791 204.888 33.2798 197.51 33.2804 190.132C33.2848 170.678 33.2964 151.224 33.3072 131.77C33.3244 88.2856 33.3416 44.8016 33.3593 0Z" fill="#FEF4F4"/>
<path d="M33.3593 0C152.252 0 271.145 0 393.641 0C393.658 43.4839 393.675 86.9679 393.693 131.77C393.7 145.494 393.708 159.218 393.716 173.358C393.72 190.132 393.72 190.132 393.72 197.988C393.721 203.468 393.724 208.948 393.729 214.428C393.734 220.756 393.736 227.084 393.735 233.412C393.735 236.645 393.735 239.878 393.74 243.112C393.784 275.87 393.784 275.87 391.399 286.421C391.254 287.079 391.108 287.737 390.958 288.415C384.569 316.019 368.111 340.014 344.188 355.378C336.585 360.116 328.662 364.326 320.803 368.619C316.251 371.105 311.712 373.616 307.172 376.123C305.649 376.964 304.126 377.804 302.602 378.644C295.828 382.378 289.063 386.128 282.304 389.888C274.025 394.492 265.735 399.076 257.439 403.649C248.923 408.342 240.419 413.057 231.924 417.787C230.219 418.736 228.511 419.681 226.801 420.622C225.132 421.554 223.478 422.513 221.837 423.494C221.04 423.961 220.244 424.428 219.423 424.908C218.722 425.331 218.022 425.753 217.301 426.188C214.517 427.248 213.019 426.958 210.164 426.166C207.76 425.058 207.76 425.058 205.235 423.635C204.285 423.104 203.334 422.574 202.355 422.027C201.327 421.443 200.298 420.86 199.27 420.276C198.191 419.671 197.112 419.067 196.032 418.463C193.79 417.209 191.55 415.952 189.311 414.692C184.682 412.09 180.03 409.531 175.378 406.972C172.866 405.589 170.356 404.203 167.846 402.818C164.303 400.863 160.759 398.909 157.215 396.955C145.995 390.77 134.78 384.575 123.586 378.341C118.658 375.599 113.722 372.872 108.773 370.168C78.7717 353.77 78.7717 353.77 66.7187 342.768C66.1048 342.213 65.491 341.658 64.8585 341.087C49.9507 326.923 40.4225 307.556 35.8613 287.725C35.6817 286.946 35.5022 286.168 35.3172 285.366C32.3643 270.968 33.242 255.861 33.2625 241.248C33.2662 237.958 33.2649 234.667 33.2643 231.376C33.2639 225.006 33.2677 218.636 33.2731 212.266C33.2791 204.888 33.2798 197.51 33.2804 190.132C33.2848 170.678 33.2964 151.224 33.3072 131.77C33.3244 88.2856 33.3416 44.8016 33.3593 0ZM87.5683 53.375C87.5339 87.0028 87.4995 120.631 87.4641 155.277C87.4489 165.89 87.4337 176.502 87.418 187.435C87.4125 196.961 87.4125 196.961 87.4091 206.486C87.4074 211.28 87.399 216.074 87.3886 220.868C87.3786 225.723 87.3776 230.579 87.3797 235.435C87.3792 237.417 87.3759 239.399 87.3695 241.381C87.2914 255.463 87.2914 255.463 89.2363 269.377C89.4759 270.542 89.4759 270.542 89.7203 271.731C93.5476 289.23 106.008 305.747 120.732 315.565C126.636 319.312 132.863 322.519 139.038 325.791C144.034 328.442 148.958 331.207 153.87 334.011C161.182 338.173 168.555 342.208 175.963 346.195C182.708 349.834 189.39 353.579 196.05 357.372C197.512 358.205 198.977 359.033 200.445 359.857C202.001 360.742 203.544 361.649 205.077 362.572C205.873 363.038 206.669 363.505 207.489 363.985C208.202 364.414 208.915 364.842 209.65 365.284C212.465 366.362 213.947 366.091 216.836 365.285C219.295 364.192 219.295 364.192 221.765 362.754C222.715 362.223 223.666 361.693 224.645 361.146C225.673 360.563 226.701 359.979 227.73 359.395C228.809 358.79 229.888 358.186 230.968 357.582C233.21 356.328 235.45 355.071 237.689 353.811C242.319 351.209 246.971 348.65 251.624 346.09C253.625 344.988 255.625 343.884 257.625 342.78C262.244 340.23 266.865 337.685 271.488 335.144C276.54 332.368 281.585 329.578 286.627 326.782C289.22 325.349 291.82 323.931 294.423 322.514C313.943 311.779 329.378 297.393 336.226 275.462C338.676 266.848 339.56 258.768 339.532 249.844C339.533 249.002 339.533 248.16 339.534 247.292C339.535 244.478 339.531 241.664 339.526 238.85C339.526 236.795 339.526 234.74 339.527 232.685C339.527 227.747 339.523 222.809 339.518 217.872C339.512 212.156 339.511 206.44 339.511 200.725C339.506 185.645 339.494 170.566 339.484 155.486C339.467 121.789 339.449 88.0927 339.432 53.375C256.317 53.375 173.202 53.375 87.5683 53.375Z" fill="#00CCB2"/>
<path d="M213.5 0C272.946 0 332.393 0 393.641 0C393.674 66.0157 393.674 66.0157 393.681 93.6213C393.683 99.9394 393.685 106.258 393.686 112.576C393.687 113.367 393.687 114.159 393.687 114.975C393.691 127.74 393.697 140.505 393.705 153.269C393.713 166.38 393.717 179.491 393.719 192.602C393.72 200.685 393.724 208.768 393.731 216.851C393.735 222.402 393.736 227.953 393.735 233.504C393.735 236.701 393.735 239.899 393.74 243.096C393.784 275.87 393.784 275.87 391.399 286.422C391.254 287.079 391.108 287.737 390.958 288.415C384.569 316.019 368.111 340.014 344.188 355.378C336.585 360.116 328.662 364.326 320.803 368.619C316.251 371.105 311.712 373.616 307.172 376.123C305.649 376.964 304.126 377.804 302.602 378.644C295.828 382.378 289.063 386.128 282.304 389.888C274.025 394.492 265.735 399.076 257.438 403.649C248.923 408.342 240.419 413.057 231.924 417.787C230.221 418.735 228.518 419.681 226.814 420.625C225.114 421.568 223.416 422.515 221.72 423.465C220.893 423.924 220.066 424.383 219.214 424.856C218.475 425.269 217.736 425.682 216.975 426.107C215.168 427 215.168 427 213.5 427C213.326 419.258 213.193 411.516 213.111 403.772C213.072 400.176 213.019 396.581 212.934 392.985C212.852 389.514 212.807 386.043 212.788 382.571C212.774 381.248 212.747 379.925 212.706 378.603C212.402 368.269 212.402 368.269 215.052 365.093C216.987 363.774 218.844 362.84 221.006 361.949C222.262 361.223 222.262 361.223 223.544 360.481C224.664 359.89 224.664 359.89 225.808 359.288C227.09 358.606 227.09 358.606 228.399 357.91C229.745 357.2 229.745 357.2 231.118 356.476C238.226 352.691 245.287 348.845 252.28 344.853C259.039 340.999 265.853 337.264 272.713 333.594C293.113 323.183 293.113 323.183 311.91 310.242C312.622 309.665 313.333 309.088 314.067 308.493C328.486 296.217 337.091 277.3 338.598 258.535C338.712 255.638 338.726 252.743 338.73 249.844C338.734 249 338.738 248.155 338.742 247.286C338.755 244.474 338.762 241.662 338.769 238.85C338.777 236.828 338.785 234.805 338.794 232.783C338.812 228.438 338.827 224.092 338.84 219.747C338.859 213.464 338.883 207.182 338.907 200.899C338.947 190.704 338.983 180.51 339.017 170.315C339.05 160.416 339.084 150.516 339.121 140.617C339.123 140 339.126 139.382 339.128 138.747C339.148 133.379 339.168 128.011 339.188 122.643C339.274 99.5534 339.352 76.4642 339.432 53.375C297.874 53.375 256.317 53.375 213.5 53.375C213.5 35.7612 213.5 18.1475 213.5 0Z" fill="#009986"/>
<path d="M213.5 53.375C255.057 53.375 296.615 53.375 339.432 53.375C339.499 104.387 339.499 104.387 339.513 125.774C339.516 130.66 339.52 135.547 339.523 140.433C339.524 141.046 339.524 141.658 339.525 142.289C339.532 152.16 339.545 162.031 339.56 171.902C339.576 182.041 339.585 192.181 339.589 202.32C339.591 208.571 339.598 214.821 339.612 221.071C339.622 225.874 339.623 230.677 339.62 235.48C339.621 237.442 339.624 239.405 339.63 241.368C339.712 267.63 334.68 288.969 315.816 308.024C308.471 314.869 299.493 319.566 290.748 324.368C289.766 324.909 288.785 325.451 287.804 325.994C285.754 327.126 283.704 328.256 281.652 329.385C278.619 331.054 275.587 332.727 272.557 334.402C267.012 337.464 261.465 340.522 255.918 343.579C251.696 345.907 247.474 348.235 243.252 350.564C241.72 351.409 240.187 352.253 238.654 353.098C234.222 355.54 229.795 357.99 225.384 360.47C224.678 360.867 223.972 361.263 223.245 361.671C221.968 362.389 220.693 363.109 219.42 363.833C215.353 366.119 215.353 366.119 213.5 366.119C213.5 332.818 213.5 299.517 213.5 265.207C230.839 265.207 248.177 265.207 266.041 265.207C266.041 238.236 266.041 211.265 266.041 183.477C248.702 183.477 231.364 183.477 213.5 183.477C213.5 140.543 213.5 97.6095 213.5 53.375Z" fill="#DBE5EA"/>
<path d="M160.959 183.477C195.636 183.477 230.313 183.477 266.041 183.477C266.041 210.448 266.041 237.419 266.041 265.207C231.364 265.207 196.687 265.207 160.959 265.207C160.959 238.236 160.959 211.265 160.959 183.477Z" fill="#FCBF4A"/>
<path d="M160.959 183.477C178.298 183.477 195.636 183.477 213.5 183.477C213.5 210.448 213.5 237.419 213.5 265.207C196.161 265.207 178.823 265.207 160.959 265.207C160.959 238.236 160.959 211.265 160.959 183.477Z" fill="#F8E157"/>
<path d="M213.5 102.557C224.27 102.557 232.219 104.721 241.021 110.896C241.532 111.244 242.043 111.591 242.569 111.949C252.003 119.138 257.481 131.152 259.369 142.588C259.579 145.754 259.565 148.906 259.532 152.078C259.53 152.956 259.527 153.834 259.525 154.738C259.516 157.516 259.495 160.294 259.473 163.073C259.465 164.967 259.457 166.861 259.451 168.756C259.432 173.377 259.404 177.998 259.369 182.619C257.101 182.619 261.571 182.619 259.369 182.619C259.369 182.894 259.369 183.193 259.369 183.477C242.031 183.477 231.364 183.453 213.5 183.453C213.5 156.757 213.5 130.061 213.5 102.557Z" fill="#8594AD"/>
<path d="M213.5 102.58C213.5 129.276 213.5 155.972 213.5 183.477C198.363 183.477 183.226 183.477 167.631 183.477C167.682 176.132 167.734 168.787 167.787 161.22C167.793 158.924 167.798 156.628 167.804 154.262C167.826 152.408 167.85 150.554 167.875 148.7C167.872 147.765 167.869 146.83 167.865 145.867C168.054 135.199 171.943 126.723 178.473 118.426C178.98 117.738 179.488 117.05 180.01 116.341C188.734 106.227 200.621 102.58 213.5 102.58Z" fill="#BEC7D6"/>
<path d="M213.5 126.766C213.5 145.48 213.5 164.195 213.5 183.477C206.62 183.477 199.739 183.477 192.65 183.477C192.574 178.046 192.507 172.618 192.467 167.188C192.45 165.344 192.428 163.499 192.399 161.655C192.358 158.993 192.339 156.331 192.325 153.668C192.307 152.854 192.29 152.039 192.272 151.2C192.27 144.152 193.877 138.089 198.593 132.708C202.783 128.88 207.845 126.766 213.5 126.766Z" fill="#FEF4F4"/>
<path d="M213.5 126.766C219.961 126.766 223.171 127.398 227.907 131.72C233.968 138.275 235.128 144.565 234.989 153.268C234.986 154.136 234.982 155.004 234.979 155.897C234.964 158.646 234.932 161.395 234.9 164.143C234.887 166.016 234.875 167.889 234.865 169.762C234.839 174.334 234.789 178.905 234.741 183.477C227.731 183.477 220.722 183.477 213.5 183.477C213.5 164.762 213.5 146.047 213.5 126.766Z" fill="#DBE5EA"/>
</svg>
